SplineFontDB: 3.2
FontName: LucidaTypewriter19B
FullName: Lucida Typewriter 19B
FamilyName: Lucida Typewriter 19B
Weight: Medium
Copyright: Copyright (c) Darren Embry 2024.
UComments: "2024-7-5: Created with FontForge (http://fontforge.org)"
Version: 001.000
ItalicAngle: 0
UnderlinePosition: -100
UnderlineWidth: 50
Ascent: 800
Descent: 200
InvalidEm: 0
sfntRevision: 0x00010000
LayerCount: 2
Layer: 0 0 "Back" 1
Layer: 1 0 "Fore" 0
XUID: [1021 407 -889718698 5898772]
StyleMap: 0x0000
FSType: 64
OS2Version: 0
OS2_WeightWidthSlopeOnly: 0
OS2_UseTypoMetrics: 1
CreationTime: 1720230910
ModificationTime: 1720230911
PfmFamily: 48
TTFWeight: 500
TTFWidth: 5
LineGap: 90
VLineGap: 90
Panose: 2 0 6 9 0 0 0 0 0 0
OS2TypoAscent: 0
OS2TypoAOffset: 1
OS2TypoDescent: 0
OS2TypoDOffset: 1
OS2TypoLinegap: 90
OS2WinAscent: 0
OS2WinAOffset: 1
OS2WinDescent: 0
OS2WinDOffset: 1
HheadAscent: 0
HheadAOffset: 1
HheadDescent: 0
HheadDOffset: 1
OS2SubXSize: 650
OS2SubYSize: 700
OS2SubXOff: 0
OS2SubYOff: 140
OS2SupXSize: 650
OS2SupYSize: 700
OS2SupXOff: 0
OS2SupYOff: 480
OS2StrikeYSize: 49
OS2StrikeYPos: 258
DEI: 91125
LangName: 1033 "" "" "Regular" "Lucida Typewriter 19B 2024" "" "0.0"
Encoding: UnicodeBmp
UnicodeInterp: none
NameList: AGL For New Fonts
DisplaySize: 26
AntiAlias: 1
FitToEm: 0
BeginChars: 65536 873

StartChar: char0
Encoding: 0 0 0
Width: 593
Flags: HW
LayerCount: 2
Back
Fore
SplineSet
74 667 m 1
 74 704 l 1
 111 704 l 1
 111 667 l 1
 74 667 l 1
148 667 m 1
 148 704 l 1
 185 704 l 1
 185 667 l 1
 148 667 l 1
222 667 m 1
 222 704 l 1
 259 704 l 1
 259 667 l 1
 222 667 l 1
296 667 m 1
 296 704 l 1
 333 704 l 1
 333 667 l 1
 296 667 l 1
370 667 m 1
 370 704 l 1
 407 704 l 1
 407 667 l 1
 370 667 l 1
444 667 m 1
 444 704 l 1
 481 704 l 1
 481 667 l 1
 444 667 l 1
74 593 m 1
 74 630 l 1
 111 630 l 1
 111 593 l 1
 74 593 l 1
444 593 m 1
 444 630 l 1
 481 630 l 1
 481 593 l 1
 444 593 l 1
74 519 m 1
 74 556 l 1
 111 556 l 1
 111 519 l 1
 74 519 l 1
444 519 m 1
 444 556 l 1
 481 556 l 1
 481 519 l 1
 444 519 l 1
74 444 m 1
 74 481 l 1
 111 481 l 1
 111 444 l 1
 74 444 l 1
444 444 m 1
 444 481 l 1
 481 481 l 1
 481 444 l 1
 444 444 l 1
74 370 m 1
 74 407 l 1
 111 407 l 1
 111 370 l 1
 74 370 l 1
444 370 m 1
 444 407 l 1
 481 407 l 1
 481 370 l 1
 444 370 l 1
74 296 m 1
 74 333 l 1
 111 333 l 1
 111 296 l 1
 74 296 l 1
444 296 m 1
 444 333 l 1
 481 333 l 1
 481 296 l 1
 444 296 l 1
74 222 m 1
 74 259 l 1
 111 259 l 1
 111 222 l 1
 74 222 l 1
444 222 m 1
 444 259 l 1
 481 259 l 1
 481 222 l 1
 444 222 l 1
74 148 m 1
 74 185 l 1
 111 185 l 1
 111 148 l 1
 74 148 l 1
444 148 m 1
 444 185 l 1
 481 185 l 1
 481 148 l 1
 444 148 l 1
74 74 m 1
 74 111 l 1
 111 111 l 1
 111 74 l 1
 74 74 l 1
444 74 m 1
 444 111 l 1
 481 111 l 1
 481 74 l 1
 444 74 l 1
74 0 m 1
 74 37 l 1
 111 37 l 1
 111 0 l 1
 74 0 l 1
148 0 m 1
 148 37 l 1
 185 37 l 1
 185 0 l 1
 148 0 l 1
222 0 m 1
 222 37 l 1
 259 37 l 1
 259 0 l 1
 222 0 l 1
296 0 m 1
 296 37 l 1
 333 37 l 1
 333 0 l 1
 296 0 l 1
370 0 m 1
 370 37 l 1
 407 37 l 1
 407 0 l 1
 370 0 l 1
444 0 m 1
 444 37 l 1
 481 37 l 1
 481 0 l 1
 444 0 l 1
EndSplineSet
EndChar

StartChar: exclam
Encoding: 33 33 2
Width: 593
Flags: HW
LayerCount: 2
Back
Fore
SplineSet
259 667 m 1
 259 704 l 1
 370 704 l 1
 370 667 l 1
 259 667 l 1
259 630 m 1
 259 667 l 1
 370 667 l 1
 370 630 l 1
 259 630 l 1
259 593 m 1
 259 630 l 1
 370 630 l 1
 370 593 l 1
 259 593 l 1
259 556 m 1
 259 593 l 1
 370 593 l 1
 370 556 l 1
 259 556 l 1
259 519 m 1
 259 556 l 1
 370 556 l 1
 370 519 l 1
 259 519 l 1
259 481 m 1
 259 519 l 1
 370 519 l 1
 370 481 l 1
 259 481 l 1
259 444 m 1
 259 481 l 1
 370 481 l 1
 370 444 l 1
 259 444 l 1
259 407 m 1
 259 444 l 1
 370 444 l 1
 370 407 l 1
 259 407 l 1
259 370 m 1
 259 407 l 1
 370 407 l 1
 370 370 l 1
 259 370 l 1
259 333 m 1
 259 370 l 1
 333 370 l 1
 333 333 l 1
 259 333 l 1
259 296 m 1
 259 333 l 1
 333 333 l 1
 333 296 l 1
 259 296 l 1
259 259 m 1
 259 296 l 1
 333 296 l 1
 333 259 l 1
 259 259 l 1
259 222 m 1
 259 259 l 1
 333 259 l 1
 333 222 l 1
 259 222 l 1
259 185 m 1
 259 222 l 1
 333 222 l 1
 333 185 l 1
 259 185 l 1
222 74 m 1
 222 111 l 1
 370 111 l 1
 370 74 l 1
 222 74 l 1
222 37 m 1
 222 74 l 1
 370 74 l 1
 370 37 l 1
 222 37 l 1
222 0 m 1
 222 37 l 1
 370 37 l 1
 370 0 l 1
 222 0 l 1
EndSplineSet
EndChar

StartChar: quotedbl
Encoding: 34 34 3
Width: 593
Flags: HW
LayerCount: 2
Back
Fore
SplineSet
111 667 m 1
 111 704 l 1
 222 704 l 1
 222 667 l 1
 111 667 l 1
370 667 m 1
 370 704 l 1
 481 704 l 1
 481 667 l 1
 370 667 l 1
111 630 m 1
 111 667 l 1
 222 667 l 1
 222 630 l 1
 111 630 l 1
370 630 m 1
 370 667 l 1
 481 667 l 1
 481 630 l 1
 370 630 l 1
111 593 m 1
 111 630 l 1
 222 630 l 1
 222 593 l 1
 111 593 l 1
370 593 m 1
 370 630 l 1
 481 630 l 1
 481 593 l 1
 370 593 l 1
148 556 m 1
 148 593 l 1
 222 593 l 1
 222 556 l 1
 148 556 l 1
370 556 m 1
 370 593 l 1
 444 593 l 1
 444 556 l 1
 370 556 l 1
148 519 m 1
 148 556 l 1
 222 556 l 1
 222 519 l 1
 148 519 l 1
370 519 m 1
 370 556 l 1
 444 556 l 1
 444 519 l 1
 370 519 l 1
148 481 m 1
 148 519 l 1
 222 519 l 1
 222 481 l 1
 148 481 l 1
370 481 m 1
 370 519 l 1
 444 519 l 1
 444 481 l 1
 370 481 l 1
EndSplineSet
EndChar

StartChar: numbersign
Encoding: 35 35 4
Width: 593
Flags: HW
LayerCount: 2
Back
Fore
SplineSet
259 667 m 1
 259 704 l 1
 333 704 l 1
 333 667 l 1
 259 667 l 1
407 667 m 1
 407 704 l 1
 519 704 l 1
 519 667 l 1
 407 667 l 1
259 630 m 1
 259 667 l 1
 333 667 l 1
 333 630 l 1
 259 630 l 1
407 630 m 1
 407 667 l 1
 481 667 l 1
 481 630 l 1
 407 630 l 1
222 593 m 1
 222 630 l 1
 296 630 l 1
 296 593 l 1
 222 593 l 1
407 593 m 1
 407 630 l 1
 481 630 l 1
 481 593 l 1
 407 593 l 1
222 556 m 1
 222 593 l 1
 296 593 l 1
 296 556 l 1
 222 556 l 1
407 556 m 1
 407 593 l 1
 481 593 l 1
 481 556 l 1
 407 556 l 1
222 519 m 1
 222 556 l 1
 296 556 l 1
 296 519 l 1
 222 519 l 1
407 519 m 1
 407 556 l 1
 481 556 l 1
 481 519 l 1
 407 519 l 1
222 481 m 1
 222 519 l 1
 296 519 l 1
 296 481 l 1
 222 481 l 1
370 481 m 1
 370 519 l 1
 444 519 l 1
 444 481 l 1
 370 481 l 1
74 444 m 1
 74 481 l 1
 556 481 l 1
 556 444 l 1
 74 444 l 1
74 407 m 1
 74 444 l 1
 556 444 l 1
 556 407 l 1
 74 407 l 1
185 370 m 1
 185 407 l 1
 259 407 l 1
 259 370 l 1
 185 370 l 1
370 370 m 1
 370 407 l 1
 444 407 l 1
 444 370 l 1
 370 370 l 1
185 333 m 1
 185 370 l 1
 259 370 l 1
 259 333 l 1
 185 333 l 1
333 333 m 1
 333 370 l 1
 407 370 l 1
 407 333 l 1
 333 333 l 1
185 296 m 1
 185 333 l 1
 259 333 l 1
 259 296 l 1
 185 296 l 1
333 296 m 1
 333 333 l 1
 407 333 l 1
 407 296 l 1
 333 296 l 1
148 259 m 1
 148 296 l 1
 222 296 l 1
 222 259 l 1
 148 259 l 1
333 259 m 1
 333 296 l 1
 407 296 l 1
 407 259 l 1
 333 259 l 1
37 222 m 1
 37 259 l 1
 519 259 l 1
 519 222 l 1
 37 222 l 1
37 185 m 1
 37 222 l 1
 519 222 l 1
 519 185 l 1
 37 185 l 1
148 148 m 1
 148 185 l 1
 222 185 l 1
 222 148 l 1
 148 148 l 1
296 148 m 1
 296 185 l 1
 370 185 l 1
 370 148 l 1
 296 148 l 1
111 111 m 1
 111 148 l 1
 185 148 l 1
 185 111 l 1
 111 111 l 1
296 111 m 1
 296 148 l 1
 370 148 l 1
 370 111 l 1
 296 111 l 1
111 74 m 1
 111 111 l 1
 185 111 l 1
 185 74 l 1
 111 74 l 1
296 74 m 1
 296 111 l 1
 370 111 l 1
 370 74 l 1
 296 74 l 1
111 37 m 1
 111 74 l 1
 185 74 l 1
 185 37 l 1
 111 37 l 1
259 37 m 1
 259 74 l 1
 370 74 l 1
 370 37 l 1
 259 37 l 1
74 0 m 1
 74 37 l 1
 185 37 l 1
 185 0 l 1
 74 0 l 1
259 0 m 1
 259 37 l 1
 333 37 l 1
 333 0 l 1
 259 0 l 1
EndSplineSet
EndChar

StartChar: dollar
Encoding: 36 36 5
Width: 593
Flags: HW
LayerCount: 2
Back
Fore
SplineSet
259 704 m 1
 259 741 l 1
 333 741 l 1
 333 704 l 1
 259 704 l 1
185 667 m 1
 185 704 l 1
 444 704 l 1
 444 667 l 1
 185 667 l 1
148 630 m 1
 148 667 l 1
 481 667 l 1
 481 630 l 1
 148 630 l 1
111 593 m 1
 111 630 l 1
 222 630 l 1
 222 593 l 1
 111 593 l 1
259 593 m 1
 259 630 l 1
 333 630 l 1
 333 593 l 1
 259 593 l 1
444 593 m 1
 444 630 l 1
 481 630 l 1
 481 593 l 1
 444 593 l 1
111 556 m 1
 111 593 l 1
 222 593 l 1
 222 556 l 1
 111 556 l 1
259 556 m 1
 259 593 l 1
 333 593 l 1
 333 556 l 1
 259 556 l 1
111 519 m 1
 111 556 l 1
 222 556 l 1
 222 519 l 1
 111 519 l 1
259 519 m 1
 259 556 l 1
 333 556 l 1
 333 519 l 1
 259 519 l 1
111 481 m 1
 111 519 l 1
 222 519 l 1
 222 481 l 1
 111 481 l 1
259 481 m 1
 259 519 l 1
 333 519 l 1
 333 481 l 1
 259 481 l 1
111 444 m 1
 111 481 l 1
 222 481 l 1
 222 444 l 1
 111 444 l 1
259 444 m 1
 259 481 l 1
 333 481 l 1
 333 444 l 1
 259 444 l 1
148 407 m 1
 148 444 l 1
 333 444 l 1
 333 407 l 1
 148 407 l 1
185 370 m 1
 185 407 l 1
 333 407 l 1
 333 370 l 1
 185 370 l 1
222 333 m 1
 222 370 l 1
 370 370 l 1
 370 333 l 1
 222 333 l 1
259 296 m 1
 259 333 l 1
 407 333 l 1
 407 296 l 1
 259 296 l 1
259 259 m 1
 259 296 l 1
 444 296 l 1
 444 259 l 1
 259 259 l 1
259 222 m 1
 259 259 l 1
 333 259 l 1
 333 222 l 1
 259 222 l 1
370 222 m 1
 370 259 l 1
 481 259 l 1
 481 222 l 1
 370 222 l 1
259 185 m 1
 259 222 l 1
 333 222 l 1
 333 185 l 1
 259 185 l 1
370 185 m 1
 370 222 l 1
 481 222 l 1
 481 185 l 1
 370 185 l 1
259 148 m 1
 259 185 l 1
 333 185 l 1
 333 148 l 1
 259 148 l 1
370 148 m 1
 370 185 l 1
 481 185 l 1
 481 148 l 1
 370 148 l 1
259 111 m 1
 259 148 l 1
 333 148 l 1
 333 111 l 1
 259 111 l 1
370 111 m 1
 370 148 l 1
 481 148 l 1
 481 111 l 1
 370 111 l 1
111 74 m 1
 111 111 l 1
 148 111 l 1
 148 74 l 1
 111 74 l 1
259 74 m 1
 259 111 l 1
 333 111 l 1
 333 74 l 1
 259 74 l 1
370 74 m 1
 370 111 l 1
 444 111 l 1
 444 74 l 1
 370 74 l 1
111 37 m 1
 111 74 l 1
 444 74 l 1
 444 37 l 1
 111 37 l 1
148 0 m 1
 148 37 l 1
 407 37 l 1
 407 0 l 1
 148 0 l 1
259 -37 m 1
 259 0 l 1
 333 0 l 1
 333 -37 l 1
 259 -37 l 1
259 -74 m 1
 259 -37 l 1
 333 -37 l 1
 333 -74 l 1
 259 -74 l 1
EndSplineSet
EndChar

StartChar: percent
Encoding: 37 37 6
Width: 593
Flags: HW
LayerCount: 2
Back
Fore
SplineSet
74 667 m 1
 74 704 l 1
 222 704 l 1
 222 667 l 1
 74 667 l 1
481 667 m 1
 481 704 l 1
 593 704 l 1
 593 667 l 1
 481 667 l 1
37 630 m 1
 37 667 l 1
 111 667 l 1
 111 630 l 1
 37 630 l 1
185 630 m 1
 185 667 l 1
 259 667 l 1
 259 630 l 1
 185 630 l 1
481 630 m 1
 481 667 l 1
 556 667 l 1
 556 630 l 1
 481 630 l 1
0 593 m 1
 0 630 l 1
 74 630 l 1
 74 593 l 1
 0 593 l 1
222 593 m 1
 222 630 l 1
 296 630 l 1
 296 593 l 1
 222 593 l 1
444 593 m 1
 444 630 l 1
 519 630 l 1
 519 593 l 1
 444 593 l 1
0 556 m 1
 0 593 l 1
 74 593 l 1
 74 556 l 1
 0 556 l 1
222 556 m 1
 222 593 l 1
 296 593 l 1
 296 556 l 1
 222 556 l 1
407 556 m 1
 407 593 l 1
 519 593 l 1
 519 556 l 1
 407 556 l 1
0 519 m 1
 0 556 l 1
 74 556 l 1
 74 519 l 1
 0 519 l 1
222 519 m 1
 222 556 l 1
 296 556 l 1
 296 519 l 1
 222 519 l 1
370 519 m 1
 370 556 l 1
 481 556 l 1
 481 519 l 1
 370 519 l 1
0 481 m 1
 0 519 l 1
 74 519 l 1
 74 481 l 1
 0 481 l 1
222 481 m 1
 222 519 l 1
 296 519 l 1
 296 481 l 1
 222 481 l 1
370 481 m 1
 370 519 l 1
 444 519 l 1
 444 481 l 1
 370 481 l 1
0 444 m 1
 0 481 l 1
 74 481 l 1
 74 444 l 1
 0 444 l 1
222 444 m 1
 222 481 l 1
 296 481 l 1
 296 444 l 1
 222 444 l 1
333 444 m 1
 333 481 l 1
 407 481 l 1
 407 444 l 1
 333 444 l 1
37 407 m 1
 37 444 l 1
 111 444 l 1
 111 407 l 1
 37 407 l 1
185 407 m 1
 185 444 l 1
 259 444 l 1
 259 407 l 1
 185 407 l 1
296 407 m 1
 296 444 l 1
 407 444 l 1
 407 407 l 1
 296 407 l 1
74 370 m 1
 74 407 l 1
 222 407 l 1
 222 370 l 1
 74 370 l 1
259 370 m 1
 259 407 l 1
 370 407 l 1
 370 370 l 1
 259 370 l 1
259 333 m 1
 259 370 l 1
 333 370 l 1
 333 333 l 1
 259 333 l 1
222 296 m 1
 222 333 l 1
 296 333 l 1
 296 296 l 1
 222 296 l 1
185 259 m 1
 185 296 l 1
 296 296 l 1
 296 259 l 1
 185 259 l 1
370 259 m 1
 370 296 l 1
 519 296 l 1
 519 259 l 1
 370 259 l 1
185 222 m 1
 185 259 l 1
 259 259 l 1
 259 222 l 1
 185 222 l 1
333 222 m 1
 333 259 l 1
 407 259 l 1
 407 222 l 1
 333 222 l 1
481 222 m 1
 481 259 l 1
 556 259 l 1
 556 222 l 1
 481 222 l 1
148 185 m 1
 148 222 l 1
 222 222 l 1
 222 185 l 1
 148 185 l 1
296 185 m 1
 296 222 l 1
 370 222 l 1
 370 185 l 1
 296 185 l 1
519 185 m 1
 519 222 l 1
 593 222 l 1
 593 185 l 1
 519 185 l 1
111 148 m 1
 111 185 l 1
 222 185 l 1
 222 148 l 1
 111 148 l 1
296 148 m 1
 296 185 l 1
 370 185 l 1
 370 148 l 1
 296 148 l 1
519 148 m 1
 519 185 l 1
 593 185 l 1
 593 148 l 1
 519 148 l 1
74 111 m 1
 74 148 l 1
 185 148 l 1
 185 111 l 1
 74 111 l 1
296 111 m 1
 296 148 l 1
 370 148 l 1
 370 111 l 1
 296 111 l 1
519 111 m 1
 519 148 l 1
 593 148 l 1
 593 111 l 1
 519 111 l 1
74 74 m 1
 74 111 l 1
 148 111 l 1
 148 74 l 1
 74 74 l 1
296 74 m 1
 296 111 l 1
 370 111 l 1
 370 74 l 1
 296 74 l 1
519 74 m 1
 519 111 l 1
 593 111 l 1
 593 74 l 1
 519 74 l 1
37 37 m 1
 37 74 l 1
 111 74 l 1
 111 37 l 1
 37 37 l 1
333 37 m 1
 333 74 l 1
 407 74 l 1
 407 37 l 1
 333 37 l 1
481 37 m 1
 481 74 l 1
 556 74 l 1
 556 37 l 1
 481 37 l 1
0 0 m 1
 0 37 l 1
 111 37 l 1
 111 0 l 1
 0 0 l 1
370 0 m 1
 370 37 l 1
 519 37 l 1
 519 0 l 1
 370 0 l 1
EndSplineSet
EndChar

StartChar: ampersand
Encoding: 38 38 7
Width: 593
Flags: HW
LayerCount: 2
Back
Fore
SplineSet
185 667 m 1
 185 704 l 1
 333 704 l 1
 333 667 l 1
 185 667 l 1
148 630 m 1
 148 667 l 1
 370 667 l 1
 370 630 l 1
 148 630 l 1
111 593 m 1
 111 630 l 1
 222 630 l 1
 222 593 l 1
 111 593 l 1
296 593 m 1
 296 630 l 1
 407 630 l 1
 407 593 l 1
 296 593 l 1
111 556 m 1
 111 593 l 1
 222 593 l 1
 222 556 l 1
 111 556 l 1
296 556 m 1
 296 593 l 1
 407 593 l 1
 407 556 l 1
 296 556 l 1
111 519 m 1
 111 556 l 1
 222 556 l 1
 222 519 l 1
 111 519 l 1
296 519 m 1
 296 556 l 1
 407 556 l 1
 407 519 l 1
 296 519 l 1
111 481 m 1
 111 519 l 1
 222 519 l 1
 222 481 l 1
 111 481 l 1
296 481 m 1
 296 519 l 1
 407 519 l 1
 407 481 l 1
 296 481 l 1
148 444 m 1
 148 481 l 1
 222 481 l 1
 222 444 l 1
 148 444 l 1
259 444 m 1
 259 481 l 1
 370 481 l 1
 370 444 l 1
 259 444 l 1
148 407 m 1
 148 444 l 1
 333 444 l 1
 333 407 l 1
 148 407 l 1
111 370 m 1
 111 407 l 1
 296 407 l 1
 296 370 l 1
 111 370 l 1
37 333 m 1
 37 370 l 1
 296 370 l 1
 296 333 l 1
 37 333 l 1
444 333 m 1
 444 370 l 1
 556 370 l 1
 556 333 l 1
 444 333 l 1
37 296 m 1
 37 333 l 1
 148 333 l 1
 148 296 l 1
 37 296 l 1
185 296 m 1
 185 333 l 1
 333 333 l 1
 333 296 l 1
 185 296 l 1
444 296 m 1
 444 333 l 1
 556 333 l 1
 556 296 l 1
 444 296 l 1
0 259 m 1
 0 296 l 1
 111 296 l 1
 111 259 l 1
 0 259 l 1
222 259 m 1
 222 296 l 1
 333 296 l 1
 333 259 l 1
 222 259 l 1
444 259 m 1
 444 296 l 1
 556 296 l 1
 556 259 l 1
 444 259 l 1
0 222 m 1
 0 259 l 1
 111 259 l 1
 111 222 l 1
 0 222 l 1
222 222 m 1
 222 259 l 1
 370 259 l 1
 370 222 l 1
 222 222 l 1
444 222 m 1
 444 259 l 1
 519 259 l 1
 519 222 l 1
 444 222 l 1
0 185 m 1
 0 222 l 1
 111 222 l 1
 111 185 l 1
 0 185 l 1
259 185 m 1
 259 222 l 1
 519 222 l 1
 519 185 l 1
 259 185 l 1
0 148 m 1
 0 185 l 1
 111 185 l 1
 111 148 l 1
 0 148 l 1
296 148 m 1
 296 185 l 1
 481 185 l 1
 481 148 l 1
 296 148 l 1
0 111 m 1
 0 148 l 1
 148 148 l 1
 148 111 l 1
 0 111 l 1
296 111 m 1
 296 148 l 1
 481 148 l 1
 481 111 l 1
 296 111 l 1
37 74 m 1
 37 111 l 1
 185 111 l 1
 185 74 l 1
 37 74 l 1
296 74 m 1
 296 111 l 1
 444 111 l 1
 444 74 l 1
 296 74 l 1
74 37 m 1
 74 74 l 1
 370 74 l 1
 370 37 l 1
 74 37 l 1
407 37 m 1
 407 74 l 1
 481 74 l 1
 481 37 l 1
 407 37 l 1
111 0 m 1
 111 37 l 1
 333 37 l 1
 333 0 l 1
 111 0 l 1
407 0 m 1
 407 37 l 1
 556 37 l 1
 556 0 l 1
 407 0 l 1
EndSplineSet
EndChar

StartChar: quotesingle
Encoding: 39 39 8
Width: 593
Flags: HW
LayerCount: 2
Back
Fore
SplineSet
222 667 m 1
 222 704 l 1
 370 704 l 1
 370 667 l 1
 222 667 l 1
222 630 m 1
 222 667 l 1
 370 667 l 1
 370 630 l 1
 222 630 l 1
222 593 m 1
 222 630 l 1
 370 630 l 1
 370 593 l 1
 222 593 l 1
222 556 m 1
 222 593 l 1
 370 593 l 1
 370 556 l 1
 222 556 l 1
259 519 m 1
 259 556 l 1
 333 556 l 1
 333 519 l 1
 259 519 l 1
259 481 m 1
 259 519 l 1
 333 519 l 1
 333 481 l 1
 259 481 l 1
259 444 m 1
 259 481 l 1
 333 481 l 1
 333 444 l 1
 259 444 l 1
EndSplineSet
EndChar

StartChar: parenleft
Encoding: 40 40 9
Width: 593
Flags: HW
LayerCount: 2
Back
Fore
SplineSet
407 667 m 1
 407 704 l 1
 519 704 l 1
 519 667 l 1
 407 667 l 1
333 630 m 1
 333 667 l 1
 519 667 l 1
 519 630 l 1
 333 630 l 1
259 593 m 1
 259 630 l 1
 444 630 l 1
 444 593 l 1
 259 593 l 1
222 556 m 1
 222 593 l 1
 370 593 l 1
 370 556 l 1
 222 556 l 1
222 519 m 1
 222 556 l 1
 333 556 l 1
 333 519 l 1
 222 519 l 1
185 481 m 1
 185 519 l 1
 333 519 l 1
 333 481 l 1
 185 481 l 1
185 444 m 1
 185 481 l 1
 296 481 l 1
 296 444 l 1
 185 444 l 1
148 407 m 1
 148 444 l 1
 296 444 l 1
 296 407 l 1
 148 407 l 1
148 370 m 1
 148 407 l 1
 259 407 l 1
 259 370 l 1
 148 370 l 1
148 333 m 1
 148 370 l 1
 259 370 l 1
 259 333 l 1
 148 333 l 1
148 296 m 1
 148 333 l 1
 259 333 l 1
 259 296 l 1
 148 296 l 1
148 259 m 1
 148 296 l 1
 259 296 l 1
 259 259 l 1
 148 259 l 1
148 222 m 1
 148 259 l 1
 259 259 l 1
 259 222 l 1
 148 222 l 1
148 185 m 1
 148 222 l 1
 259 222 l 1
 259 185 l 1
 148 185 l 1
148 148 m 1
 148 185 l 1
 259 185 l 1
 259 148 l 1
 148 148 l 1
185 111 m 1
 185 148 l 1
 296 148 l 1
 296 111 l 1
 185 111 l 1
185 74 m 1
 185 111 l 1
 296 111 l 1
 296 74 l 1
 185 74 l 1
222 37 m 1
 222 74 l 1
 296 74 l 1
 296 37 l 1
 222 37 l 1
222 0 m 1
 222 37 l 1
 333 37 l 1
 333 0 l 1
 222 0 l 1
259 -37 m 1
 259 0 l 1
 370 0 l 1
 370 -37 l 1
 259 -37 l 1
296 -74 m 1
 296 -37 l 1
 444 -37 l 1
 444 -74 l 1
 296 -74 l 1
370 -111 m 1
 370 -74 l 1
 519 -74 l 1
 519 -111 l 1
 370 -111 l 1
444 -148 m 1
 444 -111 l 1
 519 -111 l 1
 519 -148 l 1
 444 -148 l 1
EndSplineSet
EndChar

StartChar: parenright
Encoding: 41 41 10
Width: 593
Flags: HW
LayerCount: 2
Back
Fore
SplineSet
74 667 m 1
 74 704 l 1
 148 704 l 1
 148 667 l 1
 74 667 l 1
74 630 m 1
 74 667 l 1
 259 667 l 1
 259 630 l 1
 74 630 l 1
148 593 m 1
 148 630 l 1
 296 630 l 1
 296 593 l 1
 148 593 l 1
222 556 m 1
 222 593 l 1
 333 593 l 1
 333 556 l 1
 222 556 l 1
259 519 m 1
 259 556 l 1
 370 556 l 1
 370 519 l 1
 259 519 l 1
259 481 m 1
 259 519 l 1
 370 519 l 1
 370 481 l 1
 259 481 l 1
296 444 m 1
 296 481 l 1
 407 481 l 1
 407 444 l 1
 296 444 l 1
296 407 m 1
 296 444 l 1
 407 444 l 1
 407 407 l 1
 296 407 l 1
333 370 m 1
 333 407 l 1
 444 407 l 1
 444 370 l 1
 333 370 l 1
333 333 m 1
 333 370 l 1
 444 370 l 1
 444 333 l 1
 333 333 l 1
333 296 m 1
 333 333 l 1
 444 333 l 1
 444 296 l 1
 333 296 l 1
333 259 m 1
 333 296 l 1
 444 296 l 1
 444 259 l 1
 333 259 l 1
333 222 m 1
 333 259 l 1
 444 259 l 1
 444 222 l 1
 333 222 l 1
333 185 m 1
 333 222 l 1
 444 222 l 1
 444 185 l 1
 333 185 l 1
333 148 m 1
 333 185 l 1
 444 185 l 1
 444 148 l 1
 333 148 l 1
296 111 m 1
 296 148 l 1
 407 148 l 1
 407 111 l 1
 296 111 l 1
296 74 m 1
 296 111 l 1
 407 111 l 1
 407 74 l 1
 296 74 l 1
259 37 m 1
 259 74 l 1
 407 74 l 1
 407 37 l 1
 259 37 l 1
259 0 m 1
 259 37 l 1
 370 37 l 1
 370 0 l 1
 259 0 l 1
222 -37 m 1
 222 0 l 1
 333 0 l 1
 333 -37 l 1
 222 -37 l 1
148 -74 m 1
 148 -37 l 1
 296 -37 l 1
 296 -74 l 1
 148 -74 l 1
74 -111 m 1
 74 -74 l 1
 259 -74 l 1
 259 -111 l 1
 74 -111 l 1
74 -148 m 1
 74 -111 l 1
 148 -111 l 1
 148 -148 l 1
 74 -148 l 1
EndSplineSet
EndChar

StartChar: asterisk
Encoding: 42 42 11
Width: 593
Flags: HW
LayerCount: 2
Back
Fore
SplineSet
259 667 m 1
 259 704 l 1
 333 704 l 1
 333 667 l 1
 259 667 l 1
259 630 m 1
 259 667 l 1
 333 667 l 1
 333 630 l 1
 259 630 l 1
259 593 m 1
 259 630 l 1
 333 630 l 1
 333 593 l 1
 259 593 l 1
111 556 m 1
 111 593 l 1
 185 593 l 1
 185 556 l 1
 111 556 l 1
259 556 m 1
 259 593 l 1
 333 593 l 1
 333 556 l 1
 259 556 l 1
407 556 m 1
 407 593 l 1
 481 593 l 1
 481 556 l 1
 407 556 l 1
74 519 m 1
 74 556 l 1
 259 556 l 1
 259 519 l 1
 74 519 l 1
333 519 m 1
 333 556 l 1
 519 556 l 1
 519 519 l 1
 333 519 l 1
148 481 m 1
 148 519 l 1
 222 519 l 1
 222 481 l 1
 148 481 l 1
370 481 m 1
 370 519 l 1
 444 519 l 1
 444 481 l 1
 370 481 l 1
222 444 m 1
 222 481 l 1
 259 481 l 1
 259 444 l 1
 222 444 l 1
333 444 m 1
 333 481 l 1
 370 481 l 1
 370 444 l 1
 333 444 l 1
185 407 m 1
 185 444 l 1
 407 444 l 1
 407 407 l 1
 185 407 l 1
148 370 m 1
 148 407 l 1
 259 407 l 1
 259 370 l 1
 148 370 l 1
333 370 m 1
 333 407 l 1
 444 407 l 1
 444 370 l 1
 333 370 l 1
111 333 m 1
 111 370 l 1
 222 370 l 1
 222 333 l 1
 111 333 l 1
370 333 m 1
 370 370 l 1
 481 370 l 1
 481 333 l 1
 370 333 l 1
185 296 m 1
 185 333 l 1
 222 333 l 1
 222 296 l 1
 185 296 l 1
370 296 m 1
 370 333 l 1
 407 333 l 1
 407 296 l 1
 370 296 l 1
EndSplineSet
EndChar

StartChar: plus
Encoding: 43 43 12
Width: 593
Flags: HW
LayerCount: 2
Back
Fore
SplineSet
259 481 m 1
 259 519 l 1
 333 519 l 1
 333 481 l 1
 259 481 l 1
259 444 m 1
 259 481 l 1
 333 481 l 1
 333 444 l 1
 259 444 l 1
259 407 m 1
 259 444 l 1
 333 444 l 1
 333 407 l 1
 259 407 l 1
259 370 m 1
 259 407 l 1
 333 407 l 1
 333 370 l 1
 259 370 l 1
259 333 m 1
 259 370 l 1
 333 370 l 1
 333 333 l 1
 259 333 l 1
259 296 m 1
 259 333 l 1
 333 333 l 1
 333 296 l 1
 259 296 l 1
37 259 m 1
 37 296 l 1
 556 296 l 1
 556 259 l 1
 37 259 l 1
37 222 m 1
 37 259 l 1
 556 259 l 1
 556 222 l 1
 37 222 l 1
259 185 m 1
 259 222 l 1
 333 222 l 1
 333 185 l 1
 259 185 l 1
259 148 m 1
 259 185 l 1
 333 185 l 1
 333 148 l 1
 259 148 l 1
259 111 m 1
 259 148 l 1
 333 148 l 1
 333 111 l 1
 259 111 l 1
259 74 m 1
 259 111 l 1
 333 111 l 1
 333 74 l 1
 259 74 l 1
259 37 m 1
 259 74 l 1
 333 74 l 1
 333 37 l 1
 259 37 l 1
259 0 m 1
 259 37 l 1
 333 37 l 1
 333 0 l 1
 259 0 l 1
EndSplineSet
EndChar

StartChar: comma
Encoding: 44 44 13
Width: 593
Flags: HW
LayerCount: 2
Back
Fore
SplineSet
222 111 m 1
 222 148 l 1
 370 148 l 1
 370 111 l 1
 222 111 l 1
222 74 m 1
 222 111 l 1
 370 111 l 1
 370 74 l 1
 222 74 l 1
222 37 m 1
 222 74 l 1
 370 74 l 1
 370 37 l 1
 222 37 l 1
222 0 m 1
 222 37 l 1
 370 37 l 1
 370 0 l 1
 222 0 l 1
296 -37 m 1
 296 0 l 1
 370 0 l 1
 370 -37 l 1
 296 -37 l 1
296 -74 m 1
 296 -37 l 1
 370 -37 l 1
 370 -74 l 1
 296 -74 l 1
259 -111 m 1
 259 -74 l 1
 333 -74 l 1
 333 -111 l 1
 259 -111 l 1
222 -148 m 1
 222 -111 l 1
 296 -111 l 1
 296 -148 l 1
 222 -148 l 1
EndSplineSet
EndChar

StartChar: hyphen
Encoding: 45 45 14
Width: 593
Flags: HW
LayerCount: 2
Back
Fore
SplineSet
37 259 m 1
 37 296 l 1
 519 296 l 1
 519 259 l 1
 37 259 l 1
37 222 m 1
 37 259 l 1
 519 259 l 1
 519 222 l 1
 37 222 l 1
EndSplineSet
EndChar

StartChar: period
Encoding: 46 46 15
Width: 593
Flags: HW
LayerCount: 2
Back
Fore
SplineSet
222 111 m 1
 222 148 l 1
 370 148 l 1
 370 111 l 1
 222 111 l 1
222 74 m 1
 222 111 l 1
 370 111 l 1
 370 74 l 1
 222 74 l 1
222 37 m 1
 222 74 l 1
 370 74 l 1
 370 37 l 1
 222 37 l 1
222 0 m 1
 222 37 l 1
 370 37 l 1
 370 0 l 1
 222 0 l 1
EndSplineSet
EndChar

StartChar: slash
Encoding: 47 47 16
Width: 593
Flags: HW
LayerCount: 2
Back
Fore
SplineSet
481 667 m 1
 481 704 l 1
 556 704 l 1
 556 667 l 1
 481 667 l 1
444 630 m 1
 444 667 l 1
 519 667 l 1
 519 630 l 1
 444 630 l 1
444 593 m 1
 444 630 l 1
 519 630 l 1
 519 593 l 1
 444 593 l 1
407 556 m 1
 407 593 l 1
 481 593 l 1
 481 556 l 1
 407 556 l 1
370 519 m 1
 370 556 l 1
 481 556 l 1
 481 519 l 1
 370 519 l 1
370 481 m 1
 370 519 l 1
 444 519 l 1
 444 481 l 1
 370 481 l 1
333 444 m 1
 333 481 l 1
 444 481 l 1
 444 444 l 1
 333 444 l 1
333 407 m 1
 333 444 l 1
 407 444 l 1
 407 407 l 1
 333 407 l 1
296 370 m 1
 296 407 l 1
 407 407 l 1
 407 370 l 1
 296 370 l 1
296 333 m 1
 296 370 l 1
 370 370 l 1
 370 333 l 1
 296 333 l 1
259 296 m 1
 259 333 l 1
 370 333 l 1
 370 296 l 1
 259 296 l 1
259 259 m 1
 259 296 l 1
 333 296 l 1
 333 259 l 1
 259 259 l 1
222 222 m 1
 222 259 l 1
 333 259 l 1
 333 222 l 1
 222 222 l 1
222 185 m 1
 222 222 l 1
 296 222 l 1
 296 185 l 1
 222 185 l 1
185 148 m 1
 185 185 l 1
 296 185 l 1
 296 148 l 1
 185 148 l 1
185 111 m 1
 185 148 l 1
 259 148 l 1
 259 111 l 1
 185 111 l 1
148 74 m 1
 148 111 l 1
 259 111 l 1
 259 74 l 1
 148 74 l 1
148 37 m 1
 148 74 l 1
 222 74 l 1
 222 37 l 1
 148 37 l 1
111 0 m 1
 111 37 l 1
 222 37 l 1
 222 0 l 1
 111 0 l 1
111 -37 m 1
 111 0 l 1
 185 0 l 1
 185 -37 l 1
 111 -37 l 1
74 -74 m 1
 74 -37 l 1
 148 -37 l 1
 148 -74 l 1
 74 -74 l 1
74 -111 m 1
 74 -74 l 1
 148 -74 l 1
 148 -111 l 1
 74 -111 l 1
37 -148 m 1
 37 -111 l 1
 111 -111 l 1
 111 -148 l 1
 37 -148 l 1
EndSplineSet
EndChar

StartChar: zero
Encoding: 48 48 17
Width: 593
Flags: HW
LayerCount: 2
Back
Fore
SplineSet
185 667 m 1
 185 704 l 1
 370 704 l 1
 370 667 l 1
 185 667 l 1
148 630 m 1
 148 667 l 1
 407 667 l 1
 407 630 l 1
 148 630 l 1
111 593 m 1
 111 630 l 1
 222 630 l 1
 222 593 l 1
 111 593 l 1
333 593 m 1
 333 630 l 1
 444 630 l 1
 444 593 l 1
 333 593 l 1
74 556 m 1
 74 593 l 1
 185 593 l 1
 185 556 l 1
 74 556 l 1
370 556 m 1
 370 593 l 1
 481 593 l 1
 481 556 l 1
 370 556 l 1
74 519 m 1
 74 556 l 1
 185 556 l 1
 185 519 l 1
 74 519 l 1
370 519 m 1
 370 556 l 1
 481 556 l 1
 481 519 l 1
 370 519 l 1
37 481 m 1
 37 519 l 1
 148 519 l 1
 148 481 l 1
 37 481 l 1
407 481 m 1
 407 519 l 1
 519 519 l 1
 519 481 l 1
 407 481 l 1
37 444 m 1
 37 481 l 1
 148 481 l 1
 148 444 l 1
 37 444 l 1
407 444 m 1
 407 481 l 1
 519 481 l 1
 519 444 l 1
 407 444 l 1
37 407 m 1
 37 444 l 1
 148 444 l 1
 148 407 l 1
 37 407 l 1
407 407 m 1
 407 444 l 1
 519 444 l 1
 519 407 l 1
 407 407 l 1
37 370 m 1
 37 407 l 1
 148 407 l 1
 148 370 l 1
 37 370 l 1
407 370 m 1
 407 407 l 1
 519 407 l 1
 519 370 l 1
 407 370 l 1
37 333 m 1
 37 370 l 1
 148 370 l 1
 148 333 l 1
 37 333 l 1
407 333 m 1
 407 370 l 1
 519 370 l 1
 519 333 l 1
 407 333 l 1
37 296 m 1
 37 333 l 1
 148 333 l 1
 148 296 l 1
 37 296 l 1
407 296 m 1
 407 333 l 1
 519 333 l 1
 519 296 l 1
 407 296 l 1
37 259 m 1
 37 296 l 1
 148 296 l 1
 148 259 l 1
 37 259 l 1
407 259 m 1
 407 296 l 1
 519 296 l 1
 519 259 l 1
 407 259 l 1
37 222 m 1
 37 259 l 1
 148 259 l 1
 148 222 l 1
 37 222 l 1
407 222 m 1
 407 259 l 1
 519 259 l 1
 519 222 l 1
 407 222 l 1
37 185 m 1
 37 222 l 1
 148 222 l 1
 148 185 l 1
 37 185 l 1
407 185 m 1
 407 222 l 1
 519 222 l 1
 519 185 l 1
 407 185 l 1
74 148 m 1
 74 185 l 1
 185 185 l 1
 185 148 l 1
 74 148 l 1
370 148 m 1
 370 185 l 1
 481 185 l 1
 481 148 l 1
 370 148 l 1
74 111 m 1
 74 148 l 1
 185 148 l 1
 185 111 l 1
 74 111 l 1
370 111 m 1
 370 148 l 1
 481 148 l 1
 481 111 l 1
 370 111 l 1
111 74 m 1
 111 111 l 1
 222 111 l 1
 222 74 l 1
 111 74 l 1
333 74 m 1
 333 111 l 1
 444 111 l 1
 444 74 l 1
 333 74 l 1
148 37 m 1
 148 74 l 1
 407 74 l 1
 407 37 l 1
 148 37 l 1
185 0 m 1
 185 37 l 1
 370 37 l 1
 370 0 l 1
 185 0 l 1
EndSplineSet
EndChar

StartChar: one
Encoding: 49 49 18
Width: 593
Flags: HW
LayerCount: 2
Back
Fore
SplineSet
296 667 m 1
 296 704 l 1
 370 704 l 1
 370 667 l 1
 296 667 l 1
148 630 m 1
 148 667 l 1
 370 667 l 1
 370 630 l 1
 148 630 l 1
74 593 m 1
 74 630 l 1
 370 630 l 1
 370 593 l 1
 74 593 l 1
74 556 m 1
 74 593 l 1
 148 593 l 1
 148 556 l 1
 74 556 l 1
259 556 m 1
 259 593 l 1
 370 593 l 1
 370 556 l 1
 259 556 l 1
259 519 m 1
 259 556 l 1
 370 556 l 1
 370 519 l 1
 259 519 l 1
259 481 m 1
 259 519 l 1
 370 519 l 1
 370 481 l 1
 259 481 l 1
259 444 m 1
 259 481 l 1
 370 481 l 1
 370 444 l 1
 259 444 l 1
259 407 m 1
 259 444 l 1
 370 444 l 1
 370 407 l 1
 259 407 l 1
259 370 m 1
 259 407 l 1
 370 407 l 1
 370 370 l 1
 259 370 l 1
259 333 m 1
 259 370 l 1
 370 370 l 1
 370 333 l 1
 259 333 l 1
259 296 m 1
 259 333 l 1
 370 333 l 1
 370 296 l 1
 259 296 l 1
259 259 m 1
 259 296 l 1
 370 296 l 1
 370 259 l 1
 259 259 l 1
259 222 m 1
 259 259 l 1
 370 259 l 1
 370 222 l 1
 259 222 l 1
259 185 m 1
 259 222 l 1
 370 222 l 1
 370 185 l 1
 259 185 l 1
259 148 m 1
 259 185 l 1
 370 185 l 1
 370 148 l 1
 259 148 l 1
259 111 m 1
 259 148 l 1
 370 148 l 1
 370 111 l 1
 259 111 l 1
259 74 m 1
 259 111 l 1
 370 111 l 1
 370 74 l 1
 259 74 l 1
74 37 m 1
 74 74 l 1
 556 74 l 1
 556 37 l 1
 74 37 l 1
74 0 m 1
 74 37 l 1
 556 37 l 1
 556 0 l 1
 74 0 l 1
EndSplineSet
EndChar

StartChar: two
Encoding: 50 50 19
Width: 593
Flags: HW
LayerCount: 2
Back
Fore
SplineSet
148 667 m 1
 148 704 l 1
 370 704 l 1
 370 667 l 1
 148 667 l 1
74 630 m 1
 74 667 l 1
 407 667 l 1
 407 630 l 1
 74 630 l 1
74 593 m 1
 74 630 l 1
 148 630 l 1
 148 593 l 1
 74 593 l 1
333 593 m 1
 333 630 l 1
 444 630 l 1
 444 593 l 1
 333 593 l 1
370 556 m 1
 370 593 l 1
 481 593 l 1
 481 556 l 1
 370 556 l 1
370 519 m 1
 370 556 l 1
 481 556 l 1
 481 519 l 1
 370 519 l 1
370 481 m 1
 370 519 l 1
 481 519 l 1
 481 481 l 1
 370 481 l 1
370 444 m 1
 370 481 l 1
 481 481 l 1
 481 444 l 1
 370 444 l 1
333 407 m 1
 333 444 l 1
 444 444 l 1
 444 407 l 1
 333 407 l 1
333 370 m 1
 333 407 l 1
 444 407 l 1
 444 370 l 1
 333 370 l 1
296 333 m 1
 296 370 l 1
 407 370 l 1
 407 333 l 1
 296 333 l 1
259 296 m 1
 259 333 l 1
 370 333 l 1
 370 296 l 1
 259 296 l 1
222 259 m 1
 222 296 l 1
 333 296 l 1
 333 259 l 1
 222 259 l 1
185 222 m 1
 185 259 l 1
 296 259 l 1
 296 222 l 1
 185 222 l 1
148 185 m 1
 148 222 l 1
 259 222 l 1
 259 185 l 1
 148 185 l 1
111 148 m 1
 111 185 l 1
 222 185 l 1
 222 148 l 1
 111 148 l 1
111 111 m 1
 111 148 l 1
 222 148 l 1
 222 111 l 1
 111 111 l 1
74 74 m 1
 74 111 l 1
 185 111 l 1
 185 74 l 1
 74 74 l 1
74 37 m 1
 74 74 l 1
 481 74 l 1
 481 37 l 1
 74 37 l 1
74 0 m 1
 74 37 l 1
 481 37 l 1
 481 0 l 1
 74 0 l 1
EndSplineSet
EndChar

StartChar: three
Encoding: 51 51 20
Width: 593
Flags: HW
LayerCount: 2
Back
Fore
SplineSet
148 667 m 1
 148 704 l 1
 407 704 l 1
 407 667 l 1
 148 667 l 1
111 630 m 1
 111 667 l 1
 481 667 l 1
 481 630 l 1
 111 630 l 1
111 593 m 1
 111 630 l 1
 185 630 l 1
 185 593 l 1
 111 593 l 1
370 593 m 1
 370 630 l 1
 519 630 l 1
 519 593 l 1
 370 593 l 1
407 556 m 1
 407 593 l 1
 519 593 l 1
 519 556 l 1
 407 556 l 1
407 519 m 1
 407 556 l 1
 519 556 l 1
 519 519 l 1
 407 519 l 1
407 481 m 1
 407 519 l 1
 519 519 l 1
 519 481 l 1
 407 481 l 1
407 444 m 1
 407 481 l 1
 481 481 l 1
 481 444 l 1
 407 444 l 1
333 407 m 1
 333 444 l 1
 444 444 l 1
 444 407 l 1
 333 407 l 1
185 370 m 1
 185 407 l 1
 370 407 l 1
 370 370 l 1
 185 370 l 1
185 333 m 1
 185 370 l 1
 444 370 l 1
 444 333 l 1
 185 333 l 1
333 296 m 1
 333 333 l 1
 481 333 l 1
 481 296 l 1
 333 296 l 1
370 259 m 1
 370 296 l 1
 519 296 l 1
 519 259 l 1
 370 259 l 1
407 222 m 1
 407 259 l 1
 519 259 l 1
 519 222 l 1
 407 222 l 1
407 185 m 1
 407 222 l 1
 519 222 l 1
 519 185 l 1
 407 185 l 1
407 148 m 1
 407 185 l 1
 519 185 l 1
 519 148 l 1
 407 148 l 1
370 111 m 1
 370 148 l 1
 519 148 l 1
 519 111 l 1
 370 111 l 1
111 74 m 1
 111 111 l 1
 148 111 l 1
 148 74 l 1
 111 74 l 1
333 74 m 1
 333 111 l 1
 481 111 l 1
 481 74 l 1
 333 74 l 1
111 37 m 1
 111 74 l 1
 444 74 l 1
 444 37 l 1
 111 37 l 1
111 0 m 1
 111 37 l 1
 370 37 l 1
 370 0 l 1
 111 0 l 1
EndSplineSet
EndChar

StartChar: four
Encoding: 52 52 21
Width: 593
Flags: HW
LayerCount: 2
Back
Fore
SplineSet
333 667 m 1
 333 704 l 1
 444 704 l 1
 444 667 l 1
 333 667 l 1
296 630 m 1
 296 667 l 1
 444 667 l 1
 444 630 l 1
 296 630 l 1
296 593 m 1
 296 630 l 1
 444 630 l 1
 444 593 l 1
 296 593 l 1
259 556 m 1
 259 593 l 1
 444 593 l 1
 444 556 l 1
 259 556 l 1
222 519 m 1
 222 556 l 1
 296 556 l 1
 296 519 l 1
 222 519 l 1
333 519 m 1
 333 556 l 1
 444 556 l 1
 444 519 l 1
 333 519 l 1
185 481 m 1
 185 519 l 1
 296 519 l 1
 296 481 l 1
 185 481 l 1
333 481 m 1
 333 519 l 1
 444 519 l 1
 444 481 l 1
 333 481 l 1
185 444 m 1
 185 481 l 1
 259 481 l 1
 259 444 l 1
 185 444 l 1
333 444 m 1
 333 481 l 1
 444 481 l 1
 444 444 l 1
 333 444 l 1
148 407 m 1
 148 444 l 1
 222 444 l 1
 222 407 l 1
 148 407 l 1
333 407 m 1
 333 444 l 1
 444 444 l 1
 444 407 l 1
 333 407 l 1
111 370 m 1
 111 407 l 1
 222 407 l 1
 222 370 l 1
 111 370 l 1
333 370 m 1
 333 407 l 1
 444 407 l 1
 444 370 l 1
 333 370 l 1
111 333 m 1
 111 370 l 1
 185 370 l 1
 185 333 l 1
 111 333 l 1
333 333 m 1
 333 370 l 1
 444 370 l 1
 444 333 l 1
 333 333 l 1
74 296 m 1
 74 333 l 1
 148 333 l 1
 148 296 l 1
 74 296 l 1
333 296 m 1
 333 333 l 1
 444 333 l 1
 444 296 l 1
 333 296 l 1
37 259 m 1
 37 296 l 1
 148 296 l 1
 148 259 l 1
 37 259 l 1
333 259 m 1
 333 296 l 1
 444 296 l 1
 444 259 l 1
 333 259 l 1
37 222 m 1
 37 259 l 1
 556 259 l 1
 556 222 l 1
 37 222 l 1
37 185 m 1
 37 222 l 1
 556 222 l 1
 556 185 l 1
 37 185 l 1
333 148 m 1
 333 185 l 1
 444 185 l 1
 444 148 l 1
 333 148 l 1
333 111 m 1
 333 148 l 1
 444 148 l 1
 444 111 l 1
 333 111 l 1
333 74 m 1
 333 111 l 1
 444 111 l 1
 444 74 l 1
 333 74 l 1
333 37 m 1
 333 74 l 1
 444 74 l 1
 444 37 l 1
 333 37 l 1
333 0 m 1
 333 37 l 1
 444 37 l 1
 444 0 l 1
 333 0 l 1
EndSplineSet
EndChar

StartChar: five
Encoding: 53 53 22
Width: 593
Flags: HW
LayerCount: 2
Back
Fore
SplineSet
148 667 m 1
 148 704 l 1
 481 704 l 1
 481 667 l 1
 148 667 l 1
148 630 m 1
 148 667 l 1
 481 667 l 1
 481 630 l 1
 148 630 l 1
148 593 m 1
 148 630 l 1
 222 630 l 1
 222 593 l 1
 148 593 l 1
148 556 m 1
 148 593 l 1
 222 593 l 1
 222 556 l 1
 148 556 l 1
148 519 m 1
 148 556 l 1
 222 556 l 1
 222 519 l 1
 148 519 l 1
148 481 m 1
 148 519 l 1
 222 519 l 1
 222 481 l 1
 148 481 l 1
148 444 m 1
 148 481 l 1
 222 481 l 1
 222 444 l 1
 148 444 l 1
148 407 m 1
 148 444 l 1
 333 444 l 1
 333 407 l 1
 148 407 l 1
148 370 m 1
 148 407 l 1
 407 407 l 1
 407 370 l 1
 148 370 l 1
296 333 m 1
 296 370 l 1
 444 370 l 1
 444 333 l 1
 296 333 l 1
333 296 m 1
 333 333 l 1
 444 333 l 1
 444 296 l 1
 333 296 l 1
370 259 m 1
 370 296 l 1
 481 296 l 1
 481 259 l 1
 370 259 l 1
370 222 m 1
 370 259 l 1
 481 259 l 1
 481 222 l 1
 370 222 l 1
370 185 m 1
 370 222 l 1
 481 222 l 1
 481 185 l 1
 370 185 l 1
370 148 m 1
 370 185 l 1
 481 185 l 1
 481 148 l 1
 370 148 l 1
333 111 m 1
 333 148 l 1
 481 148 l 1
 481 111 l 1
 333 111 l 1
148 74 m 1
 148 111 l 1
 185 111 l 1
 185 74 l 1
 148 74 l 1
333 74 m 1
 333 111 l 1
 444 111 l 1
 444 74 l 1
 333 74 l 1
148 37 m 1
 148 74 l 1
 407 74 l 1
 407 37 l 1
 148 37 l 1
148 0 m 1
 148 37 l 1
 370 37 l 1
 370 0 l 1
 148 0 l 1
EndSplineSet
EndChar

StartChar: six
Encoding: 54 54 23
Width: 593
Flags: HW
LayerCount: 2
Back
Fore
SplineSet
259 667 m 1
 259 704 l 1
 444 704 l 1
 444 667 l 1
 259 667 l 1
185 630 m 1
 185 667 l 1
 481 667 l 1
 481 630 l 1
 185 630 l 1
148 593 m 1
 148 630 l 1
 296 630 l 1
 296 593 l 1
 148 593 l 1
444 593 m 1
 444 630 l 1
 481 630 l 1
 481 593 l 1
 444 593 l 1
111 556 m 1
 111 593 l 1
 222 593 l 1
 222 556 l 1
 111 556 l 1
111 519 m 1
 111 556 l 1
 222 556 l 1
 222 519 l 1
 111 519 l 1
111 481 m 1
 111 519 l 1
 185 519 l 1
 185 481 l 1
 111 481 l 1
74 444 m 1
 74 481 l 1
 185 481 l 1
 185 444 l 1
 74 444 l 1
74 407 m 1
 74 444 l 1
 185 444 l 1
 185 407 l 1
 74 407 l 1
259 407 m 1
 259 444 l 1
 407 444 l 1
 407 407 l 1
 259 407 l 1
74 370 m 1
 74 407 l 1
 185 407 l 1
 185 370 l 1
 74 370 l 1
222 370 m 1
 222 407 l 1
 481 407 l 1
 481 370 l 1
 222 370 l 1
74 333 m 1
 74 370 l 1
 222 370 l 1
 222 333 l 1
 74 333 l 1
370 333 m 1
 370 370 l 1
 481 370 l 1
 481 333 l 1
 370 333 l 1
74 296 m 1
 74 333 l 1
 222 333 l 1
 222 296 l 1
 74 296 l 1
370 296 m 1
 370 333 l 1
 519 333 l 1
 519 296 l 1
 370 296 l 1
74 259 m 1
 74 296 l 1
 185 296 l 1
 185 259 l 1
 74 259 l 1
407 259 m 1
 407 296 l 1
 519 296 l 1
 519 259 l 1
 407 259 l 1
74 222 m 1
 74 259 l 1
 185 259 l 1
 185 222 l 1
 74 222 l 1
407 222 m 1
 407 259 l 1
 519 259 l 1
 519 222 l 1
 407 222 l 1
74 185 m 1
 74 222 l 1
 185 222 l 1
 185 185 l 1
 74 185 l 1
407 185 m 1
 407 222 l 1
 519 222 l 1
 519 185 l 1
 407 185 l 1
111 148 m 1
 111 185 l 1
 185 185 l 1
 185 148 l 1
 111 148 l 1
407 148 m 1
 407 185 l 1
 519 185 l 1
 519 148 l 1
 407 148 l 1
111 111 m 1
 111 148 l 1
 222 148 l 1
 222 111 l 1
 111 111 l 1
407 111 m 1
 407 148 l 1
 481 148 l 1
 481 111 l 1
 407 111 l 1
111 74 m 1
 111 111 l 1
 259 111 l 1
 259 74 l 1
 111 74 l 1
370 74 m 1
 370 111 l 1
 481 111 l 1
 481 74 l 1
 370 74 l 1
148 37 m 1
 148 74 l 1
 444 74 l 1
 444 37 l 1
 148 37 l 1
222 0 m 1
 222 37 l 1
 407 37 l 1
 407 0 l 1
 222 0 l 1
EndSplineSet
EndChar

StartChar: seven
Encoding: 55 55 24
Width: 593
Flags: HW
LayerCount: 2
Back
Fore
SplineSet
111 667 m 1
 111 704 l 1
 519 704 l 1
 519 667 l 1
 111 667 l 1
111 630 m 1
 111 667 l 1
 519 667 l 1
 519 630 l 1
 111 630 l 1
111 593 m 1
 111 630 l 1
 519 630 l 1
 519 593 l 1
 111 593 l 1
407 556 m 1
 407 593 l 1
 481 593 l 1
 481 556 l 1
 407 556 l 1
407 519 m 1
 407 556 l 1
 481 556 l 1
 481 519 l 1
 407 519 l 1
370 481 m 1
 370 519 l 1
 444 519 l 1
 444 481 l 1
 370 481 l 1
333 444 m 1
 333 481 l 1
 444 481 l 1
 444 444 l 1
 333 444 l 1
333 407 m 1
 333 444 l 1
 407 444 l 1
 407 407 l 1
 333 407 l 1
296 370 m 1
 296 407 l 1
 407 407 l 1
 407 370 l 1
 296 370 l 1
296 333 m 1
 296 370 l 1
 370 370 l 1
 370 333 l 1
 296 333 l 1
259 296 m 1
 259 333 l 1
 370 333 l 1
 370 296 l 1
 259 296 l 1
259 259 m 1
 259 296 l 1
 333 296 l 1
 333 259 l 1
 259 259 l 1
222 222 m 1
 222 259 l 1
 333 259 l 1
 333 222 l 1
 222 222 l 1
222 185 m 1
 222 222 l 1
 296 222 l 1
 296 185 l 1
 222 185 l 1
185 148 m 1
 185 185 l 1
 296 185 l 1
 296 148 l 1
 185 148 l 1
185 111 m 1
 185 148 l 1
 296 148 l 1
 296 111 l 1
 185 111 l 1
148 74 m 1
 148 111 l 1
 259 111 l 1
 259 74 l 1
 148 74 l 1
148 37 m 1
 148 74 l 1
 259 74 l 1
 259 37 l 1
 148 37 l 1
148 0 m 1
 148 37 l 1
 259 37 l 1
 259 0 l 1
 148 0 l 1
EndSplineSet
EndChar

StartChar: eight
Encoding: 56 56 25
Width: 593
Flags: HW
LayerCount: 2
Back
Fore
SplineSet
222 667 m 1
 222 704 l 1
 407 704 l 1
 407 667 l 1
 222 667 l 1
148 630 m 1
 148 667 l 1
 444 667 l 1
 444 630 l 1
 148 630 l 1
111 593 m 1
 111 630 l 1
 259 630 l 1
 259 593 l 1
 111 593 l 1
370 593 m 1
 370 630 l 1
 481 630 l 1
 481 593 l 1
 370 593 l 1
111 556 m 1
 111 593 l 1
 222 593 l 1
 222 556 l 1
 111 556 l 1
407 556 m 1
 407 593 l 1
 481 593 l 1
 481 556 l 1
 407 556 l 1
111 519 m 1
 111 556 l 1
 222 556 l 1
 222 519 l 1
 111 519 l 1
407 519 m 1
 407 556 l 1
 481 556 l 1
 481 519 l 1
 407 519 l 1
111 481 m 1
 111 519 l 1
 222 519 l 1
 222 481 l 1
 111 481 l 1
407 481 m 1
 407 519 l 1
 481 519 l 1
 481 481 l 1
 407 481 l 1
111 444 m 1
 111 481 l 1
 259 481 l 1
 259 444 l 1
 111 444 l 1
370 444 m 1
 370 481 l 1
 444 481 l 1
 444 444 l 1
 370 444 l 1
148 407 m 1
 148 444 l 1
 296 444 l 1
 296 407 l 1
 148 407 l 1
333 407 m 1
 333 444 l 1
 407 444 l 1
 407 407 l 1
 333 407 l 1
222 370 m 1
 222 407 l 1
 370 407 l 1
 370 370 l 1
 222 370 l 1
185 333 m 1
 185 370 l 1
 444 370 l 1
 444 333 l 1
 185 333 l 1
148 296 m 1
 148 333 l 1
 222 333 l 1
 222 296 l 1
 148 296 l 1
296 296 m 1
 296 333 l 1
 481 333 l 1
 481 296 l 1
 296 296 l 1
111 259 m 1
 111 296 l 1
 185 296 l 1
 185 259 l 1
 111 259 l 1
333 259 m 1
 333 296 l 1
 481 296 l 1
 481 259 l 1
 333 259 l 1
74 222 m 1
 74 259 l 1
 185 259 l 1
 185 222 l 1
 74 222 l 1
370 222 m 1
 370 259 l 1
 519 259 l 1
 519 222 l 1
 370 222 l 1
74 185 m 1
 74 222 l 1
 185 222 l 1
 185 185 l 1
 74 185 l 1
407 185 m 1
 407 222 l 1
 519 222 l 1
 519 185 l 1
 407 185 l 1
74 148 m 1
 74 185 l 1
 185 185 l 1
 185 148 l 1
 74 148 l 1
407 148 m 1
 407 185 l 1
 519 185 l 1
 519 148 l 1
 407 148 l 1
74 111 m 1
 74 148 l 1
 185 148 l 1
 185 111 l 1
 74 111 l 1
407 111 m 1
 407 148 l 1
 519 148 l 1
 519 111 l 1
 407 111 l 1
111 74 m 1
 111 111 l 1
 222 111 l 1
 222 74 l 1
 111 74 l 1
370 74 m 1
 370 111 l 1
 481 111 l 1
 481 74 l 1
 370 74 l 1
111 37 m 1
 111 74 l 1
 444 74 l 1
 444 37 l 1
 111 37 l 1
185 0 m 1
 185 37 l 1
 407 37 l 1
 407 0 l 1
 185 0 l 1
EndSplineSet
EndChar

StartChar: nine
Encoding: 57 57 26
Width: 593
Flags: HW
LayerCount: 2
Back
Fore
SplineSet
185 667 m 1
 185 704 l 1
 370 704 l 1
 370 667 l 1
 185 667 l 1
148 630 m 1
 148 667 l 1
 444 667 l 1
 444 630 l 1
 148 630 l 1
111 593 m 1
 111 630 l 1
 222 630 l 1
 222 593 l 1
 111 593 l 1
333 593 m 1
 333 630 l 1
 481 630 l 1
 481 593 l 1
 333 593 l 1
111 556 m 1
 111 593 l 1
 222 593 l 1
 222 556 l 1
 111 556 l 1
370 556 m 1
 370 593 l 1
 481 593 l 1
 481 556 l 1
 370 556 l 1
74 519 m 1
 74 556 l 1
 185 556 l 1
 185 519 l 1
 74 519 l 1
407 519 m 1
 407 556 l 1
 481 556 l 1
 481 519 l 1
 407 519 l 1
74 481 m 1
 74 519 l 1
 185 519 l 1
 185 481 l 1
 74 481 l 1
407 481 m 1
 407 519 l 1
 519 519 l 1
 519 481 l 1
 407 481 l 1
74 444 m 1
 74 481 l 1
 185 481 l 1
 185 444 l 1
 74 444 l 1
407 444 m 1
 407 481 l 1
 519 481 l 1
 519 444 l 1
 407 444 l 1
74 407 m 1
 74 444 l 1
 185 444 l 1
 185 407 l 1
 74 407 l 1
407 407 m 1
 407 444 l 1
 519 444 l 1
 519 407 l 1
 407 407 l 1
74 370 m 1
 74 407 l 1
 222 407 l 1
 222 370 l 1
 74 370 l 1
370 370 m 1
 370 407 l 1
 519 407 l 1
 519 370 l 1
 370 370 l 1
111 333 m 1
 111 370 l 1
 222 370 l 1
 222 333 l 1
 111 333 l 1
370 333 m 1
 370 370 l 1
 519 370 l 1
 519 333 l 1
 370 333 l 1
111 296 m 1
 111 333 l 1
 370 333 l 1
 370 296 l 1
 111 296 l 1
407 296 m 1
 407 333 l 1
 519 333 l 1
 519 296 l 1
 407 296 l 1
185 259 m 1
 185 296 l 1
 333 296 l 1
 333 259 l 1
 185 259 l 1
407 259 m 1
 407 296 l 1
 519 296 l 1
 519 259 l 1
 407 259 l 1
407 222 m 1
 407 259 l 1
 519 259 l 1
 519 222 l 1
 407 222 l 1
407 185 m 1
 407 222 l 1
 481 222 l 1
 481 185 l 1
 407 185 l 1
370 148 m 1
 370 185 l 1
 481 185 l 1
 481 148 l 1
 370 148 l 1
370 111 m 1
 370 148 l 1
 481 148 l 1
 481 111 l 1
 370 111 l 1
111 74 m 1
 111 111 l 1
 148 111 l 1
 148 74 l 1
 111 74 l 1
296 74 m 1
 296 111 l 1
 444 111 l 1
 444 74 l 1
 296 74 l 1
111 37 m 1
 111 74 l 1
 407 74 l 1
 407 37 l 1
 111 37 l 1
148 0 m 1
 148 37 l 1
 333 37 l 1
 333 0 l 1
 148 0 l 1
EndSplineSet
EndChar

StartChar: colon
Encoding: 58 58 27
Width: 593
Flags: HW
LayerCount: 2
Back
Fore
SplineSet
222 481 m 1
 222 519 l 1
 370 519 l 1
 370 481 l 1
 222 481 l 1
222 444 m 1
 222 481 l 1
 370 481 l 1
 370 444 l 1
 222 444 l 1
222 407 m 1
 222 444 l 1
 370 444 l 1
 370 407 l 1
 222 407 l 1
222 370 m 1
 222 407 l 1
 370 407 l 1
 370 370 l 1
 222 370 l 1
222 111 m 1
 222 148 l 1
 370 148 l 1
 370 111 l 1
 222 111 l 1
222 74 m 1
 222 111 l 1
 370 111 l 1
 370 74 l 1
 222 74 l 1
222 37 m 1
 222 74 l 1
 370 74 l 1
 370 37 l 1
 222 37 l 1
222 0 m 1
 222 37 l 1
 370 37 l 1
 370 0 l 1
 222 0 l 1
EndSplineSet
EndChar

StartChar: semicolon
Encoding: 59 59 28
Width: 593
Flags: HW
LayerCount: 2
Back
Fore
SplineSet
222 481 m 1
 222 519 l 1
 370 519 l 1
 370 481 l 1
 222 481 l 1
222 444 m 1
 222 481 l 1
 370 481 l 1
 370 444 l 1
 222 444 l 1
222 407 m 1
 222 444 l 1
 370 444 l 1
 370 407 l 1
 222 407 l 1
222 370 m 1
 222 407 l 1
 370 407 l 1
 370 370 l 1
 222 370 l 1
222 111 m 1
 222 148 l 1
 370 148 l 1
 370 111 l 1
 222 111 l 1
222 74 m 1
 222 111 l 1
 370 111 l 1
 370 74 l 1
 222 74 l 1
222 37 m 1
 222 74 l 1
 370 74 l 1
 370 37 l 1
 222 37 l 1
222 0 m 1
 222 37 l 1
 370 37 l 1
 370 0 l 1
 222 0 l 1
296 -37 m 1
 296 0 l 1
 370 0 l 1
 370 -37 l 1
 296 -37 l 1
296 -74 m 1
 296 -37 l 1
 370 -37 l 1
 370 -74 l 1
 296 -74 l 1
259 -111 m 1
 259 -74 l 1
 333 -74 l 1
 333 -111 l 1
 259 -111 l 1
222 -148 m 1
 222 -111 l 1
 296 -111 l 1
 296 -148 l 1
 222 -148 l 1
EndSplineSet
EndChar

StartChar: less
Encoding: 60 60 29
Width: 593
Flags: HW
LayerCount: 2
Back
Fore
SplineSet
481 481 m 1
 481 519 l 1
 519 519 l 1
 519 481 l 1
 481 481 l 1
407 444 m 1
 407 481 l 1
 519 481 l 1
 519 444 l 1
 407 444 l 1
333 407 m 1
 333 444 l 1
 481 444 l 1
 481 407 l 1
 333 407 l 1
259 370 m 1
 259 407 l 1
 444 407 l 1
 444 370 l 1
 259 370 l 1
222 333 m 1
 222 370 l 1
 370 370 l 1
 370 333 l 1
 222 333 l 1
148 296 m 1
 148 333 l 1
 296 333 l 1
 296 296 l 1
 148 296 l 1
37 259 m 1
 37 296 l 1
 222 296 l 1
 222 259 l 1
 37 259 l 1
74 222 m 1
 74 259 l 1
 222 259 l 1
 222 222 l 1
 74 222 l 1
148 185 m 1
 148 222 l 1
 296 222 l 1
 296 185 l 1
 148 185 l 1
222 148 m 1
 222 185 l 1
 370 185 l 1
 370 148 l 1
 222 148 l 1
259 111 m 1
 259 148 l 1
 444 148 l 1
 444 111 l 1
 259 111 l 1
333 74 m 1
 333 111 l 1
 519 111 l 1
 519 74 l 1
 333 74 l 1
407 37 m 1
 407 74 l 1
 519 74 l 1
 519 37 l 1
 407 37 l 1
481 0 m 1
 481 37 l 1
 519 37 l 1
 519 0 l 1
 481 0 l 1
EndSplineSet
EndChar

StartChar: equal
Encoding: 61 61 30
Width: 593
Flags: HW
LayerCount: 2
Back
Fore
SplineSet
37 333 m 1
 37 370 l 1
 519 370 l 1
 519 333 l 1
 37 333 l 1
37 296 m 1
 37 333 l 1
 519 333 l 1
 519 296 l 1
 37 296 l 1
37 148 m 1
 37 185 l 1
 519 185 l 1
 519 148 l 1
 37 148 l 1
37 111 m 1
 37 148 l 1
 519 148 l 1
 519 111 l 1
 37 111 l 1
EndSplineSet
EndChar

StartChar: greater
Encoding: 62 62 31
Width: 593
Flags: HW
LayerCount: 2
Back
Fore
SplineSet
37 481 m 1
 37 519 l 1
 74 519 l 1
 74 481 l 1
 37 481 l 1
37 444 m 1
 37 481 l 1
 148 481 l 1
 148 444 l 1
 37 444 l 1
74 407 m 1
 74 444 l 1
 222 444 l 1
 222 407 l 1
 74 407 l 1
111 370 m 1
 111 407 l 1
 296 407 l 1
 296 370 l 1
 111 370 l 1
185 333 m 1
 185 370 l 1
 333 370 l 1
 333 333 l 1
 185 333 l 1
259 296 m 1
 259 333 l 1
 407 333 l 1
 407 296 l 1
 259 296 l 1
333 259 m 1
 333 296 l 1
 481 296 l 1
 481 259 l 1
 333 259 l 1
333 222 m 1
 333 259 l 1
 519 259 l 1
 519 222 l 1
 333 222 l 1
259 185 m 1
 259 222 l 1
 407 222 l 1
 407 185 l 1
 259 185 l 1
185 148 m 1
 185 185 l 1
 333 185 l 1
 333 148 l 1
 185 148 l 1
111 111 m 1
 111 148 l 1
 296 148 l 1
 296 111 l 1
 111 111 l 1
37 74 m 1
 37 111 l 1
 222 111 l 1
 222 74 l 1
 37 74 l 1
37 37 m 1
 37 74 l 1
 148 74 l 1
 148 37 l 1
 37 37 l 1
37 0 m 1
 37 37 l 1
 74 37 l 1
 74 0 l 1
 37 0 l 1
EndSplineSet
EndChar

StartChar: question
Encoding: 63 63 32
Width: 593
Flags: HW
LayerCount: 2
Back
Fore
SplineSet
111 667 m 1
 111 704 l 1
 407 704 l 1
 407 667 l 1
 111 667 l 1
74 630 m 1
 74 667 l 1
 481 667 l 1
 481 630 l 1
 74 630 l 1
74 593 m 1
 74 630 l 1
 148 630 l 1
 148 593 l 1
 74 593 l 1
370 593 m 1
 370 630 l 1
 519 630 l 1
 519 593 l 1
 370 593 l 1
74 556 m 1
 74 593 l 1
 148 593 l 1
 148 556 l 1
 74 556 l 1
407 556 m 1
 407 593 l 1
 519 593 l 1
 519 556 l 1
 407 556 l 1
74 519 m 1
 74 556 l 1
 148 556 l 1
 148 519 l 1
 74 519 l 1
407 519 m 1
 407 556 l 1
 519 556 l 1
 519 519 l 1
 407 519 l 1
407 481 m 1
 407 519 l 1
 519 519 l 1
 519 481 l 1
 407 481 l 1
370 444 m 1
 370 481 l 1
 481 481 l 1
 481 444 l 1
 370 444 l 1
333 407 m 1
 333 444 l 1
 444 444 l 1
 444 407 l 1
 333 407 l 1
296 370 m 1
 296 407 l 1
 407 407 l 1
 407 370 l 1
 296 370 l 1
259 333 m 1
 259 370 l 1
 370 370 l 1
 370 333 l 1
 259 333 l 1
222 296 m 1
 222 333 l 1
 333 333 l 1
 333 296 l 1
 222 296 l 1
185 259 m 1
 185 296 l 1
 296 296 l 1
 296 259 l 1
 185 259 l 1
185 222 m 1
 185 259 l 1
 296 259 l 1
 296 222 l 1
 185 222 l 1
185 185 m 1
 185 222 l 1
 296 222 l 1
 296 185 l 1
 185 185 l 1
185 74 m 1
 185 111 l 1
 296 111 l 1
 296 74 l 1
 185 74 l 1
185 37 m 1
 185 74 l 1
 296 74 l 1
 296 37 l 1
 185 37 l 1
185 0 m 1
 185 37 l 1
 296 37 l 1
 296 0 l 1
 185 0 l 1
EndSplineSet
EndChar

StartChar: at
Encoding: 64 64 33
Width: 593
Flags: HW
LayerCount: 2
Back
Fore
SplineSet
222 667 m 1
 222 704 l 1
 444 704 l 1
 444 667 l 1
 222 667 l 1
185 630 m 1
 185 667 l 1
 481 667 l 1
 481 630 l 1
 185 630 l 1
111 593 m 1
 111 630 l 1
 259 630 l 1
 259 593 l 1
 111 593 l 1
407 593 m 1
 407 630 l 1
 519 630 l 1
 519 593 l 1
 407 593 l 1
111 556 m 1
 111 593 l 1
 185 593 l 1
 185 556 l 1
 111 556 l 1
444 556 m 1
 444 593 l 1
 519 593 l 1
 519 556 l 1
 444 556 l 1
74 519 m 1
 74 556 l 1
 148 556 l 1
 148 519 l 1
 74 519 l 1
333 519 m 1
 333 556 l 1
 519 556 l 1
 519 519 l 1
 333 519 l 1
74 481 m 1
 74 519 l 1
 148 519 l 1
 148 481 l 1
 74 481 l 1
296 481 m 1
 296 519 l 1
 333 519 l 1
 333 481 l 1
 296 481 l 1
444 481 m 1
 444 519 l 1
 519 519 l 1
 519 481 l 1
 444 481 l 1
37 444 m 1
 37 481 l 1
 111 481 l 1
 111 444 l 1
 37 444 l 1
259 444 m 1
 259 481 l 1
 333 481 l 1
 333 444 l 1
 259 444 l 1
444 444 m 1
 444 481 l 1
 519 481 l 1
 519 444 l 1
 444 444 l 1
37 407 m 1
 37 444 l 1
 111 444 l 1
 111 407 l 1
 37 407 l 1
259 407 m 1
 259 444 l 1
 296 444 l 1
 296 407 l 1
 259 407 l 1
444 407 m 1
 444 444 l 1
 519 444 l 1
 519 407 l 1
 444 407 l 1
37 370 m 1
 37 407 l 1
 111 407 l 1
 111 370 l 1
 37 370 l 1
222 370 m 1
 222 407 l 1
 296 407 l 1
 296 370 l 1
 222 370 l 1
444 370 m 1
 444 407 l 1
 519 407 l 1
 519 370 l 1
 444 370 l 1
37 333 m 1
 37 370 l 1
 111 370 l 1
 111 333 l 1
 37 333 l 1
222 333 m 1
 222 370 l 1
 296 370 l 1
 296 333 l 1
 222 333 l 1
407 333 m 1
 407 370 l 1
 519 370 l 1
 519 333 l 1
 407 333 l 1
37 296 m 1
 37 333 l 1
 111 333 l 1
 111 296 l 1
 37 296 l 1
222 296 m 1
 222 333 l 1
 296 333 l 1
 296 296 l 1
 222 296 l 1
407 296 m 1
 407 333 l 1
 519 333 l 1
 519 296 l 1
 407 296 l 1
37 259 m 1
 37 296 l 1
 111 296 l 1
 111 259 l 1
 37 259 l 1
222 259 m 1
 222 296 l 1
 296 296 l 1
 296 259 l 1
 222 259 l 1
370 259 m 1
 370 296 l 1
 519 296 l 1
 519 259 l 1
 370 259 l 1
37 222 m 1
 37 259 l 1
 111 259 l 1
 111 222 l 1
 37 222 l 1
222 222 m 1
 222 259 l 1
 296 259 l 1
 296 222 l 1
 222 222 l 1
370 222 m 1
 370 259 l 1
 407 259 l 1
 407 222 l 1
 370 222 l 1
444 222 m 1
 444 259 l 1
 519 259 l 1
 519 222 l 1
 444 222 l 1
37 185 m 1
 37 222 l 1
 148 222 l 1
 148 185 l 1
 37 185 l 1
259 185 m 1
 259 222 l 1
 407 222 l 1
 407 185 l 1
 259 185 l 1
444 185 m 1
 444 222 l 1
 593 222 l 1
 593 185 l 1
 444 185 l 1
74 148 m 1
 74 185 l 1
 148 185 l 1
 148 148 l 1
 74 148 l 1
259 148 m 1
 259 185 l 1
 370 185 l 1
 370 148 l 1
 259 148 l 1
444 148 m 1
 444 185 l 1
 593 185 l 1
 593 148 l 1
 444 148 l 1
74 111 m 1
 74 148 l 1
 185 148 l 1
 185 111 l 1
 74 111 l 1
111 74 m 1
 111 111 l 1
 222 111 l 1
 222 74 l 1
 111 74 l 1
407 74 m 1
 407 111 l 1
 444 111 l 1
 444 74 l 1
 407 74 l 1
148 37 m 1
 148 74 l 1
 444 74 l 1
 444 37 l 1
 148 37 l 1
185 0 m 1
 185 37 l 1
 407 37 l 1
 407 0 l 1
 185 0 l 1
EndSplineSet
EndChar

StartChar: A
Encoding: 65 65 34
Width: 593
Flags: HW
LayerCount: 2
Back
Fore
SplineSet
222 667 m 1
 222 704 l 1
 333 704 l 1
 333 667 l 1
 222 667 l 1
222 630 m 1
 222 667 l 1
 333 667 l 1
 333 630 l 1
 222 630 l 1
185 593 m 1
 185 630 l 1
 370 630 l 1
 370 593 l 1
 185 593 l 1
185 556 m 1
 185 593 l 1
 370 593 l 1
 370 556 l 1
 185 556 l 1
185 519 m 1
 185 556 l 1
 370 556 l 1
 370 519 l 1
 185 519 l 1
148 481 m 1
 148 519 l 1
 259 519 l 1
 259 481 l 1
 148 481 l 1
296 481 m 1
 296 519 l 1
 407 519 l 1
 407 481 l 1
 296 481 l 1
148 444 m 1
 148 481 l 1
 222 481 l 1
 222 444 l 1
 148 444 l 1
296 444 m 1
 296 481 l 1
 407 481 l 1
 407 444 l 1
 296 444 l 1
148 407 m 1
 148 444 l 1
 222 444 l 1
 222 407 l 1
 148 407 l 1
296 407 m 1
 296 444 l 1
 407 444 l 1
 407 407 l 1
 296 407 l 1
111 370 m 1
 111 407 l 1
 222 407 l 1
 222 370 l 1
 111 370 l 1
333 370 m 1
 333 407 l 1
 444 407 l 1
 444 370 l 1
 333 370 l 1
111 333 m 1
 111 370 l 1
 185 370 l 1
 185 333 l 1
 111 333 l 1
333 333 m 1
 333 370 l 1
 444 370 l 1
 444 333 l 1
 333 333 l 1
111 296 m 1
 111 333 l 1
 185 333 l 1
 185 296 l 1
 111 296 l 1
333 296 m 1
 333 333 l 1
 444 333 l 1
 444 296 l 1
 333 296 l 1
74 259 m 1
 74 296 l 1
 185 296 l 1
 185 259 l 1
 74 259 l 1
370 259 m 1
 370 296 l 1
 481 296 l 1
 481 259 l 1
 370 259 l 1
74 222 m 1
 74 259 l 1
 481 259 l 1
 481 222 l 1
 74 222 l 1
74 185 m 1
 74 222 l 1
 481 222 l 1
 481 185 l 1
 74 185 l 1
37 148 m 1
 37 185 l 1
 148 185 l 1
 148 148 l 1
 37 148 l 1
407 148 m 1
 407 185 l 1
 519 185 l 1
 519 148 l 1
 407 148 l 1
37 111 m 1
 37 148 l 1
 111 148 l 1
 111 111 l 1
 37 111 l 1
407 111 m 1
 407 148 l 1
 519 148 l 1
 519 111 l 1
 407 111 l 1
37 74 m 1
 37 111 l 1
 111 111 l 1
 111 74 l 1
 37 74 l 1
407 74 m 1
 407 111 l 1
 519 111 l 1
 519 74 l 1
 407 74 l 1
0 37 m 1
 0 74 l 1
 74 74 l 1
 74 37 l 1
 0 37 l 1
444 37 m 1
 444 74 l 1
 556 74 l 1
 556 37 l 1
 444 37 l 1
0 0 m 1
 0 37 l 1
 74 37 l 1
 74 0 l 1
 0 0 l 1
444 0 m 1
 444 37 l 1
 556 37 l 1
 556 0 l 1
 444 0 l 1
EndSplineSet
EndChar

StartChar: B
Encoding: 66 66 35
Width: 593
Flags: HW
LayerCount: 2
Back
Fore
SplineSet
74 667 m 1
 74 704 l 1
 407 704 l 1
 407 667 l 1
 74 667 l 1
74 630 m 1
 74 667 l 1
 444 667 l 1
 444 630 l 1
 74 630 l 1
74 593 m 1
 74 630 l 1
 185 630 l 1
 185 593 l 1
 74 593 l 1
333 593 m 1
 333 630 l 1
 481 630 l 1
 481 593 l 1
 333 593 l 1
74 556 m 1
 74 593 l 1
 185 593 l 1
 185 556 l 1
 74 556 l 1
370 556 m 1
 370 593 l 1
 481 593 l 1
 481 556 l 1
 370 556 l 1
74 519 m 1
 74 556 l 1
 185 556 l 1
 185 519 l 1
 74 519 l 1
370 519 m 1
 370 556 l 1
 481 556 l 1
 481 519 l 1
 370 519 l 1
74 481 m 1
 74 519 l 1
 185 519 l 1
 185 481 l 1
 74 481 l 1
370 481 m 1
 370 519 l 1
 481 519 l 1
 481 481 l 1
 370 481 l 1
74 444 m 1
 74 481 l 1
 185 481 l 1
 185 444 l 1
 74 444 l 1
333 444 m 1
 333 481 l 1
 481 481 l 1
 481 444 l 1
 333 444 l 1
74 407 m 1
 74 444 l 1
 185 444 l 1
 185 407 l 1
 74 407 l 1
296 407 m 1
 296 444 l 1
 444 444 l 1
 444 407 l 1
 296 407 l 1
74 370 m 1
 74 407 l 1
 370 407 l 1
 370 370 l 1
 74 370 l 1
74 333 m 1
 74 370 l 1
 370 370 l 1
 370 333 l 1
 74 333 l 1
74 296 m 1
 74 333 l 1
 185 333 l 1
 185 296 l 1
 74 296 l 1
333 296 m 1
 333 333 l 1
 444 333 l 1
 444 296 l 1
 333 296 l 1
74 259 m 1
 74 296 l 1
 185 296 l 1
 185 259 l 1
 74 259 l 1
370 259 m 1
 370 296 l 1
 481 296 l 1
 481 259 l 1
 370 259 l 1
74 222 m 1
 74 259 l 1
 185 259 l 1
 185 222 l 1
 74 222 l 1
407 222 m 1
 407 259 l 1
 519 259 l 1
 519 222 l 1
 407 222 l 1
74 185 m 1
 74 222 l 1
 185 222 l 1
 185 185 l 1
 74 185 l 1
407 185 m 1
 407 222 l 1
 519 222 l 1
 519 185 l 1
 407 185 l 1
74 148 m 1
 74 185 l 1
 185 185 l 1
 185 148 l 1
 74 148 l 1
407 148 m 1
 407 185 l 1
 519 185 l 1
 519 148 l 1
 407 148 l 1
74 111 m 1
 74 148 l 1
 185 148 l 1
 185 111 l 1
 74 111 l 1
407 111 m 1
 407 148 l 1
 519 148 l 1
 519 111 l 1
 407 111 l 1
74 74 m 1
 74 111 l 1
 185 111 l 1
 185 74 l 1
 74 74 l 1
370 74 m 1
 370 111 l 1
 481 111 l 1
 481 74 l 1
 370 74 l 1
74 37 m 1
 74 74 l 1
 481 74 l 1
 481 37 l 1
 74 37 l 1
74 0 m 1
 74 37 l 1
 407 37 l 1
 407 0 l 1
 74 0 l 1
EndSplineSet
EndChar

StartChar: C
Encoding: 67 67 36
Width: 593
Flags: HW
LayerCount: 2
Back
Fore
SplineSet
222 667 m 1
 222 704 l 1
 481 704 l 1
 481 667 l 1
 222 667 l 1
148 630 m 1
 148 667 l 1
 519 667 l 1
 519 630 l 1
 148 630 l 1
111 593 m 1
 111 630 l 1
 259 630 l 1
 259 593 l 1
 111 593 l 1
444 593 m 1
 444 630 l 1
 519 630 l 1
 519 593 l 1
 444 593 l 1
111 556 m 1
 111 593 l 1
 222 593 l 1
 222 556 l 1
 111 556 l 1
74 519 m 1
 74 556 l 1
 185 556 l 1
 185 519 l 1
 74 519 l 1
74 481 m 1
 74 519 l 1
 185 519 l 1
 185 481 l 1
 74 481 l 1
37 444 m 1
 37 481 l 1
 148 481 l 1
 148 444 l 1
 37 444 l 1
37 407 m 1
 37 444 l 1
 148 444 l 1
 148 407 l 1
 37 407 l 1
37 370 m 1
 37 407 l 1
 148 407 l 1
 148 370 l 1
 37 370 l 1
37 333 m 1
 37 370 l 1
 148 370 l 1
 148 333 l 1
 37 333 l 1
37 296 m 1
 37 333 l 1
 148 333 l 1
 148 296 l 1
 37 296 l 1
37 259 m 1
 37 296 l 1
 148 296 l 1
 148 259 l 1
 37 259 l 1
37 222 m 1
 37 259 l 1
 148 259 l 1
 148 222 l 1
 37 222 l 1
74 185 m 1
 74 222 l 1
 185 222 l 1
 185 185 l 1
 74 185 l 1
74 148 m 1
 74 185 l 1
 185 185 l 1
 185 148 l 1
 74 148 l 1
111 111 m 1
 111 148 l 1
 222 148 l 1
 222 111 l 1
 111 111 l 1
111 74 m 1
 111 111 l 1
 296 111 l 1
 296 74 l 1
 111 74 l 1
481 74 m 1
 481 111 l 1
 519 111 l 1
 519 74 l 1
 481 74 l 1
148 37 m 1
 148 74 l 1
 519 74 l 1
 519 37 l 1
 148 37 l 1
222 0 m 1
 222 37 l 1
 481 37 l 1
 481 0 l 1
 222 0 l 1
EndSplineSet
EndChar

StartChar: D
Encoding: 68 68 37
Width: 593
Flags: HW
LayerCount: 2
Back
Fore
SplineSet
74 667 m 1
 74 704 l 1
 407 704 l 1
 407 667 l 1
 74 667 l 1
74 630 m 1
 74 667 l 1
 481 667 l 1
 481 630 l 1
 74 630 l 1
74 593 m 1
 74 630 l 1
 185 630 l 1
 185 593 l 1
 74 593 l 1
333 593 m 1
 333 630 l 1
 481 630 l 1
 481 593 l 1
 333 593 l 1
74 556 m 1
 74 593 l 1
 185 593 l 1
 185 556 l 1
 74 556 l 1
407 556 m 1
 407 593 l 1
 519 593 l 1
 519 556 l 1
 407 556 l 1
74 519 m 1
 74 556 l 1
 185 556 l 1
 185 519 l 1
 74 519 l 1
407 519 m 1
 407 556 l 1
 519 556 l 1
 519 519 l 1
 407 519 l 1
74 481 m 1
 74 519 l 1
 185 519 l 1
 185 481 l 1
 74 481 l 1
444 481 m 1
 444 519 l 1
 556 519 l 1
 556 481 l 1
 444 481 l 1
74 444 m 1
 74 481 l 1
 185 481 l 1
 185 444 l 1
 74 444 l 1
444 444 m 1
 444 481 l 1
 556 481 l 1
 556 444 l 1
 444 444 l 1
74 407 m 1
 74 444 l 1
 185 444 l 1
 185 407 l 1
 74 407 l 1
444 407 m 1
 444 444 l 1
 556 444 l 1
 556 407 l 1
 444 407 l 1
74 370 m 1
 74 407 l 1
 185 407 l 1
 185 370 l 1
 74 370 l 1
444 370 m 1
 444 407 l 1
 556 407 l 1
 556 370 l 1
 444 370 l 1
74 333 m 1
 74 370 l 1
 185 370 l 1
 185 333 l 1
 74 333 l 1
444 333 m 1
 444 370 l 1
 556 370 l 1
 556 333 l 1
 444 333 l 1
74 296 m 1
 74 333 l 1
 185 333 l 1
 185 296 l 1
 74 296 l 1
444 296 m 1
 444 333 l 1
 556 333 l 1
 556 296 l 1
 444 296 l 1
74 259 m 1
 74 296 l 1
 185 296 l 1
 185 259 l 1
 74 259 l 1
444 259 m 1
 444 296 l 1
 556 296 l 1
 556 259 l 1
 444 259 l 1
74 222 m 1
 74 259 l 1
 185 259 l 1
 185 222 l 1
 74 222 l 1
444 222 m 1
 444 259 l 1
 556 259 l 1
 556 222 l 1
 444 222 l 1
74 185 m 1
 74 222 l 1
 185 222 l 1
 185 185 l 1
 74 185 l 1
444 185 m 1
 444 222 l 1
 556 222 l 1
 556 185 l 1
 444 185 l 1
74 148 m 1
 74 185 l 1
 185 185 l 1
 185 148 l 1
 74 148 l 1
407 148 m 1
 407 185 l 1
 519 185 l 1
 519 148 l 1
 407 148 l 1
74 111 m 1
 74 148 l 1
 185 148 l 1
 185 111 l 1
 74 111 l 1
370 111 m 1
 370 148 l 1
 519 148 l 1
 519 111 l 1
 370 111 l 1
74 74 m 1
 74 111 l 1
 185 111 l 1
 185 74 l 1
 74 74 l 1
333 74 m 1
 333 111 l 1
 481 111 l 1
 481 74 l 1
 333 74 l 1
74 37 m 1
 74 74 l 1
 444 74 l 1
 444 37 l 1
 74 37 l 1
74 0 m 1
 74 37 l 1
 370 37 l 1
 370 0 l 1
 74 0 l 1
EndSplineSet
EndChar

StartChar: E
Encoding: 69 69 38
Width: 593
Flags: HW
LayerCount: 2
Back
Fore
SplineSet
111 667 m 1
 111 704 l 1
 519 704 l 1
 519 667 l 1
 111 667 l 1
111 630 m 1
 111 667 l 1
 519 667 l 1
 519 630 l 1
 111 630 l 1
111 593 m 1
 111 630 l 1
 222 630 l 1
 222 593 l 1
 111 593 l 1
111 556 m 1
 111 593 l 1
 222 593 l 1
 222 556 l 1
 111 556 l 1
111 519 m 1
 111 556 l 1
 222 556 l 1
 222 519 l 1
 111 519 l 1
111 481 m 1
 111 519 l 1
 222 519 l 1
 222 481 l 1
 111 481 l 1
111 444 m 1
 111 481 l 1
 222 481 l 1
 222 444 l 1
 111 444 l 1
111 407 m 1
 111 444 l 1
 222 444 l 1
 222 407 l 1
 111 407 l 1
111 370 m 1
 111 407 l 1
 481 407 l 1
 481 370 l 1
 111 370 l 1
111 333 m 1
 111 370 l 1
 481 370 l 1
 481 333 l 1
 111 333 l 1
111 296 m 1
 111 333 l 1
 222 333 l 1
 222 296 l 1
 111 296 l 1
111 259 m 1
 111 296 l 1
 222 296 l 1
 222 259 l 1
 111 259 l 1
111 222 m 1
 111 259 l 1
 222 259 l 1
 222 222 l 1
 111 222 l 1
111 185 m 1
 111 222 l 1
 222 222 l 1
 222 185 l 1
 111 185 l 1
111 148 m 1
 111 185 l 1
 222 185 l 1
 222 148 l 1
 111 148 l 1
111 111 m 1
 111 148 l 1
 222 148 l 1
 222 111 l 1
 111 111 l 1
111 74 m 1
 111 111 l 1
 222 111 l 1
 222 74 l 1
 111 74 l 1
111 37 m 1
 111 74 l 1
 556 74 l 1
 556 37 l 1
 111 37 l 1
111 0 m 1
 111 37 l 1
 556 37 l 1
 556 0 l 1
 111 0 l 1
EndSplineSet
EndChar

StartChar: F
Encoding: 70 70 39
Width: 593
Flags: HW
LayerCount: 2
Back
Fore
SplineSet
111 667 m 1
 111 704 l 1
 556 704 l 1
 556 667 l 1
 111 667 l 1
111 630 m 1
 111 667 l 1
 556 667 l 1
 556 630 l 1
 111 630 l 1
111 593 m 1
 111 630 l 1
 222 630 l 1
 222 593 l 1
 111 593 l 1
111 556 m 1
 111 593 l 1
 222 593 l 1
 222 556 l 1
 111 556 l 1
111 519 m 1
 111 556 l 1
 222 556 l 1
 222 519 l 1
 111 519 l 1
111 481 m 1
 111 519 l 1
 222 519 l 1
 222 481 l 1
 111 481 l 1
111 444 m 1
 111 481 l 1
 222 481 l 1
 222 444 l 1
 111 444 l 1
111 407 m 1
 111 444 l 1
 222 444 l 1
 222 407 l 1
 111 407 l 1
111 370 m 1
 111 407 l 1
 222 407 l 1
 222 370 l 1
 111 370 l 1
111 333 m 1
 111 370 l 1
 519 370 l 1
 519 333 l 1
 111 333 l 1
111 296 m 1
 111 333 l 1
 481 333 l 1
 481 296 l 1
 111 296 l 1
111 259 m 1
 111 296 l 1
 222 296 l 1
 222 259 l 1
 111 259 l 1
111 222 m 1
 111 259 l 1
 222 259 l 1
 222 222 l 1
 111 222 l 1
111 185 m 1
 111 222 l 1
 222 222 l 1
 222 185 l 1
 111 185 l 1
111 148 m 1
 111 185 l 1
 222 185 l 1
 222 148 l 1
 111 148 l 1
111 111 m 1
 111 148 l 1
 222 148 l 1
 222 111 l 1
 111 111 l 1
111 74 m 1
 111 111 l 1
 222 111 l 1
 222 74 l 1
 111 74 l 1
111 37 m 1
 111 74 l 1
 222 74 l 1
 222 37 l 1
 111 37 l 1
111 0 m 1
 111 37 l 1
 222 37 l 1
 222 0 l 1
 111 0 l 1
EndSplineSet
EndChar

StartChar: G
Encoding: 71 71 40
Width: 593
Flags: HW
LayerCount: 2
Back
Fore
SplineSet
222 667 m 1
 222 704 l 1
 481 704 l 1
 481 667 l 1
 222 667 l 1
148 630 m 1
 148 667 l 1
 519 667 l 1
 519 630 l 1
 148 630 l 1
111 593 m 1
 111 630 l 1
 259 630 l 1
 259 593 l 1
 111 593 l 1
481 593 m 1
 481 630 l 1
 519 630 l 1
 519 593 l 1
 481 593 l 1
111 556 m 1
 111 593 l 1
 222 593 l 1
 222 556 l 1
 111 556 l 1
74 519 m 1
 74 556 l 1
 185 556 l 1
 185 519 l 1
 74 519 l 1
74 481 m 1
 74 519 l 1
 185 519 l 1
 185 481 l 1
 74 481 l 1
37 444 m 1
 37 481 l 1
 148 481 l 1
 148 444 l 1
 37 444 l 1
37 407 m 1
 37 444 l 1
 148 444 l 1
 148 407 l 1
 37 407 l 1
37 370 m 1
 37 407 l 1
 148 407 l 1
 148 370 l 1
 37 370 l 1
37 333 m 1
 37 370 l 1
 148 370 l 1
 148 333 l 1
 37 333 l 1
37 296 m 1
 37 333 l 1
 148 333 l 1
 148 296 l 1
 37 296 l 1
407 296 m 1
 407 333 l 1
 519 333 l 1
 519 296 l 1
 407 296 l 1
37 259 m 1
 37 296 l 1
 148 296 l 1
 148 259 l 1
 37 259 l 1
407 259 m 1
 407 296 l 1
 519 296 l 1
 519 259 l 1
 407 259 l 1
37 222 m 1
 37 259 l 1
 148 259 l 1
 148 222 l 1
 37 222 l 1
407 222 m 1
 407 259 l 1
 519 259 l 1
 519 222 l 1
 407 222 l 1
74 185 m 1
 74 222 l 1
 185 222 l 1
 185 185 l 1
 74 185 l 1
407 185 m 1
 407 222 l 1
 519 222 l 1
 519 185 l 1
 407 185 l 1
74 148 m 1
 74 185 l 1
 185 185 l 1
 185 148 l 1
 74 148 l 1
407 148 m 1
 407 185 l 1
 519 185 l 1
 519 148 l 1
 407 148 l 1
111 111 m 1
 111 148 l 1
 222 148 l 1
 222 111 l 1
 111 111 l 1
407 111 m 1
 407 148 l 1
 519 148 l 1
 519 111 l 1
 407 111 l 1
111 74 m 1
 111 111 l 1
 259 111 l 1
 259 74 l 1
 111 74 l 1
407 74 m 1
 407 111 l 1
 519 111 l 1
 519 74 l 1
 407 74 l 1
148 37 m 1
 148 74 l 1
 519 74 l 1
 519 37 l 1
 148 37 l 1
222 0 m 1
 222 37 l 1
 481 37 l 1
 481 0 l 1
 222 0 l 1
EndSplineSet
EndChar

StartChar: H
Encoding: 72 72 41
Width: 593
Flags: HW
LayerCount: 2
Back
Fore
SplineSet
74 667 m 1
 74 704 l 1
 185 704 l 1
 185 667 l 1
 74 667 l 1
407 667 m 1
 407 704 l 1
 519 704 l 1
 519 667 l 1
 407 667 l 1
74 630 m 1
 74 667 l 1
 185 667 l 1
 185 630 l 1
 74 630 l 1
407 630 m 1
 407 667 l 1
 519 667 l 1
 519 630 l 1
 407 630 l 1
74 593 m 1
 74 630 l 1
 185 630 l 1
 185 593 l 1
 74 593 l 1
407 593 m 1
 407 630 l 1
 519 630 l 1
 519 593 l 1
 407 593 l 1
74 556 m 1
 74 593 l 1
 185 593 l 1
 185 556 l 1
 74 556 l 1
407 556 m 1
 407 593 l 1
 519 593 l 1
 519 556 l 1
 407 556 l 1
74 519 m 1
 74 556 l 1
 185 556 l 1
 185 519 l 1
 74 519 l 1
407 519 m 1
 407 556 l 1
 519 556 l 1
 519 519 l 1
 407 519 l 1
74 481 m 1
 74 519 l 1
 185 519 l 1
 185 481 l 1
 74 481 l 1
407 481 m 1
 407 519 l 1
 519 519 l 1
 519 481 l 1
 407 481 l 1
74 444 m 1
 74 481 l 1
 185 481 l 1
 185 444 l 1
 74 444 l 1
407 444 m 1
 407 481 l 1
 519 481 l 1
 519 444 l 1
 407 444 l 1
74 407 m 1
 74 444 l 1
 185 444 l 1
 185 407 l 1
 74 407 l 1
407 407 m 1
 407 444 l 1
 519 444 l 1
 519 407 l 1
 407 407 l 1
74 370 m 1
 74 407 l 1
 519 407 l 1
 519 370 l 1
 74 370 l 1
74 333 m 1
 74 370 l 1
 519 370 l 1
 519 333 l 1
 74 333 l 1
74 296 m 1
 74 333 l 1
 185 333 l 1
 185 296 l 1
 74 296 l 1
407 296 m 1
 407 333 l 1
 519 333 l 1
 519 296 l 1
 407 296 l 1
74 259 m 1
 74 296 l 1
 185 296 l 1
 185 259 l 1
 74 259 l 1
407 259 m 1
 407 296 l 1
 519 296 l 1
 519 259 l 1
 407 259 l 1
74 222 m 1
 74 259 l 1
 185 259 l 1
 185 222 l 1
 74 222 l 1
407 222 m 1
 407 259 l 1
 519 259 l 1
 519 222 l 1
 407 222 l 1
74 185 m 1
 74 222 l 1
 185 222 l 1
 185 185 l 1
 74 185 l 1
407 185 m 1
 407 222 l 1
 519 222 l 1
 519 185 l 1
 407 185 l 1
74 148 m 1
 74 185 l 1
 185 185 l 1
 185 148 l 1
 74 148 l 1
407 148 m 1
 407 185 l 1
 519 185 l 1
 519 148 l 1
 407 148 l 1
74 111 m 1
 74 148 l 1
 185 148 l 1
 185 111 l 1
 74 111 l 1
407 111 m 1
 407 148 l 1
 519 148 l 1
 519 111 l 1
 407 111 l 1
74 74 m 1
 74 111 l 1
 185 111 l 1
 185 74 l 1
 74 74 l 1
407 74 m 1
 407 111 l 1
 519 111 l 1
 519 74 l 1
 407 74 l 1
74 37 m 1
 74 74 l 1
 185 74 l 1
 185 37 l 1
 74 37 l 1
407 37 m 1
 407 74 l 1
 519 74 l 1
 519 37 l 1
 407 37 l 1
74 0 m 1
 74 37 l 1
 185 37 l 1
 185 0 l 1
 74 0 l 1
407 0 m 1
 407 37 l 1
 519 37 l 1
 519 0 l 1
 407 0 l 1
EndSplineSet
EndChar

StartChar: I
Encoding: 73 73 42
Width: 593
Flags: HW
LayerCount: 2
Back
Fore
SplineSet
74 667 m 1
 74 704 l 1
 481 704 l 1
 481 667 l 1
 74 667 l 1
74 630 m 1
 74 667 l 1
 481 667 l 1
 481 630 l 1
 74 630 l 1
222 593 m 1
 222 630 l 1
 333 630 l 1
 333 593 l 1
 222 593 l 1
222 556 m 1
 222 593 l 1
 333 593 l 1
 333 556 l 1
 222 556 l 1
222 519 m 1
 222 556 l 1
 333 556 l 1
 333 519 l 1
 222 519 l 1
222 481 m 1
 222 519 l 1
 333 519 l 1
 333 481 l 1
 222 481 l 1
222 444 m 1
 222 481 l 1
 333 481 l 1
 333 444 l 1
 222 444 l 1
222 407 m 1
 222 444 l 1
 333 444 l 1
 333 407 l 1
 222 407 l 1
222 370 m 1
 222 407 l 1
 333 407 l 1
 333 370 l 1
 222 370 l 1
222 333 m 1
 222 370 l 1
 333 370 l 1
 333 333 l 1
 222 333 l 1
222 296 m 1
 222 333 l 1
 333 333 l 1
 333 296 l 1
 222 296 l 1
222 259 m 1
 222 296 l 1
 333 296 l 1
 333 259 l 1
 222 259 l 1
222 222 m 1
 222 259 l 1
 333 259 l 1
 333 222 l 1
 222 222 l 1
222 185 m 1
 222 222 l 1
 333 222 l 1
 333 185 l 1
 222 185 l 1
222 148 m 1
 222 185 l 1
 333 185 l 1
 333 148 l 1
 222 148 l 1
222 111 m 1
 222 148 l 1
 333 148 l 1
 333 111 l 1
 222 111 l 1
222 74 m 1
 222 111 l 1
 333 111 l 1
 333 74 l 1
 222 74 l 1
74 37 m 1
 74 74 l 1
 481 74 l 1
 481 37 l 1
 74 37 l 1
74 0 m 1
 74 37 l 1
 481 37 l 1
 481 0 l 1
 74 0 l 1
EndSplineSet
EndChar

StartChar: J
Encoding: 74 74 43
Width: 593
Flags: HW
LayerCount: 2
Back
Fore
SplineSet
111 667 m 1
 111 704 l 1
 444 704 l 1
 444 667 l 1
 111 667 l 1
111 630 m 1
 111 667 l 1
 444 667 l 1
 444 630 l 1
 111 630 l 1
333 593 m 1
 333 630 l 1
 444 630 l 1
 444 593 l 1
 333 593 l 1
333 556 m 1
 333 593 l 1
 444 593 l 1
 444 556 l 1
 333 556 l 1
333 519 m 1
 333 556 l 1
 444 556 l 1
 444 519 l 1
 333 519 l 1
333 481 m 1
 333 519 l 1
 444 519 l 1
 444 481 l 1
 333 481 l 1
333 444 m 1
 333 481 l 1
 444 481 l 1
 444 444 l 1
 333 444 l 1
333 407 m 1
 333 444 l 1
 444 444 l 1
 444 407 l 1
 333 407 l 1
333 370 m 1
 333 407 l 1
 444 407 l 1
 444 370 l 1
 333 370 l 1
333 333 m 1
 333 370 l 1
 444 370 l 1
 444 333 l 1
 333 333 l 1
333 296 m 1
 333 333 l 1
 444 333 l 1
 444 296 l 1
 333 296 l 1
333 259 m 1
 333 296 l 1
 444 296 l 1
 444 259 l 1
 333 259 l 1
333 222 m 1
 333 259 l 1
 444 259 l 1
 444 222 l 1
 333 222 l 1
333 185 m 1
 333 222 l 1
 444 222 l 1
 444 185 l 1
 333 185 l 1
333 148 m 1
 333 185 l 1
 444 185 l 1
 444 148 l 1
 333 148 l 1
333 111 m 1
 333 148 l 1
 444 148 l 1
 444 111 l 1
 333 111 l 1
74 74 m 1
 74 111 l 1
 111 111 l 1
 111 74 l 1
 74 74 l 1
296 74 m 1
 296 111 l 1
 407 111 l 1
 407 74 l 1
 296 74 l 1
74 37 m 1
 74 74 l 1
 370 74 l 1
 370 37 l 1
 74 37 l 1
111 0 m 1
 111 37 l 1
 333 37 l 1
 333 0 l 1
 111 0 l 1
EndSplineSet
EndChar

StartChar: K
Encoding: 75 75 44
Width: 593
Flags: HW
LayerCount: 2
Back
Fore
SplineSet
74 667 m 1
 74 704 l 1
 185 704 l 1
 185 667 l 1
 74 667 l 1
407 667 m 1
 407 704 l 1
 519 704 l 1
 519 667 l 1
 407 667 l 1
74 630 m 1
 74 667 l 1
 185 667 l 1
 185 630 l 1
 74 630 l 1
370 630 m 1
 370 667 l 1
 481 667 l 1
 481 630 l 1
 370 630 l 1
74 593 m 1
 74 630 l 1
 185 630 l 1
 185 593 l 1
 74 593 l 1
370 593 m 1
 370 630 l 1
 444 630 l 1
 444 593 l 1
 370 593 l 1
74 556 m 1
 74 593 l 1
 185 593 l 1
 185 556 l 1
 74 556 l 1
333 556 m 1
 333 593 l 1
 407 593 l 1
 407 556 l 1
 333 556 l 1
74 519 m 1
 74 556 l 1
 185 556 l 1
 185 519 l 1
 74 519 l 1
296 519 m 1
 296 556 l 1
 407 556 l 1
 407 519 l 1
 296 519 l 1
74 481 m 1
 74 519 l 1
 185 519 l 1
 185 481 l 1
 74 481 l 1
296 481 m 1
 296 519 l 1
 370 519 l 1
 370 481 l 1
 296 481 l 1
74 444 m 1
 74 481 l 1
 185 481 l 1
 185 444 l 1
 74 444 l 1
259 444 m 1
 259 481 l 1
 333 481 l 1
 333 444 l 1
 259 444 l 1
74 407 m 1
 74 444 l 1
 185 444 l 1
 185 407 l 1
 74 407 l 1
222 407 m 1
 222 444 l 1
 333 444 l 1
 333 407 l 1
 222 407 l 1
74 370 m 1
 74 407 l 1
 185 407 l 1
 185 370 l 1
 74 370 l 1
222 370 m 1
 222 407 l 1
 296 407 l 1
 296 370 l 1
 222 370 l 1
74 333 m 1
 74 370 l 1
 296 370 l 1
 296 333 l 1
 74 333 l 1
74 296 m 1
 74 333 l 1
 333 333 l 1
 333 296 l 1
 74 296 l 1
74 259 m 1
 74 296 l 1
 185 296 l 1
 185 259 l 1
 74 259 l 1
222 259 m 1
 222 296 l 1
 370 296 l 1
 370 259 l 1
 222 259 l 1
74 222 m 1
 74 259 l 1
 185 259 l 1
 185 222 l 1
 74 222 l 1
259 222 m 1
 259 259 l 1
 407 259 l 1
 407 222 l 1
 259 222 l 1
74 185 m 1
 74 222 l 1
 185 222 l 1
 185 185 l 1
 74 185 l 1
296 185 m 1
 296 222 l 1
 407 222 l 1
 407 185 l 1
 296 185 l 1
74 148 m 1
 74 185 l 1
 185 185 l 1
 185 148 l 1
 74 148 l 1
296 148 m 1
 296 185 l 1
 444 185 l 1
 444 148 l 1
 296 148 l 1
74 111 m 1
 74 148 l 1
 185 148 l 1
 185 111 l 1
 74 111 l 1
333 111 m 1
 333 148 l 1
 481 148 l 1
 481 111 l 1
 333 111 l 1
74 74 m 1
 74 111 l 1
 185 111 l 1
 185 74 l 1
 74 74 l 1
370 74 m 1
 370 111 l 1
 519 111 l 1
 519 74 l 1
 370 74 l 1
74 37 m 1
 74 74 l 1
 185 74 l 1
 185 37 l 1
 74 37 l 1
407 37 m 1
 407 74 l 1
 519 74 l 1
 519 37 l 1
 407 37 l 1
74 0 m 1
 74 37 l 1
 185 37 l 1
 185 0 l 1
 74 0 l 1
407 0 m 1
 407 37 l 1
 556 37 l 1
 556 0 l 1
 407 0 l 1
EndSplineSet
EndChar

StartChar: L
Encoding: 76 76 45
Width: 593
Flags: HW
LayerCount: 2
Back
Fore
SplineSet
74 667 m 1
 74 704 l 1
 185 704 l 1
 185 667 l 1
 74 667 l 1
74 630 m 1
 74 667 l 1
 185 667 l 1
 185 630 l 1
 74 630 l 1
74 593 m 1
 74 630 l 1
 185 630 l 1
 185 593 l 1
 74 593 l 1
74 556 m 1
 74 593 l 1
 185 593 l 1
 185 556 l 1
 74 556 l 1
74 519 m 1
 74 556 l 1
 185 556 l 1
 185 519 l 1
 74 519 l 1
74 481 m 1
 74 519 l 1
 185 519 l 1
 185 481 l 1
 74 481 l 1
74 444 m 1
 74 481 l 1
 185 481 l 1
 185 444 l 1
 74 444 l 1
74 407 m 1
 74 444 l 1
 185 444 l 1
 185 407 l 1
 74 407 l 1
74 370 m 1
 74 407 l 1
 185 407 l 1
 185 370 l 1
 74 370 l 1
74 333 m 1
 74 370 l 1
 185 370 l 1
 185 333 l 1
 74 333 l 1
74 296 m 1
 74 333 l 1
 185 333 l 1
 185 296 l 1
 74 296 l 1
74 259 m 1
 74 296 l 1
 185 296 l 1
 185 259 l 1
 74 259 l 1
74 222 m 1
 74 259 l 1
 185 259 l 1
 185 222 l 1
 74 222 l 1
74 185 m 1
 74 222 l 1
 185 222 l 1
 185 185 l 1
 74 185 l 1
74 148 m 1
 74 185 l 1
 185 185 l 1
 185 148 l 1
 74 148 l 1
74 111 m 1
 74 148 l 1
 185 148 l 1
 185 111 l 1
 74 111 l 1
74 74 m 1
 74 111 l 1
 185 111 l 1
 185 74 l 1
 74 74 l 1
74 37 m 1
 74 74 l 1
 519 74 l 1
 519 37 l 1
 74 37 l 1
74 0 m 1
 74 37 l 1
 519 37 l 1
 519 0 l 1
 74 0 l 1
EndSplineSet
EndChar

StartChar: M
Encoding: 77 77 46
Width: 593
Flags: HW
LayerCount: 2
Back
Fore
SplineSet
37 667 m 1
 37 704 l 1
 148 704 l 1
 148 667 l 1
 37 667 l 1
407 667 m 1
 407 704 l 1
 519 704 l 1
 519 667 l 1
 407 667 l 1
37 630 m 1
 37 667 l 1
 148 667 l 1
 148 630 l 1
 37 630 l 1
407 630 m 1
 407 667 l 1
 519 667 l 1
 519 630 l 1
 407 630 l 1
37 593 m 1
 37 630 l 1
 185 630 l 1
 185 593 l 1
 37 593 l 1
370 593 m 1
 370 630 l 1
 519 630 l 1
 519 593 l 1
 370 593 l 1
37 556 m 1
 37 593 l 1
 185 593 l 1
 185 556 l 1
 37 556 l 1
370 556 m 1
 370 593 l 1
 519 593 l 1
 519 556 l 1
 370 556 l 1
37 519 m 1
 37 556 l 1
 185 556 l 1
 185 519 l 1
 37 519 l 1
370 519 m 1
 370 556 l 1
 519 556 l 1
 519 519 l 1
 370 519 l 1
37 481 m 1
 37 519 l 1
 185 519 l 1
 185 481 l 1
 37 481 l 1
370 481 m 1
 370 519 l 1
 519 519 l 1
 519 481 l 1
 370 481 l 1
37 444 m 1
 37 481 l 1
 111 481 l 1
 111 444 l 1
 37 444 l 1
148 444 m 1
 148 481 l 1
 222 481 l 1
 222 444 l 1
 148 444 l 1
333 444 m 1
 333 481 l 1
 407 481 l 1
 407 444 l 1
 333 444 l 1
444 444 m 1
 444 481 l 1
 519 481 l 1
 519 444 l 1
 444 444 l 1
37 407 m 1
 37 444 l 1
 111 444 l 1
 111 407 l 1
 37 407 l 1
148 407 m 1
 148 444 l 1
 222 444 l 1
 222 407 l 1
 148 407 l 1
333 407 m 1
 333 444 l 1
 407 444 l 1
 407 407 l 1
 333 407 l 1
444 407 m 1
 444 444 l 1
 519 444 l 1
 519 407 l 1
 444 407 l 1
37 370 m 1
 37 407 l 1
 111 407 l 1
 111 370 l 1
 37 370 l 1
148 370 m 1
 148 407 l 1
 222 407 l 1
 222 370 l 1
 148 370 l 1
333 370 m 1
 333 407 l 1
 407 407 l 1
 407 370 l 1
 333 370 l 1
444 370 m 1
 444 407 l 1
 519 407 l 1
 519 370 l 1
 444 370 l 1
37 333 m 1
 37 370 l 1
 111 370 l 1
 111 333 l 1
 37 333 l 1
148 333 m 1
 148 370 l 1
 222 370 l 1
 222 333 l 1
 148 333 l 1
333 333 m 1
 333 370 l 1
 407 370 l 1
 407 333 l 1
 333 333 l 1
444 333 m 1
 444 370 l 1
 519 370 l 1
 519 333 l 1
 444 333 l 1
37 296 m 1
 37 333 l 1
 111 333 l 1
 111 296 l 1
 37 296 l 1
185 296 m 1
 185 333 l 1
 259 333 l 1
 259 296 l 1
 185 296 l 1
296 296 m 1
 296 333 l 1
 370 333 l 1
 370 296 l 1
 296 296 l 1
444 296 m 1
 444 333 l 1
 519 333 l 1
 519 296 l 1
 444 296 l 1
37 259 m 1
 37 296 l 1
 111 296 l 1
 111 259 l 1
 37 259 l 1
185 259 m 1
 185 296 l 1
 259 296 l 1
 259 259 l 1
 185 259 l 1
296 259 m 1
 296 296 l 1
 370 296 l 1
 370 259 l 1
 296 259 l 1
444 259 m 1
 444 296 l 1
 519 296 l 1
 519 259 l 1
 444 259 l 1
37 222 m 1
 37 259 l 1
 111 259 l 1
 111 222 l 1
 37 222 l 1
185 222 m 1
 185 259 l 1
 259 259 l 1
 259 222 l 1
 185 222 l 1
296 222 m 1
 296 259 l 1
 370 259 l 1
 370 222 l 1
 296 222 l 1
444 222 m 1
 444 259 l 1
 519 259 l 1
 519 222 l 1
 444 222 l 1
37 185 m 1
 37 222 l 1
 111 222 l 1
 111 185 l 1
 37 185 l 1
185 185 m 1
 185 222 l 1
 259 222 l 1
 259 185 l 1
 185 185 l 1
296 185 m 1
 296 222 l 1
 370 222 l 1
 370 185 l 1
 296 185 l 1
444 185 m 1
 444 222 l 1
 519 222 l 1
 519 185 l 1
 444 185 l 1
37 148 m 1
 37 185 l 1
 111 185 l 1
 111 148 l 1
 37 148 l 1
222 148 m 1
 222 185 l 1
 333 185 l 1
 333 148 l 1
 222 148 l 1
444 148 m 1
 444 185 l 1
 519 185 l 1
 519 148 l 1
 444 148 l 1
37 111 m 1
 37 148 l 1
 111 148 l 1
 111 111 l 1
 37 111 l 1
222 111 m 1
 222 148 l 1
 333 148 l 1
 333 111 l 1
 222 111 l 1
444 111 m 1
 444 148 l 1
 519 148 l 1
 519 111 l 1
 444 111 l 1
37 74 m 1
 37 111 l 1
 111 111 l 1
 111 74 l 1
 37 74 l 1
222 74 m 1
 222 111 l 1
 333 111 l 1
 333 74 l 1
 222 74 l 1
444 74 m 1
 444 111 l 1
 519 111 l 1
 519 74 l 1
 444 74 l 1
37 37 m 1
 37 74 l 1
 111 74 l 1
 111 37 l 1
 37 37 l 1
222 37 m 1
 222 74 l 1
 333 74 l 1
 333 37 l 1
 222 37 l 1
444 37 m 1
 444 74 l 1
 519 74 l 1
 519 37 l 1
 444 37 l 1
37 0 m 1
 37 37 l 1
 111 37 l 1
 111 0 l 1
 37 0 l 1
444 0 m 1
 444 37 l 1
 519 37 l 1
 519 0 l 1
 444 0 l 1
EndSplineSet
EndChar

StartChar: N
Encoding: 78 78 47
Width: 593
Flags: HW
LayerCount: 2
Back
Fore
SplineSet
74 667 m 1
 74 704 l 1
 185 704 l 1
 185 667 l 1
 74 667 l 1
444 667 m 1
 444 704 l 1
 519 704 l 1
 519 667 l 1
 444 667 l 1
74 630 m 1
 74 667 l 1
 185 667 l 1
 185 630 l 1
 74 630 l 1
444 630 m 1
 444 667 l 1
 519 667 l 1
 519 630 l 1
 444 630 l 1
74 593 m 1
 74 630 l 1
 222 630 l 1
 222 593 l 1
 74 593 l 1
444 593 m 1
 444 630 l 1
 519 630 l 1
 519 593 l 1
 444 593 l 1
74 556 m 1
 74 593 l 1
 259 593 l 1
 259 556 l 1
 74 556 l 1
444 556 m 1
 444 593 l 1
 519 593 l 1
 519 556 l 1
 444 556 l 1
74 519 m 1
 74 556 l 1
 259 556 l 1
 259 519 l 1
 74 519 l 1
444 519 m 1
 444 556 l 1
 519 556 l 1
 519 519 l 1
 444 519 l 1
74 481 m 1
 74 519 l 1
 296 519 l 1
 296 481 l 1
 74 481 l 1
444 481 m 1
 444 519 l 1
 519 519 l 1
 519 481 l 1
 444 481 l 1
74 444 m 1
 74 481 l 1
 148 481 l 1
 148 444 l 1
 74 444 l 1
185 444 m 1
 185 481 l 1
 296 481 l 1
 296 444 l 1
 185 444 l 1
444 444 m 1
 444 481 l 1
 519 481 l 1
 519 444 l 1
 444 444 l 1
74 407 m 1
 74 444 l 1
 148 444 l 1
 148 407 l 1
 74 407 l 1
185 407 m 1
 185 444 l 1
 333 444 l 1
 333 407 l 1
 185 407 l 1
444 407 m 1
 444 444 l 1
 519 444 l 1
 519 407 l 1
 444 407 l 1
74 370 m 1
 74 407 l 1
 148 407 l 1
 148 370 l 1
 74 370 l 1
222 370 m 1
 222 407 l 1
 333 407 l 1
 333 370 l 1
 222 370 l 1
444 370 m 1
 444 407 l 1
 519 407 l 1
 519 370 l 1
 444 370 l 1
74 333 m 1
 74 370 l 1
 148 370 l 1
 148 333 l 1
 74 333 l 1
222 333 m 1
 222 370 l 1
 370 370 l 1
 370 333 l 1
 222 333 l 1
444 333 m 1
 444 370 l 1
 519 370 l 1
 519 333 l 1
 444 333 l 1
74 296 m 1
 74 333 l 1
 148 333 l 1
 148 296 l 1
 74 296 l 1
259 296 m 1
 259 333 l 1
 370 333 l 1
 370 296 l 1
 259 296 l 1
444 296 m 1
 444 333 l 1
 519 333 l 1
 519 296 l 1
 444 296 l 1
74 259 m 1
 74 296 l 1
 148 296 l 1
 148 259 l 1
 74 259 l 1
259 259 m 1
 259 296 l 1
 407 296 l 1
 407 259 l 1
 259 259 l 1
444 259 m 1
 444 296 l 1
 519 296 l 1
 519 259 l 1
 444 259 l 1
74 222 m 1
 74 259 l 1
 148 259 l 1
 148 222 l 1
 74 222 l 1
296 222 m 1
 296 259 l 1
 407 259 l 1
 407 222 l 1
 296 222 l 1
444 222 m 1
 444 259 l 1
 519 259 l 1
 519 222 l 1
 444 222 l 1
74 185 m 1
 74 222 l 1
 148 222 l 1
 148 185 l 1
 74 185 l 1
296 185 m 1
 296 222 l 1
 519 222 l 1
 519 185 l 1
 296 185 l 1
74 148 m 1
 74 185 l 1
 148 185 l 1
 148 148 l 1
 74 148 l 1
333 148 m 1
 333 185 l 1
 519 185 l 1
 519 148 l 1
 333 148 l 1
74 111 m 1
 74 148 l 1
 148 148 l 1
 148 111 l 1
 74 111 l 1
370 111 m 1
 370 148 l 1
 519 148 l 1
 519 111 l 1
 370 111 l 1
74 74 m 1
 74 111 l 1
 148 111 l 1
 148 74 l 1
 74 74 l 1
370 74 m 1
 370 111 l 1
 519 111 l 1
 519 74 l 1
 370 74 l 1
74 37 m 1
 74 74 l 1
 148 74 l 1
 148 37 l 1
 74 37 l 1
407 37 m 1
 407 74 l 1
 519 74 l 1
 519 37 l 1
 407 37 l 1
74 0 m 1
 74 37 l 1
 148 37 l 1
 148 0 l 1
 74 0 l 1
407 0 m 1
 407 37 l 1
 519 37 l 1
 519 0 l 1
 407 0 l 1
EndSplineSet
EndChar

StartChar: O
Encoding: 79 79 48
Width: 593
Flags: HW
LayerCount: 2
Back
Fore
SplineSet
185 667 m 1
 185 704 l 1
 407 704 l 1
 407 667 l 1
 185 667 l 1
148 630 m 1
 148 667 l 1
 444 667 l 1
 444 630 l 1
 148 630 l 1
111 593 m 1
 111 630 l 1
 222 630 l 1
 222 593 l 1
 111 593 l 1
370 593 m 1
 370 630 l 1
 481 630 l 1
 481 593 l 1
 370 593 l 1
74 556 m 1
 74 593 l 1
 185 593 l 1
 185 556 l 1
 74 556 l 1
407 556 m 1
 407 593 l 1
 519 593 l 1
 519 556 l 1
 407 556 l 1
74 519 m 1
 74 556 l 1
 185 556 l 1
 185 519 l 1
 74 519 l 1
407 519 m 1
 407 556 l 1
 519 556 l 1
 519 519 l 1
 407 519 l 1
74 481 m 1
 74 519 l 1
 148 519 l 1
 148 481 l 1
 74 481 l 1
444 481 m 1
 444 519 l 1
 519 519 l 1
 519 481 l 1
 444 481 l 1
37 444 m 1
 37 481 l 1
 148 481 l 1
 148 444 l 1
 37 444 l 1
444 444 m 1
 444 481 l 1
 556 481 l 1
 556 444 l 1
 444 444 l 1
37 407 m 1
 37 444 l 1
 148 444 l 1
 148 407 l 1
 37 407 l 1
444 407 m 1
 444 444 l 1
 556 444 l 1
 556 407 l 1
 444 407 l 1
37 370 m 1
 37 407 l 1
 148 407 l 1
 148 370 l 1
 37 370 l 1
444 370 m 1
 444 407 l 1
 556 407 l 1
 556 370 l 1
 444 370 l 1
37 333 m 1
 37 370 l 1
 148 370 l 1
 148 333 l 1
 37 333 l 1
444 333 m 1
 444 370 l 1
 556 370 l 1
 556 333 l 1
 444 333 l 1
37 296 m 1
 37 333 l 1
 148 333 l 1
 148 296 l 1
 37 296 l 1
444 296 m 1
 444 333 l 1
 556 333 l 1
 556 296 l 1
 444 296 l 1
37 259 m 1
 37 296 l 1
 148 296 l 1
 148 259 l 1
 37 259 l 1
444 259 m 1
 444 296 l 1
 556 296 l 1
 556 259 l 1
 444 259 l 1
37 222 m 1
 37 259 l 1
 148 259 l 1
 148 222 l 1
 37 222 l 1
444 222 m 1
 444 259 l 1
 556 259 l 1
 556 222 l 1
 444 222 l 1
74 185 m 1
 74 222 l 1
 148 222 l 1
 148 185 l 1
 74 185 l 1
444 185 m 1
 444 222 l 1
 519 222 l 1
 519 185 l 1
 444 185 l 1
74 148 m 1
 74 185 l 1
 185 185 l 1
 185 148 l 1
 74 148 l 1
407 148 m 1
 407 185 l 1
 519 185 l 1
 519 148 l 1
 407 148 l 1
74 111 m 1
 74 148 l 1
 185 148 l 1
 185 111 l 1
 74 111 l 1
407 111 m 1
 407 148 l 1
 519 148 l 1
 519 111 l 1
 407 111 l 1
111 74 m 1
 111 111 l 1
 222 111 l 1
 222 74 l 1
 111 74 l 1
370 74 m 1
 370 111 l 1
 481 111 l 1
 481 74 l 1
 370 74 l 1
148 37 m 1
 148 74 l 1
 444 74 l 1
 444 37 l 1
 148 37 l 1
185 0 m 1
 185 37 l 1
 407 37 l 1
 407 0 l 1
 185 0 l 1
EndSplineSet
EndChar

StartChar: P
Encoding: 80 80 49
Width: 593
Flags: HW
LayerCount: 2
Back
Fore
SplineSet
111 667 m 1
 111 704 l 1
 444 704 l 1
 444 667 l 1
 111 667 l 1
111 630 m 1
 111 667 l 1
 519 667 l 1
 519 630 l 1
 111 630 l 1
111 593 m 1
 111 630 l 1
 222 630 l 1
 222 593 l 1
 111 593 l 1
407 593 m 1
 407 630 l 1
 556 630 l 1
 556 593 l 1
 407 593 l 1
111 556 m 1
 111 593 l 1
 222 593 l 1
 222 556 l 1
 111 556 l 1
444 556 m 1
 444 593 l 1
 556 593 l 1
 556 556 l 1
 444 556 l 1
111 519 m 1
 111 556 l 1
 222 556 l 1
 222 519 l 1
 111 519 l 1
444 519 m 1
 444 556 l 1
 556 556 l 1
 556 519 l 1
 444 519 l 1
111 481 m 1
 111 519 l 1
 222 519 l 1
 222 481 l 1
 111 481 l 1
444 481 m 1
 444 519 l 1
 556 519 l 1
 556 481 l 1
 444 481 l 1
111 444 m 1
 111 481 l 1
 222 481 l 1
 222 444 l 1
 111 444 l 1
444 444 m 1
 444 481 l 1
 556 481 l 1
 556 444 l 1
 444 444 l 1
111 407 m 1
 111 444 l 1
 222 444 l 1
 222 407 l 1
 111 407 l 1
444 407 m 1
 444 444 l 1
 556 444 l 1
 556 407 l 1
 444 407 l 1
111 370 m 1
 111 407 l 1
 222 407 l 1
 222 370 l 1
 111 370 l 1
407 370 m 1
 407 407 l 1
 519 407 l 1
 519 370 l 1
 407 370 l 1
111 333 m 1
 111 370 l 1
 222 370 l 1
 222 333 l 1
 111 333 l 1
370 333 m 1
 370 370 l 1
 519 370 l 1
 519 333 l 1
 370 333 l 1
111 296 m 1
 111 333 l 1
 481 333 l 1
 481 296 l 1
 111 296 l 1
111 259 m 1
 111 296 l 1
 407 296 l 1
 407 259 l 1
 111 259 l 1
111 222 m 1
 111 259 l 1
 222 259 l 1
 222 222 l 1
 111 222 l 1
111 185 m 1
 111 222 l 1
 222 222 l 1
 222 185 l 1
 111 185 l 1
111 148 m 1
 111 185 l 1
 222 185 l 1
 222 148 l 1
 111 148 l 1
111 111 m 1
 111 148 l 1
 222 148 l 1
 222 111 l 1
 111 111 l 1
111 74 m 1
 111 111 l 1
 222 111 l 1
 222 74 l 1
 111 74 l 1
111 37 m 1
 111 74 l 1
 222 74 l 1
 222 37 l 1
 111 37 l 1
111 0 m 1
 111 37 l 1
 222 37 l 1
 222 0 l 1
 111 0 l 1
EndSplineSet
EndChar

StartChar: Q
Encoding: 81 81 50
Width: 593
Flags: HW
LayerCount: 2
Back
Fore
SplineSet
185 667 m 1
 185 704 l 1
 407 704 l 1
 407 667 l 1
 185 667 l 1
148 630 m 1
 148 667 l 1
 444 667 l 1
 444 630 l 1
 148 630 l 1
111 593 m 1
 111 630 l 1
 222 630 l 1
 222 593 l 1
 111 593 l 1
370 593 m 1
 370 630 l 1
 481 630 l 1
 481 593 l 1
 370 593 l 1
74 556 m 1
 74 593 l 1
 185 593 l 1
 185 556 l 1
 74 556 l 1
407 556 m 1
 407 593 l 1
 519 593 l 1
 519 556 l 1
 407 556 l 1
74 519 m 1
 74 556 l 1
 185 556 l 1
 185 519 l 1
 74 519 l 1
407 519 m 1
 407 556 l 1
 519 556 l 1
 519 519 l 1
 407 519 l 1
74 481 m 1
 74 519 l 1
 148 519 l 1
 148 481 l 1
 74 481 l 1
444 481 m 1
 444 519 l 1
 519 519 l 1
 519 481 l 1
 444 481 l 1
37 444 m 1
 37 481 l 1
 148 481 l 1
 148 444 l 1
 37 444 l 1
444 444 m 1
 444 481 l 1
 556 481 l 1
 556 444 l 1
 444 444 l 1
37 407 m 1
 37 444 l 1
 148 444 l 1
 148 407 l 1
 37 407 l 1
444 407 m 1
 444 444 l 1
 556 444 l 1
 556 407 l 1
 444 407 l 1
37 370 m 1
 37 407 l 1
 148 407 l 1
 148 370 l 1
 37 370 l 1
444 370 m 1
 444 407 l 1
 556 407 l 1
 556 370 l 1
 444 370 l 1
37 333 m 1
 37 370 l 1
 148 370 l 1
 148 333 l 1
 37 333 l 1
444 333 m 1
 444 370 l 1
 556 370 l 1
 556 333 l 1
 444 333 l 1
37 296 m 1
 37 333 l 1
 148 333 l 1
 148 296 l 1
 37 296 l 1
444 296 m 1
 444 333 l 1
 556 333 l 1
 556 296 l 1
 444 296 l 1
37 259 m 1
 37 296 l 1
 148 296 l 1
 148 259 l 1
 37 259 l 1
444 259 m 1
 444 296 l 1
 556 296 l 1
 556 259 l 1
 444 259 l 1
37 222 m 1
 37 259 l 1
 148 259 l 1
 148 222 l 1
 37 222 l 1
444 222 m 1
 444 259 l 1
 556 259 l 1
 556 222 l 1
 444 222 l 1
74 185 m 1
 74 222 l 1
 148 222 l 1
 148 185 l 1
 74 185 l 1
444 185 m 1
 444 222 l 1
 556 222 l 1
 556 185 l 1
 444 185 l 1
74 148 m 1
 74 185 l 1
 185 185 l 1
 185 148 l 1
 74 148 l 1
407 148 m 1
 407 185 l 1
 519 185 l 1
 519 148 l 1
 407 148 l 1
74 111 m 1
 74 148 l 1
 185 148 l 1
 185 111 l 1
 74 111 l 1
407 111 m 1
 407 148 l 1
 519 148 l 1
 519 111 l 1
 407 111 l 1
111 74 m 1
 111 111 l 1
 222 111 l 1
 222 74 l 1
 111 74 l 1
370 74 m 1
 370 111 l 1
 481 111 l 1
 481 74 l 1
 370 74 l 1
148 37 m 1
 148 74 l 1
 444 74 l 1
 444 37 l 1
 148 37 l 1
185 0 m 1
 185 37 l 1
 407 37 l 1
 407 0 l 1
 185 0 l 1
333 -37 m 1
 333 0 l 1
 444 0 l 1
 444 -37 l 1
 333 -37 l 1
370 -74 m 1
 370 -37 l 1
 519 -37 l 1
 519 -74 l 1
 370 -74 l 1
444 -111 m 1
 444 -74 l 1
 593 -74 l 1
 593 -111 l 1
 444 -111 l 1
481 -148 m 1
 481 -111 l 1
 556 -111 l 1
 556 -148 l 1
 481 -148 l 1
EndSplineSet
EndChar

StartChar: R
Encoding: 82 82 51
Width: 593
Flags: HW
LayerCount: 2
Back
Fore
SplineSet
74 667 m 1
 74 704 l 1
 370 704 l 1
 370 667 l 1
 74 667 l 1
74 630 m 1
 74 667 l 1
 444 667 l 1
 444 630 l 1
 74 630 l 1
74 593 m 1
 74 630 l 1
 185 630 l 1
 185 593 l 1
 74 593 l 1
333 593 m 1
 333 630 l 1
 481 630 l 1
 481 593 l 1
 333 593 l 1
74 556 m 1
 74 593 l 1
 185 593 l 1
 185 556 l 1
 74 556 l 1
370 556 m 1
 370 593 l 1
 481 593 l 1
 481 556 l 1
 370 556 l 1
74 519 m 1
 74 556 l 1
 185 556 l 1
 185 519 l 1
 74 519 l 1
370 519 m 1
 370 556 l 1
 481 556 l 1
 481 519 l 1
 370 519 l 1
74 481 m 1
 74 519 l 1
 185 519 l 1
 185 481 l 1
 74 481 l 1
370 481 m 1
 370 519 l 1
 481 519 l 1
 481 481 l 1
 370 481 l 1
74 444 m 1
 74 481 l 1
 185 481 l 1
 185 444 l 1
 74 444 l 1
370 444 m 1
 370 481 l 1
 481 481 l 1
 481 444 l 1
 370 444 l 1
74 407 m 1
 74 444 l 1
 185 444 l 1
 185 407 l 1
 74 407 l 1
333 407 m 1
 333 444 l 1
 444 444 l 1
 444 407 l 1
 333 407 l 1
74 370 m 1
 74 407 l 1
 185 407 l 1
 185 370 l 1
 74 370 l 1
296 370 m 1
 296 407 l 1
 444 407 l 1
 444 370 l 1
 296 370 l 1
74 333 m 1
 74 370 l 1
 370 370 l 1
 370 333 l 1
 74 333 l 1
74 296 m 1
 74 333 l 1
 370 333 l 1
 370 296 l 1
 74 296 l 1
74 259 m 1
 74 296 l 1
 185 296 l 1
 185 259 l 1
 74 259 l 1
259 259 m 1
 259 296 l 1
 370 296 l 1
 370 259 l 1
 259 259 l 1
74 222 m 1
 74 259 l 1
 185 259 l 1
 185 222 l 1
 74 222 l 1
296 222 m 1
 296 259 l 1
 407 259 l 1
 407 222 l 1
 296 222 l 1
74 185 m 1
 74 222 l 1
 185 222 l 1
 185 185 l 1
 74 185 l 1
296 185 m 1
 296 222 l 1
 444 222 l 1
 444 185 l 1
 296 185 l 1
74 148 m 1
 74 185 l 1
 185 185 l 1
 185 148 l 1
 74 148 l 1
333 148 m 1
 333 185 l 1
 444 185 l 1
 444 148 l 1
 333 148 l 1
74 111 m 1
 74 148 l 1
 185 148 l 1
 185 111 l 1
 74 111 l 1
333 111 m 1
 333 148 l 1
 481 148 l 1
 481 111 l 1
 333 111 l 1
74 74 m 1
 74 111 l 1
 185 111 l 1
 185 74 l 1
 74 74 l 1
370 74 m 1
 370 111 l 1
 519 111 l 1
 519 74 l 1
 370 74 l 1
74 37 m 1
 74 74 l 1
 185 74 l 1
 185 37 l 1
 74 37 l 1
407 37 m 1
 407 74 l 1
 519 74 l 1
 519 37 l 1
 407 37 l 1
74 0 m 1
 74 37 l 1
 185 37 l 1
 185 0 l 1
 74 0 l 1
407 0 m 1
 407 37 l 1
 556 37 l 1
 556 0 l 1
 407 0 l 1
EndSplineSet
EndChar

StartChar: S
Encoding: 83 83 52
Width: 593
Flags: HW
LayerCount: 2
Back
Fore
SplineSet
185 667 m 1
 185 704 l 1
 407 704 l 1
 407 667 l 1
 185 667 l 1
111 630 m 1
 111 667 l 1
 444 667 l 1
 444 630 l 1
 111 630 l 1
111 593 m 1
 111 630 l 1
 222 630 l 1
 222 593 l 1
 111 593 l 1
407 593 m 1
 407 630 l 1
 444 630 l 1
 444 593 l 1
 407 593 l 1
74 556 m 1
 74 593 l 1
 185 593 l 1
 185 556 l 1
 74 556 l 1
74 519 m 1
 74 556 l 1
 185 556 l 1
 185 519 l 1
 74 519 l 1
74 481 m 1
 74 519 l 1
 185 519 l 1
 185 481 l 1
 74 481 l 1
74 444 m 1
 74 481 l 1
 222 481 l 1
 222 444 l 1
 74 444 l 1
111 407 m 1
 111 444 l 1
 296 444 l 1
 296 407 l 1
 111 407 l 1
148 370 m 1
 148 407 l 1
 370 407 l 1
 370 370 l 1
 148 370 l 1
222 333 m 1
 222 370 l 1
 444 370 l 1
 444 333 l 1
 222 333 l 1
296 296 m 1
 296 333 l 1
 481 333 l 1
 481 296 l 1
 296 296 l 1
333 259 m 1
 333 296 l 1
 519 296 l 1
 519 259 l 1
 333 259 l 1
407 222 m 1
 407 259 l 1
 519 259 l 1
 519 222 l 1
 407 222 l 1
407 185 m 1
 407 222 l 1
 519 222 l 1
 519 185 l 1
 407 185 l 1
407 148 m 1
 407 185 l 1
 519 185 l 1
 519 148 l 1
 407 148 l 1
407 111 m 1
 407 148 l 1
 519 148 l 1
 519 111 l 1
 407 111 l 1
74 74 m 1
 74 111 l 1
 148 111 l 1
 148 74 l 1
 74 74 l 1
333 74 m 1
 333 111 l 1
 481 111 l 1
 481 74 l 1
 333 74 l 1
74 37 m 1
 74 74 l 1
 444 74 l 1
 444 37 l 1
 74 37 l 1
111 0 m 1
 111 37 l 1
 407 37 l 1
 407 0 l 1
 111 0 l 1
EndSplineSet
EndChar

StartChar: T
Encoding: 84 84 53
Width: 593
Flags: HW
LayerCount: 2
Back
Fore
SplineSet
0 667 m 1
 0 704 l 1
 556 704 l 1
 556 667 l 1
 0 667 l 1
0 630 m 1
 0 667 l 1
 556 667 l 1
 556 630 l 1
 0 630 l 1
222 593 m 1
 222 630 l 1
 333 630 l 1
 333 593 l 1
 222 593 l 1
222 556 m 1
 222 593 l 1
 333 593 l 1
 333 556 l 1
 222 556 l 1
222 519 m 1
 222 556 l 1
 333 556 l 1
 333 519 l 1
 222 519 l 1
222 481 m 1
 222 519 l 1
 333 519 l 1
 333 481 l 1
 222 481 l 1
222 444 m 1
 222 481 l 1
 333 481 l 1
 333 444 l 1
 222 444 l 1
222 407 m 1
 222 444 l 1
 333 444 l 1
 333 407 l 1
 222 407 l 1
222 370 m 1
 222 407 l 1
 333 407 l 1
 333 370 l 1
 222 370 l 1
222 333 m 1
 222 370 l 1
 333 370 l 1
 333 333 l 1
 222 333 l 1
222 296 m 1
 222 333 l 1
 333 333 l 1
 333 296 l 1
 222 296 l 1
222 259 m 1
 222 296 l 1
 333 296 l 1
 333 259 l 1
 222 259 l 1
222 222 m 1
 222 259 l 1
 333 259 l 1
 333 222 l 1
 222 222 l 1
222 185 m 1
 222 222 l 1
 333 222 l 1
 333 185 l 1
 222 185 l 1
222 148 m 1
 222 185 l 1
 333 185 l 1
 333 148 l 1
 222 148 l 1
222 111 m 1
 222 148 l 1
 333 148 l 1
 333 111 l 1
 222 111 l 1
222 74 m 1
 222 111 l 1
 333 111 l 1
 333 74 l 1
 222 74 l 1
222 37 m 1
 222 74 l 1
 333 74 l 1
 333 37 l 1
 222 37 l 1
222 0 m 1
 222 37 l 1
 333 37 l 1
 333 0 l 1
 222 0 l 1
EndSplineSet
EndChar

StartChar: U
Encoding: 85 85 54
Width: 593
Flags: HW
LayerCount: 2
Back
Fore
SplineSet
74 667 m 1
 74 704 l 1
 185 704 l 1
 185 667 l 1
 74 667 l 1
444 667 m 1
 444 704 l 1
 519 704 l 1
 519 667 l 1
 444 667 l 1
74 630 m 1
 74 667 l 1
 185 667 l 1
 185 630 l 1
 74 630 l 1
444 630 m 1
 444 667 l 1
 519 667 l 1
 519 630 l 1
 444 630 l 1
74 593 m 1
 74 630 l 1
 185 630 l 1
 185 593 l 1
 74 593 l 1
444 593 m 1
 444 630 l 1
 519 630 l 1
 519 593 l 1
 444 593 l 1
74 556 m 1
 74 593 l 1
 185 593 l 1
 185 556 l 1
 74 556 l 1
444 556 m 1
 444 593 l 1
 519 593 l 1
 519 556 l 1
 444 556 l 1
74 519 m 1
 74 556 l 1
 185 556 l 1
 185 519 l 1
 74 519 l 1
444 519 m 1
 444 556 l 1
 519 556 l 1
 519 519 l 1
 444 519 l 1
74 481 m 1
 74 519 l 1
 185 519 l 1
 185 481 l 1
 74 481 l 1
444 481 m 1
 444 519 l 1
 519 519 l 1
 519 481 l 1
 444 481 l 1
74 444 m 1
 74 481 l 1
 185 481 l 1
 185 444 l 1
 74 444 l 1
444 444 m 1
 444 481 l 1
 519 481 l 1
 519 444 l 1
 444 444 l 1
74 407 m 1
 74 444 l 1
 185 444 l 1
 185 407 l 1
 74 407 l 1
444 407 m 1
 444 444 l 1
 519 444 l 1
 519 407 l 1
 444 407 l 1
74 370 m 1
 74 407 l 1
 185 407 l 1
 185 370 l 1
 74 370 l 1
444 370 m 1
 444 407 l 1
 519 407 l 1
 519 370 l 1
 444 370 l 1
74 333 m 1
 74 370 l 1
 185 370 l 1
 185 333 l 1
 74 333 l 1
444 333 m 1
 444 370 l 1
 519 370 l 1
 519 333 l 1
 444 333 l 1
74 296 m 1
 74 333 l 1
 185 333 l 1
 185 296 l 1
 74 296 l 1
444 296 m 1
 444 333 l 1
 519 333 l 1
 519 296 l 1
 444 296 l 1
74 259 m 1
 74 296 l 1
 185 296 l 1
 185 259 l 1
 74 259 l 1
444 259 m 1
 444 296 l 1
 519 296 l 1
 519 259 l 1
 444 259 l 1
74 222 m 1
 74 259 l 1
 185 259 l 1
 185 222 l 1
 74 222 l 1
444 222 m 1
 444 259 l 1
 519 259 l 1
 519 222 l 1
 444 222 l 1
74 185 m 1
 74 222 l 1
 185 222 l 1
 185 185 l 1
 74 185 l 1
444 185 m 1
 444 222 l 1
 519 222 l 1
 519 185 l 1
 444 185 l 1
74 148 m 1
 74 185 l 1
 185 185 l 1
 185 148 l 1
 74 148 l 1
444 148 m 1
 444 185 l 1
 519 185 l 1
 519 148 l 1
 444 148 l 1
74 111 m 1
 74 148 l 1
 222 148 l 1
 222 111 l 1
 74 111 l 1
407 111 m 1
 407 148 l 1
 519 148 l 1
 519 111 l 1
 407 111 l 1
111 74 m 1
 111 111 l 1
 222 111 l 1
 222 74 l 1
 111 74 l 1
407 74 m 1
 407 111 l 1
 481 111 l 1
 481 74 l 1
 407 74 l 1
111 37 m 1
 111 74 l 1
 444 74 l 1
 444 37 l 1
 111 37 l 1
185 0 m 1
 185 37 l 1
 407 37 l 1
 407 0 l 1
 185 0 l 1
EndSplineSet
EndChar

StartChar: V
Encoding: 86 86 55
Width: 593
Flags: HW
LayerCount: 2
Back
Fore
SplineSet
0 667 m 1
 0 704 l 1
 111 704 l 1
 111 667 l 1
 0 667 l 1
481 667 m 1
 481 704 l 1
 556 704 l 1
 556 667 l 1
 481 667 l 1
0 630 m 1
 0 667 l 1
 111 667 l 1
 111 630 l 1
 0 630 l 1
444 630 m 1
 444 667 l 1
 556 667 l 1
 556 630 l 1
 444 630 l 1
37 593 m 1
 37 630 l 1
 148 630 l 1
 148 593 l 1
 37 593 l 1
444 593 m 1
 444 630 l 1
 519 630 l 1
 519 593 l 1
 444 593 l 1
37 556 m 1
 37 593 l 1
 148 593 l 1
 148 556 l 1
 37 556 l 1
444 556 m 1
 444 593 l 1
 519 593 l 1
 519 556 l 1
 444 556 l 1
37 519 m 1
 37 556 l 1
 148 556 l 1
 148 519 l 1
 37 519 l 1
407 519 m 1
 407 556 l 1
 519 556 l 1
 519 519 l 1
 407 519 l 1
37 481 m 1
 37 519 l 1
 185 519 l 1
 185 481 l 1
 37 481 l 1
407 481 m 1
 407 519 l 1
 481 519 l 1
 481 481 l 1
 407 481 l 1
74 444 m 1
 74 481 l 1
 185 481 l 1
 185 444 l 1
 74 444 l 1
407 444 m 1
 407 481 l 1
 481 481 l 1
 481 444 l 1
 407 444 l 1
74 407 m 1
 74 444 l 1
 185 444 l 1
 185 407 l 1
 74 407 l 1
370 407 m 1
 370 444 l 1
 481 444 l 1
 481 407 l 1
 370 407 l 1
74 370 m 1
 74 407 l 1
 222 407 l 1
 222 370 l 1
 74 370 l 1
370 370 m 1
 370 407 l 1
 444 407 l 1
 444 370 l 1
 370 370 l 1
111 333 m 1
 111 370 l 1
 222 370 l 1
 222 333 l 1
 111 333 l 1
370 333 m 1
 370 370 l 1
 444 370 l 1
 444 333 l 1
 370 333 l 1
111 296 m 1
 111 333 l 1
 222 333 l 1
 222 296 l 1
 111 296 l 1
333 296 m 1
 333 333 l 1
 444 333 l 1
 444 296 l 1
 333 296 l 1
111 259 m 1
 111 296 l 1
 259 296 l 1
 259 259 l 1
 111 259 l 1
333 259 m 1
 333 296 l 1
 407 296 l 1
 407 259 l 1
 333 259 l 1
148 222 m 1
 148 259 l 1
 259 259 l 1
 259 222 l 1
 148 222 l 1
333 222 m 1
 333 259 l 1
 407 259 l 1
 407 222 l 1
 333 222 l 1
148 185 m 1
 148 222 l 1
 259 222 l 1
 259 185 l 1
 148 185 l 1
296 185 m 1
 296 222 l 1
 407 222 l 1
 407 185 l 1
 296 185 l 1
148 148 m 1
 148 185 l 1
 370 185 l 1
 370 148 l 1
 148 148 l 1
185 111 m 1
 185 148 l 1
 370 148 l 1
 370 111 l 1
 185 111 l 1
185 74 m 1
 185 111 l 1
 370 111 l 1
 370 74 l 1
 185 74 l 1
185 37 m 1
 185 74 l 1
 333 74 l 1
 333 37 l 1
 185 37 l 1
222 0 m 1
 222 37 l 1
 333 37 l 1
 333 0 l 1
 222 0 l 1
EndSplineSet
EndChar

StartChar: W
Encoding: 87 87 56
Width: 593
Flags: HW
LayerCount: 2
Back
Fore
SplineSet
0 667 m 1
 0 704 l 1
 74 704 l 1
 74 667 l 1
 0 667 l 1
481 667 m 1
 481 704 l 1
 556 704 l 1
 556 667 l 1
 481 667 l 1
0 630 m 1
 0 667 l 1
 74 667 l 1
 74 630 l 1
 0 630 l 1
222 630 m 1
 222 667 l 1
 333 667 l 1
 333 630 l 1
 222 630 l 1
481 630 m 1
 481 667 l 1
 556 667 l 1
 556 630 l 1
 481 630 l 1
0 593 m 1
 0 630 l 1
 74 630 l 1
 74 593 l 1
 0 593 l 1
222 593 m 1
 222 630 l 1
 333 630 l 1
 333 593 l 1
 222 593 l 1
481 593 m 1
 481 630 l 1
 556 630 l 1
 556 593 l 1
 481 593 l 1
0 556 m 1
 0 593 l 1
 74 593 l 1
 74 556 l 1
 0 556 l 1
222 556 m 1
 222 593 l 1
 333 593 l 1
 333 556 l 1
 222 556 l 1
481 556 m 1
 481 593 l 1
 519 593 l 1
 519 556 l 1
 481 556 l 1
0 519 m 1
 0 556 l 1
 74 556 l 1
 74 519 l 1
 0 519 l 1
185 519 m 1
 185 556 l 1
 333 556 l 1
 333 519 l 1
 185 519 l 1
444 519 m 1
 444 556 l 1
 519 556 l 1
 519 519 l 1
 444 519 l 1
37 481 m 1
 37 519 l 1
 111 519 l 1
 111 481 l 1
 37 481 l 1
185 481 m 1
 185 519 l 1
 370 519 l 1
 370 481 l 1
 185 481 l 1
444 481 m 1
 444 519 l 1
 519 519 l 1
 519 481 l 1
 444 481 l 1
37 444 m 1
 37 481 l 1
 111 481 l 1
 111 444 l 1
 37 444 l 1
185 444 m 1
 185 481 l 1
 370 481 l 1
 370 444 l 1
 185 444 l 1
444 444 m 1
 444 481 l 1
 519 481 l 1
 519 444 l 1
 444 444 l 1
37 407 m 1
 37 444 l 1
 111 444 l 1
 111 407 l 1
 37 407 l 1
185 407 m 1
 185 444 l 1
 370 444 l 1
 370 407 l 1
 185 407 l 1
444 407 m 1
 444 444 l 1
 519 444 l 1
 519 407 l 1
 444 407 l 1
37 370 m 1
 37 407 l 1
 111 407 l 1
 111 370 l 1
 37 370 l 1
185 370 m 1
 185 407 l 1
 259 407 l 1
 259 370 l 1
 185 370 l 1
296 370 m 1
 296 407 l 1
 370 407 l 1
 370 370 l 1
 296 370 l 1
444 370 m 1
 444 407 l 1
 519 407 l 1
 519 370 l 1
 444 370 l 1
37 333 m 1
 37 370 l 1
 111 370 l 1
 111 333 l 1
 37 333 l 1
185 333 m 1
 185 370 l 1
 222 370 l 1
 222 333 l 1
 185 333 l 1
296 333 m 1
 296 370 l 1
 370 370 l 1
 370 333 l 1
 296 333 l 1
444 333 m 1
 444 370 l 1
 519 370 l 1
 519 333 l 1
 444 333 l 1
37 296 m 1
 37 333 l 1
 111 333 l 1
 111 296 l 1
 37 296 l 1
185 296 m 1
 185 333 l 1
 222 333 l 1
 222 296 l 1
 185 296 l 1
296 296 m 1
 296 333 l 1
 370 333 l 1
 370 296 l 1
 296 296 l 1
444 296 m 1
 444 333 l 1
 481 333 l 1
 481 296 l 1
 444 296 l 1
37 259 m 1
 37 296 l 1
 111 296 l 1
 111 259 l 1
 37 259 l 1
148 259 m 1
 148 296 l 1
 222 296 l 1
 222 259 l 1
 148 259 l 1
296 259 m 1
 296 296 l 1
 370 296 l 1
 370 259 l 1
 296 259 l 1
407 259 m 1
 407 296 l 1
 481 296 l 1
 481 259 l 1
 407 259 l 1
37 222 m 1
 37 259 l 1
 111 259 l 1
 111 222 l 1
 37 222 l 1
148 222 m 1
 148 259 l 1
 222 259 l 1
 222 222 l 1
 148 222 l 1
296 222 m 1
 296 259 l 1
 370 259 l 1
 370 222 l 1
 296 222 l 1
407 222 m 1
 407 259 l 1
 481 259 l 1
 481 222 l 1
 407 222 l 1
37 185 m 1
 37 222 l 1
 111 222 l 1
 111 185 l 1
 37 185 l 1
148 185 m 1
 148 222 l 1
 222 222 l 1
 222 185 l 1
 148 185 l 1
296 185 m 1
 296 222 l 1
 481 222 l 1
 481 185 l 1
 296 185 l 1
74 148 m 1
 74 185 l 1
 222 185 l 1
 222 148 l 1
 74 148 l 1
296 148 m 1
 296 185 l 1
 481 185 l 1
 481 148 l 1
 296 148 l 1
74 111 m 1
 74 148 l 1
 222 148 l 1
 222 111 l 1
 74 111 l 1
333 111 m 1
 333 148 l 1
 481 148 l 1
 481 111 l 1
 333 111 l 1
74 74 m 1
 74 111 l 1
 185 111 l 1
 185 74 l 1
 74 74 l 1
333 74 m 1
 333 111 l 1
 444 111 l 1
 444 74 l 1
 333 74 l 1
74 37 m 1
 74 74 l 1
 185 74 l 1
 185 37 l 1
 74 37 l 1
333 37 m 1
 333 74 l 1
 444 74 l 1
 444 37 l 1
 333 37 l 1
74 0 m 1
 74 37 l 1
 185 37 l 1
 185 0 l 1
 74 0 l 1
333 0 m 1
 333 37 l 1
 444 37 l 1
 444 0 l 1
 333 0 l 1
EndSplineSet
EndChar

StartChar: X
Encoding: 88 88 57
Width: 593
Flags: HW
LayerCount: 2
Back
Fore
SplineSet
0 667 m 1
 0 704 l 1
 148 704 l 1
 148 667 l 1
 0 667 l 1
444 667 m 1
 444 704 l 1
 556 704 l 1
 556 667 l 1
 444 667 l 1
37 630 m 1
 37 667 l 1
 185 667 l 1
 185 630 l 1
 37 630 l 1
407 630 m 1
 407 667 l 1
 519 667 l 1
 519 630 l 1
 407 630 l 1
74 593 m 1
 74 630 l 1
 185 630 l 1
 185 593 l 1
 74 593 l 1
407 593 m 1
 407 630 l 1
 481 630 l 1
 481 593 l 1
 407 593 l 1
74 556 m 1
 74 593 l 1
 222 593 l 1
 222 556 l 1
 74 556 l 1
370 556 m 1
 370 593 l 1
 444 593 l 1
 444 556 l 1
 370 556 l 1
111 519 m 1
 111 556 l 1
 222 556 l 1
 222 519 l 1
 111 519 l 1
333 519 m 1
 333 556 l 1
 444 556 l 1
 444 519 l 1
 333 519 l 1
148 481 m 1
 148 519 l 1
 259 519 l 1
 259 481 l 1
 148 481 l 1
333 481 m 1
 333 519 l 1
 407 519 l 1
 407 481 l 1
 333 481 l 1
148 444 m 1
 148 481 l 1
 370 481 l 1
 370 444 l 1
 148 444 l 1
185 407 m 1
 185 444 l 1
 370 444 l 1
 370 407 l 1
 185 407 l 1
185 370 m 1
 185 407 l 1
 333 407 l 1
 333 370 l 1
 185 370 l 1
222 333 m 1
 222 370 l 1
 370 370 l 1
 370 333 l 1
 222 333 l 1
185 296 m 1
 185 333 l 1
 370 333 l 1
 370 296 l 1
 185 296 l 1
185 259 m 1
 185 296 l 1
 407 296 l 1
 407 259 l 1
 185 259 l 1
148 222 m 1
 148 259 l 1
 259 259 l 1
 259 222 l 1
 148 222 l 1
296 222 m 1
 296 259 l 1
 407 259 l 1
 407 222 l 1
 296 222 l 1
148 185 m 1
 148 222 l 1
 222 222 l 1
 222 185 l 1
 148 185 l 1
296 185 m 1
 296 222 l 1
 444 222 l 1
 444 185 l 1
 296 185 l 1
111 148 m 1
 111 185 l 1
 185 185 l 1
 185 148 l 1
 111 148 l 1
333 148 m 1
 333 185 l 1
 481 185 l 1
 481 148 l 1
 333 148 l 1
74 111 m 1
 74 148 l 1
 185 148 l 1
 185 111 l 1
 74 111 l 1
370 111 m 1
 370 148 l 1
 481 148 l 1
 481 111 l 1
 370 111 l 1
74 74 m 1
 74 111 l 1
 148 111 l 1
 148 74 l 1
 74 74 l 1
370 74 m 1
 370 111 l 1
 519 111 l 1
 519 74 l 1
 370 74 l 1
37 37 m 1
 37 74 l 1
 111 74 l 1
 111 37 l 1
 37 37 l 1
407 37 m 1
 407 74 l 1
 519 74 l 1
 519 37 l 1
 407 37 l 1
0 0 m 1
 0 37 l 1
 111 37 l 1
 111 0 l 1
 0 0 l 1
444 0 m 1
 444 37 l 1
 556 37 l 1
 556 0 l 1
 444 0 l 1
EndSplineSet
EndChar

StartChar: Y
Encoding: 89 89 58
Width: 593
Flags: HW
LayerCount: 2
Back
Fore
SplineSet
0 667 m 1
 0 704 l 1
 111 704 l 1
 111 667 l 1
 0 667 l 1
481 667 m 1
 481 704 l 1
 593 704 l 1
 593 667 l 1
 481 667 l 1
37 630 m 1
 37 667 l 1
 148 667 l 1
 148 630 l 1
 37 630 l 1
481 630 m 1
 481 667 l 1
 556 667 l 1
 556 630 l 1
 481 630 l 1
37 593 m 1
 37 630 l 1
 185 630 l 1
 185 593 l 1
 37 593 l 1
444 593 m 1
 444 630 l 1
 519 630 l 1
 519 593 l 1
 444 593 l 1
74 556 m 1
 74 593 l 1
 185 593 l 1
 185 556 l 1
 74 556 l 1
407 556 m 1
 407 593 l 1
 519 593 l 1
 519 556 l 1
 407 556 l 1
74 519 m 1
 74 556 l 1
 222 556 l 1
 222 519 l 1
 74 519 l 1
407 519 m 1
 407 556 l 1
 481 556 l 1
 481 519 l 1
 407 519 l 1
111 481 m 1
 111 519 l 1
 222 519 l 1
 222 481 l 1
 111 481 l 1
370 481 m 1
 370 519 l 1
 444 519 l 1
 444 481 l 1
 370 481 l 1
111 444 m 1
 111 481 l 1
 259 481 l 1
 259 444 l 1
 111 444 l 1
370 444 m 1
 370 481 l 1
 444 481 l 1
 444 444 l 1
 370 444 l 1
148 407 m 1
 148 444 l 1
 296 444 l 1
 296 407 l 1
 148 407 l 1
333 407 m 1
 333 444 l 1
 407 444 l 1
 407 407 l 1
 333 407 l 1
185 370 m 1
 185 407 l 1
 407 407 l 1
 407 370 l 1
 185 370 l 1
185 333 m 1
 185 370 l 1
 370 370 l 1
 370 333 l 1
 185 333 l 1
222 296 m 1
 222 333 l 1
 333 333 l 1
 333 296 l 1
 222 296 l 1
222 259 m 1
 222 296 l 1
 333 296 l 1
 333 259 l 1
 222 259 l 1
222 222 m 1
 222 259 l 1
 333 259 l 1
 333 222 l 1
 222 222 l 1
222 185 m 1
 222 222 l 1
 333 222 l 1
 333 185 l 1
 222 185 l 1
222 148 m 1
 222 185 l 1
 333 185 l 1
 333 148 l 1
 222 148 l 1
222 111 m 1
 222 148 l 1
 333 148 l 1
 333 111 l 1
 222 111 l 1
222 74 m 1
 222 111 l 1
 333 111 l 1
 333 74 l 1
 222 74 l 1
222 37 m 1
 222 74 l 1
 333 74 l 1
 333 37 l 1
 222 37 l 1
222 0 m 1
 222 37 l 1
 333 37 l 1
 333 0 l 1
 222 0 l 1
EndSplineSet
EndChar

StartChar: Z
Encoding: 90 90 59
Width: 593
Flags: HW
LayerCount: 2
Back
Fore
SplineSet
74 667 m 1
 74 704 l 1
 519 704 l 1
 519 667 l 1
 74 667 l 1
74 630 m 1
 74 667 l 1
 519 667 l 1
 519 630 l 1
 74 630 l 1
370 593 m 1
 370 630 l 1
 519 630 l 1
 519 593 l 1
 370 593 l 1
370 556 m 1
 370 593 l 1
 481 593 l 1
 481 556 l 1
 370 556 l 1
333 519 m 1
 333 556 l 1
 481 556 l 1
 481 519 l 1
 333 519 l 1
296 481 m 1
 296 519 l 1
 444 519 l 1
 444 481 l 1
 296 481 l 1
296 444 m 1
 296 481 l 1
 407 481 l 1
 407 444 l 1
 296 444 l 1
259 407 m 1
 259 444 l 1
 407 444 l 1
 407 407 l 1
 259 407 l 1
222 370 m 1
 222 407 l 1
 370 407 l 1
 370 370 l 1
 222 370 l 1
222 333 m 1
 222 370 l 1
 333 370 l 1
 333 333 l 1
 222 333 l 1
185 296 m 1
 185 333 l 1
 333 333 l 1
 333 296 l 1
 185 296 l 1
148 259 m 1
 148 296 l 1
 296 296 l 1
 296 259 l 1
 148 259 l 1
148 222 m 1
 148 259 l 1
 259 259 l 1
 259 222 l 1
 148 222 l 1
111 185 m 1
 111 222 l 1
 259 222 l 1
 259 185 l 1
 111 185 l 1
74 148 m 1
 74 185 l 1
 222 185 l 1
 222 148 l 1
 74 148 l 1
74 111 m 1
 74 148 l 1
 185 148 l 1
 185 111 l 1
 74 111 l 1
37 74 m 1
 37 111 l 1
 185 111 l 1
 185 74 l 1
 37 74 l 1
37 37 m 1
 37 74 l 1
 519 74 l 1
 519 37 l 1
 37 37 l 1
37 0 m 1
 37 37 l 1
 519 37 l 1
 519 0 l 1
 37 0 l 1
EndSplineSet
EndChar

StartChar: bracketleft
Encoding: 91 91 60
Width: 593
Flags: HW
LayerCount: 2
Back
Fore
SplineSet
222 667 m 1
 222 704 l 1
 519 704 l 1
 519 667 l 1
 222 667 l 1
222 630 m 1
 222 667 l 1
 519 667 l 1
 519 630 l 1
 222 630 l 1
222 593 m 1
 222 630 l 1
 296 630 l 1
 296 593 l 1
 222 593 l 1
222 556 m 1
 222 593 l 1
 296 593 l 1
 296 556 l 1
 222 556 l 1
222 519 m 1
 222 556 l 1
 296 556 l 1
 296 519 l 1
 222 519 l 1
222 481 m 1
 222 519 l 1
 296 519 l 1
 296 481 l 1
 222 481 l 1
222 444 m 1
 222 481 l 1
 296 481 l 1
 296 444 l 1
 222 444 l 1
222 407 m 1
 222 444 l 1
 296 444 l 1
 296 407 l 1
 222 407 l 1
222 370 m 1
 222 407 l 1
 296 407 l 1
 296 370 l 1
 222 370 l 1
222 333 m 1
 222 370 l 1
 296 370 l 1
 296 333 l 1
 222 333 l 1
222 296 m 1
 222 333 l 1
 296 333 l 1
 296 296 l 1
 222 296 l 1
222 259 m 1
 222 296 l 1
 296 296 l 1
 296 259 l 1
 222 259 l 1
222 222 m 1
 222 259 l 1
 296 259 l 1
 296 222 l 1
 222 222 l 1
222 185 m 1
 222 222 l 1
 296 222 l 1
 296 185 l 1
 222 185 l 1
222 148 m 1
 222 185 l 1
 296 185 l 1
 296 148 l 1
 222 148 l 1
222 111 m 1
 222 148 l 1
 296 148 l 1
 296 111 l 1
 222 111 l 1
222 74 m 1
 222 111 l 1
 296 111 l 1
 296 74 l 1
 222 74 l 1
222 37 m 1
 222 74 l 1
 296 74 l 1
 296 37 l 1
 222 37 l 1
222 0 m 1
 222 37 l 1
 296 37 l 1
 296 0 l 1
 222 0 l 1
222 -37 m 1
 222 0 l 1
 296 0 l 1
 296 -37 l 1
 222 -37 l 1
222 -74 m 1
 222 -37 l 1
 296 -37 l 1
 296 -74 l 1
 222 -74 l 1
222 -111 m 1
 222 -74 l 1
 519 -74 l 1
 519 -111 l 1
 222 -111 l 1
222 -148 m 1
 222 -111 l 1
 519 -111 l 1
 519 -148 l 1
 222 -148 l 1
EndSplineSet
EndChar

StartChar: backslash
Encoding: 92 92 61
Width: 593
Flags: HW
LayerCount: 2
Back
Fore
SplineSet
37 667 m 1
 37 704 l 1
 111 704 l 1
 111 667 l 1
 37 667 l 1
74 630 m 1
 74 667 l 1
 148 667 l 1
 148 630 l 1
 74 630 l 1
74 593 m 1
 74 630 l 1
 148 630 l 1
 148 593 l 1
 74 593 l 1
111 556 m 1
 111 593 l 1
 185 593 l 1
 185 556 l 1
 111 556 l 1
111 519 m 1
 111 556 l 1
 222 556 l 1
 222 519 l 1
 111 519 l 1
148 481 m 1
 148 519 l 1
 222 519 l 1
 222 481 l 1
 148 481 l 1
148 444 m 1
 148 481 l 1
 259 481 l 1
 259 444 l 1
 148 444 l 1
185 407 m 1
 185 444 l 1
 259 444 l 1
 259 407 l 1
 185 407 l 1
185 370 m 1
 185 407 l 1
 296 407 l 1
 296 370 l 1
 185 370 l 1
222 333 m 1
 222 370 l 1
 296 370 l 1
 296 333 l 1
 222 333 l 1
222 296 m 1
 222 333 l 1
 333 333 l 1
 333 296 l 1
 222 296 l 1
259 259 m 1
 259 296 l 1
 333 296 l 1
 333 259 l 1
 259 259 l 1
259 222 m 1
 259 259 l 1
 370 259 l 1
 370 222 l 1
 259 222 l 1
296 185 m 1
 296 222 l 1
 370 222 l 1
 370 185 l 1
 296 185 l 1
296 148 m 1
 296 185 l 1
 407 185 l 1
 407 148 l 1
 296 148 l 1
333 111 m 1
 333 148 l 1
 407 148 l 1
 407 111 l 1
 333 111 l 1
333 74 m 1
 333 111 l 1
 444 111 l 1
 444 74 l 1
 333 74 l 1
370 37 m 1
 370 74 l 1
 444 74 l 1
 444 37 l 1
 370 37 l 1
370 0 m 1
 370 37 l 1
 481 37 l 1
 481 0 l 1
 370 0 l 1
407 -37 m 1
 407 0 l 1
 481 0 l 1
 481 -37 l 1
 407 -37 l 1
444 -74 m 1
 444 -37 l 1
 519 -37 l 1
 519 -74 l 1
 444 -74 l 1
444 -111 m 1
 444 -74 l 1
 519 -74 l 1
 519 -111 l 1
 444 -111 l 1
481 -148 m 1
 481 -111 l 1
 556 -111 l 1
 556 -148 l 1
 481 -148 l 1
EndSplineSet
EndChar

StartChar: bracketright
Encoding: 93 93 62
Width: 593
Flags: HW
LayerCount: 2
Back
Fore
SplineSet
74 667 m 1
 74 704 l 1
 370 704 l 1
 370 667 l 1
 74 667 l 1
74 630 m 1
 74 667 l 1
 370 667 l 1
 370 630 l 1
 74 630 l 1
296 593 m 1
 296 630 l 1
 370 630 l 1
 370 593 l 1
 296 593 l 1
296 556 m 1
 296 593 l 1
 370 593 l 1
 370 556 l 1
 296 556 l 1
296 519 m 1
 296 556 l 1
 370 556 l 1
 370 519 l 1
 296 519 l 1
296 481 m 1
 296 519 l 1
 370 519 l 1
 370 481 l 1
 296 481 l 1
296 444 m 1
 296 481 l 1
 370 481 l 1
 370 444 l 1
 296 444 l 1
296 407 m 1
 296 444 l 1
 370 444 l 1
 370 407 l 1
 296 407 l 1
296 370 m 1
 296 407 l 1
 370 407 l 1
 370 370 l 1
 296 370 l 1
296 333 m 1
 296 370 l 1
 370 370 l 1
 370 333 l 1
 296 333 l 1
296 296 m 1
 296 333 l 1
 370 333 l 1
 370 296 l 1
 296 296 l 1
296 259 m 1
 296 296 l 1
 370 296 l 1
 370 259 l 1
 296 259 l 1
296 222 m 1
 296 259 l 1
 370 259 l 1
 370 222 l 1
 296 222 l 1
296 185 m 1
 296 222 l 1
 370 222 l 1
 370 185 l 1
 296 185 l 1
296 148 m 1
 296 185 l 1
 370 185 l 1
 370 148 l 1
 296 148 l 1
296 111 m 1
 296 148 l 1
 370 148 l 1
 370 111 l 1
 296 111 l 1
296 74 m 1
 296 111 l 1
 370 111 l 1
 370 74 l 1
 296 74 l 1
296 37 m 1
 296 74 l 1
 370 74 l 1
 370 37 l 1
 296 37 l 1
296 0 m 1
 296 37 l 1
 370 37 l 1
 370 0 l 1
 296 0 l 1
296 -37 m 1
 296 0 l 1
 370 0 l 1
 370 -37 l 1
 296 -37 l 1
296 -74 m 1
 296 -37 l 1
 370 -37 l 1
 370 -74 l 1
 296 -74 l 1
74 -111 m 1
 74 -74 l 1
 370 -74 l 1
 370 -111 l 1
 74 -111 l 1
74 -148 m 1
 74 -111 l 1
 370 -111 l 1
 370 -148 l 1
 74 -148 l 1
EndSplineSet
EndChar

StartChar: asciicircum
Encoding: 94 94 63
Width: 593
Flags: HW
LayerCount: 2
Back
Fore
SplineSet
259 667 m 1
 259 704 l 1
 296 704 l 1
 296 667 l 1
 259 667 l 1
259 630 m 1
 259 667 l 1
 296 667 l 1
 296 630 l 1
 259 630 l 1
222 593 m 1
 222 630 l 1
 333 630 l 1
 333 593 l 1
 222 593 l 1
222 556 m 1
 222 593 l 1
 333 593 l 1
 333 556 l 1
 222 556 l 1
185 519 m 1
 185 556 l 1
 370 556 l 1
 370 519 l 1
 185 519 l 1
185 481 m 1
 185 519 l 1
 259 519 l 1
 259 481 l 1
 185 481 l 1
296 481 m 1
 296 519 l 1
 370 519 l 1
 370 481 l 1
 296 481 l 1
185 444 m 1
 185 481 l 1
 259 481 l 1
 259 444 l 1
 185 444 l 1
296 444 m 1
 296 481 l 1
 370 481 l 1
 370 444 l 1
 296 444 l 1
148 407 m 1
 148 444 l 1
 222 444 l 1
 222 407 l 1
 148 407 l 1
333 407 m 1
 333 444 l 1
 407 444 l 1
 407 407 l 1
 333 407 l 1
148 370 m 1
 148 407 l 1
 222 407 l 1
 222 370 l 1
 148 370 l 1
333 370 m 1
 333 407 l 1
 407 407 l 1
 407 370 l 1
 333 370 l 1
111 333 m 1
 111 370 l 1
 185 370 l 1
 185 333 l 1
 111 333 l 1
370 333 m 1
 370 370 l 1
 444 370 l 1
 444 333 l 1
 370 333 l 1
111 296 m 1
 111 333 l 1
 185 333 l 1
 185 296 l 1
 111 296 l 1
370 296 m 1
 370 333 l 1
 444 333 l 1
 444 296 l 1
 370 296 l 1
74 259 m 1
 74 296 l 1
 185 296 l 1
 185 259 l 1
 74 259 l 1
370 259 m 1
 370 296 l 1
 481 296 l 1
 481 259 l 1
 370 259 l 1
74 222 m 1
 74 259 l 1
 148 259 l 1
 148 222 l 1
 74 222 l 1
407 222 m 1
 407 259 l 1
 481 259 l 1
 481 222 l 1
 407 222 l 1
74 185 m 1
 74 222 l 1
 148 222 l 1
 148 185 l 1
 74 185 l 1
407 185 m 1
 407 222 l 1
 481 222 l 1
 481 185 l 1
 407 185 l 1
37 148 m 1
 37 185 l 1
 111 185 l 1
 111 148 l 1
 37 148 l 1
444 148 m 1
 444 185 l 1
 519 185 l 1
 519 148 l 1
 444 148 l 1
EndSplineSet
EndChar

StartChar: underscore
Encoding: 95 95 64
Width: 593
Flags: HW
LayerCount: 2
Back
Fore
SplineSet
0 -37 m 1
 0 0 l 1
 593 0 l 1
 593 -37 l 1
 0 -37 l 1
0 -74 m 1
 0 -37 l 1
 593 -37 l 1
 593 -74 l 1
 0 -74 l 1
EndSplineSet
EndChar

StartChar: grave
Encoding: 96 96 65
Width: 593
Flags: HW
LayerCount: 2
Back
Fore
SplineSet
185 667 m 1
 185 704 l 1
 296 704 l 1
 296 667 l 1
 185 667 l 1
222 630 m 1
 222 667 l 1
 333 667 l 1
 333 630 l 1
 222 630 l 1
259 593 m 1
 259 630 l 1
 370 630 l 1
 370 593 l 1
 259 593 l 1
296 556 m 1
 296 593 l 1
 407 593 l 1
 407 556 l 1
 296 556 l 1
EndSplineSet
EndChar

StartChar: a
Encoding: 97 97 66
Width: 593
Flags: HW
LayerCount: 2
Back
Fore
SplineSet
185 481 m 1
 185 519 l 1
 407 519 l 1
 407 481 l 1
 185 481 l 1
111 444 m 1
 111 481 l 1
 444 481 l 1
 444 444 l 1
 111 444 l 1
111 407 m 1
 111 444 l 1
 148 444 l 1
 148 407 l 1
 111 407 l 1
333 407 m 1
 333 444 l 1
 481 444 l 1
 481 407 l 1
 333 407 l 1
370 370 m 1
 370 407 l 1
 481 407 l 1
 481 370 l 1
 370 370 l 1
370 333 m 1
 370 370 l 1
 481 370 l 1
 481 333 l 1
 370 333 l 1
370 296 m 1
 370 333 l 1
 481 333 l 1
 481 296 l 1
 370 296 l 1
185 259 m 1
 185 296 l 1
 481 296 l 1
 481 259 l 1
 185 259 l 1
111 222 m 1
 111 259 l 1
 481 259 l 1
 481 222 l 1
 111 222 l 1
111 185 m 1
 111 222 l 1
 222 222 l 1
 222 185 l 1
 111 185 l 1
370 185 m 1
 370 222 l 1
 481 222 l 1
 481 185 l 1
 370 185 l 1
74 148 m 1
 74 185 l 1
 185 185 l 1
 185 148 l 1
 74 148 l 1
370 148 m 1
 370 185 l 1
 481 185 l 1
 481 148 l 1
 370 148 l 1
74 111 m 1
 74 148 l 1
 185 148 l 1
 185 111 l 1
 74 111 l 1
370 111 m 1
 370 148 l 1
 481 148 l 1
 481 111 l 1
 370 111 l 1
74 74 m 1
 74 111 l 1
 222 111 l 1
 222 74 l 1
 74 74 l 1
333 74 m 1
 333 111 l 1
 481 111 l 1
 481 74 l 1
 333 74 l 1
111 37 m 1
 111 74 l 1
 370 74 l 1
 370 37 l 1
 111 37 l 1
407 37 m 1
 407 74 l 1
 556 74 l 1
 556 37 l 1
 407 37 l 1
148 0 m 1
 148 37 l 1
 333 37 l 1
 333 0 l 1
 148 0 l 1
407 0 m 1
 407 37 l 1
 556 37 l 1
 556 0 l 1
 407 0 l 1
EndSplineSet
EndChar

StartChar: b
Encoding: 98 98 67
Width: 593
Flags: HW
LayerCount: 2
Back
Fore
SplineSet
74 667 m 1
 74 704 l 1
 185 704 l 1
 185 667 l 1
 74 667 l 1
74 630 m 1
 74 667 l 1
 185 667 l 1
 185 630 l 1
 74 630 l 1
74 593 m 1
 74 630 l 1
 185 630 l 1
 185 593 l 1
 74 593 l 1
74 556 m 1
 74 593 l 1
 185 593 l 1
 185 556 l 1
 74 556 l 1
74 519 m 1
 74 556 l 1
 185 556 l 1
 185 519 l 1
 74 519 l 1
74 481 m 1
 74 519 l 1
 185 519 l 1
 185 481 l 1
 74 481 l 1
259 481 m 1
 259 519 l 1
 407 519 l 1
 407 481 l 1
 259 481 l 1
74 444 m 1
 74 481 l 1
 185 481 l 1
 185 444 l 1
 74 444 l 1
222 444 m 1
 222 481 l 1
 481 481 l 1
 481 444 l 1
 222 444 l 1
74 407 m 1
 74 444 l 1
 259 444 l 1
 259 407 l 1
 74 407 l 1
370 407 m 1
 370 444 l 1
 481 444 l 1
 481 407 l 1
 370 407 l 1
74 370 m 1
 74 407 l 1
 222 407 l 1
 222 370 l 1
 74 370 l 1
370 370 m 1
 370 407 l 1
 519 407 l 1
 519 370 l 1
 370 370 l 1
74 333 m 1
 74 370 l 1
 185 370 l 1
 185 333 l 1
 74 333 l 1
407 333 m 1
 407 370 l 1
 519 370 l 1
 519 333 l 1
 407 333 l 1
74 296 m 1
 74 333 l 1
 185 333 l 1
 185 296 l 1
 74 296 l 1
407 296 m 1
 407 333 l 1
 519 333 l 1
 519 296 l 1
 407 296 l 1
74 259 m 1
 74 296 l 1
 185 296 l 1
 185 259 l 1
 74 259 l 1
407 259 m 1
 407 296 l 1
 519 296 l 1
 519 259 l 1
 407 259 l 1
74 222 m 1
 74 259 l 1
 185 259 l 1
 185 222 l 1
 74 222 l 1
407 222 m 1
 407 259 l 1
 519 259 l 1
 519 222 l 1
 407 222 l 1
74 185 m 1
 74 222 l 1
 185 222 l 1
 185 185 l 1
 74 185 l 1
407 185 m 1
 407 222 l 1
 519 222 l 1
 519 185 l 1
 407 185 l 1
74 148 m 1
 74 185 l 1
 185 185 l 1
 185 148 l 1
 74 148 l 1
407 148 m 1
 407 185 l 1
 519 185 l 1
 519 148 l 1
 407 148 l 1
74 111 m 1
 74 148 l 1
 185 148 l 1
 185 111 l 1
 74 111 l 1
370 111 m 1
 370 148 l 1
 481 148 l 1
 481 111 l 1
 370 111 l 1
74 74 m 1
 74 111 l 1
 222 111 l 1
 222 74 l 1
 74 74 l 1
333 74 m 1
 333 111 l 1
 481 111 l 1
 481 74 l 1
 333 74 l 1
74 37 m 1
 74 74 l 1
 148 74 l 1
 148 37 l 1
 74 37 l 1
185 37 m 1
 185 74 l 1
 444 74 l 1
 444 37 l 1
 185 37 l 1
74 0 m 1
 74 37 l 1
 148 37 l 1
 148 0 l 1
 74 0 l 1
222 0 m 1
 222 37 l 1
 407 37 l 1
 407 0 l 1
 222 0 l 1
EndSplineSet
EndChar

StartChar: c
Encoding: 99 99 68
Width: 593
Flags: HW
LayerCount: 2
Back
Fore
SplineSet
222 481 m 1
 222 519 l 1
 481 519 l 1
 481 481 l 1
 222 481 l 1
148 444 m 1
 148 481 l 1
 519 481 l 1
 519 444 l 1
 148 444 l 1
111 407 m 1
 111 444 l 1
 259 444 l 1
 259 407 l 1
 111 407 l 1
444 407 m 1
 444 444 l 1
 519 444 l 1
 519 407 l 1
 444 407 l 1
111 370 m 1
 111 407 l 1
 222 407 l 1
 222 370 l 1
 111 370 l 1
74 333 m 1
 74 370 l 1
 185 370 l 1
 185 333 l 1
 74 333 l 1
74 296 m 1
 74 333 l 1
 185 333 l 1
 185 296 l 1
 74 296 l 1
74 259 m 1
 74 296 l 1
 185 296 l 1
 185 259 l 1
 74 259 l 1
74 222 m 1
 74 259 l 1
 185 259 l 1
 185 222 l 1
 74 222 l 1
74 185 m 1
 74 222 l 1
 185 222 l 1
 185 185 l 1
 74 185 l 1
74 148 m 1
 74 185 l 1
 222 185 l 1
 222 148 l 1
 74 148 l 1
111 111 m 1
 111 148 l 1
 222 148 l 1
 222 111 l 1
 111 111 l 1
111 74 m 1
 111 111 l 1
 296 111 l 1
 296 74 l 1
 111 74 l 1
481 74 m 1
 481 111 l 1
 519 111 l 1
 519 74 l 1
 481 74 l 1
148 37 m 1
 148 74 l 1
 519 74 l 1
 519 37 l 1
 148 37 l 1
222 0 m 1
 222 37 l 1
 481 37 l 1
 481 0 l 1
 222 0 l 1
EndSplineSet
EndChar

StartChar: d
Encoding: 100 100 69
Width: 593
Flags: HW
LayerCount: 2
Back
Fore
SplineSet
407 667 m 1
 407 704 l 1
 519 704 l 1
 519 667 l 1
 407 667 l 1
407 630 m 1
 407 667 l 1
 519 667 l 1
 519 630 l 1
 407 630 l 1
407 593 m 1
 407 630 l 1
 519 630 l 1
 519 593 l 1
 407 593 l 1
407 556 m 1
 407 593 l 1
 519 593 l 1
 519 556 l 1
 407 556 l 1
407 519 m 1
 407 556 l 1
 519 556 l 1
 519 519 l 1
 407 519 l 1
185 481 m 1
 185 519 l 1
 333 519 l 1
 333 481 l 1
 185 481 l 1
407 481 m 1
 407 519 l 1
 519 519 l 1
 519 481 l 1
 407 481 l 1
148 444 m 1
 148 481 l 1
 370 481 l 1
 370 444 l 1
 148 444 l 1
407 444 m 1
 407 481 l 1
 519 481 l 1
 519 444 l 1
 407 444 l 1
111 407 m 1
 111 444 l 1
 259 444 l 1
 259 407 l 1
 111 407 l 1
370 407 m 1
 370 444 l 1
 519 444 l 1
 519 407 l 1
 370 407 l 1
111 370 m 1
 111 407 l 1
 222 407 l 1
 222 370 l 1
 111 370 l 1
407 370 m 1
 407 407 l 1
 519 407 l 1
 519 370 l 1
 407 370 l 1
74 333 m 1
 74 370 l 1
 185 370 l 1
 185 333 l 1
 74 333 l 1
407 333 m 1
 407 370 l 1
 519 370 l 1
 519 333 l 1
 407 333 l 1
74 296 m 1
 74 333 l 1
 185 333 l 1
 185 296 l 1
 74 296 l 1
407 296 m 1
 407 333 l 1
 519 333 l 1
 519 296 l 1
 407 296 l 1
74 259 m 1
 74 296 l 1
 185 296 l 1
 185 259 l 1
 74 259 l 1
407 259 m 1
 407 296 l 1
 519 296 l 1
 519 259 l 1
 407 259 l 1
74 222 m 1
 74 259 l 1
 185 259 l 1
 185 222 l 1
 74 222 l 1
407 222 m 1
 407 259 l 1
 519 259 l 1
 519 222 l 1
 407 222 l 1
74 185 m 1
 74 222 l 1
 185 222 l 1
 185 185 l 1
 74 185 l 1
407 185 m 1
 407 222 l 1
 519 222 l 1
 519 185 l 1
 407 185 l 1
74 148 m 1
 74 185 l 1
 185 185 l 1
 185 148 l 1
 74 148 l 1
407 148 m 1
 407 185 l 1
 519 185 l 1
 519 148 l 1
 407 148 l 1
74 111 m 1
 74 148 l 1
 222 148 l 1
 222 111 l 1
 74 111 l 1
370 111 m 1
 370 148 l 1
 519 148 l 1
 519 111 l 1
 370 111 l 1
111 74 m 1
 111 111 l 1
 222 111 l 1
 222 74 l 1
 111 74 l 1
333 74 m 1
 333 111 l 1
 519 111 l 1
 519 74 l 1
 333 74 l 1
111 37 m 1
 111 74 l 1
 370 74 l 1
 370 37 l 1
 111 37 l 1
407 37 m 1
 407 74 l 1
 519 74 l 1
 519 37 l 1
 407 37 l 1
185 0 m 1
 185 37 l 1
 333 37 l 1
 333 0 l 1
 185 0 l 1
407 0 m 1
 407 37 l 1
 519 37 l 1
 519 0 l 1
 407 0 l 1
EndSplineSet
EndChar

StartChar: e
Encoding: 101 101 70
Width: 593
Flags: HW
LayerCount: 2
Back
Fore
SplineSet
222 481 m 1
 222 519 l 1
 407 519 l 1
 407 481 l 1
 222 481 l 1
148 444 m 1
 148 481 l 1
 481 481 l 1
 481 444 l 1
 148 444 l 1
111 407 m 1
 111 444 l 1
 259 444 l 1
 259 407 l 1
 111 407 l 1
370 407 m 1
 370 444 l 1
 481 444 l 1
 481 407 l 1
 370 407 l 1
111 370 m 1
 111 407 l 1
 222 407 l 1
 222 370 l 1
 111 370 l 1
407 370 m 1
 407 407 l 1
 519 407 l 1
 519 370 l 1
 407 370 l 1
74 333 m 1
 74 370 l 1
 185 370 l 1
 185 333 l 1
 74 333 l 1
407 333 m 1
 407 370 l 1
 519 370 l 1
 519 333 l 1
 407 333 l 1
74 296 m 1
 74 333 l 1
 185 333 l 1
 185 296 l 1
 74 296 l 1
407 296 m 1
 407 333 l 1
 519 333 l 1
 519 296 l 1
 407 296 l 1
74 259 m 1
 74 296 l 1
 519 296 l 1
 519 259 l 1
 74 259 l 1
74 222 m 1
 74 259 l 1
 519 259 l 1
 519 222 l 1
 74 222 l 1
74 185 m 1
 74 222 l 1
 185 222 l 1
 185 185 l 1
 74 185 l 1
74 148 m 1
 74 185 l 1
 185 185 l 1
 185 148 l 1
 74 148 l 1
111 111 m 1
 111 148 l 1
 222 148 l 1
 222 111 l 1
 111 111 l 1
111 74 m 1
 111 111 l 1
 259 111 l 1
 259 74 l 1
 111 74 l 1
481 74 m 1
 481 111 l 1
 519 111 l 1
 519 74 l 1
 481 74 l 1
148 37 m 1
 148 74 l 1
 519 74 l 1
 519 37 l 1
 148 37 l 1
222 0 m 1
 222 37 l 1
 481 37 l 1
 481 0 l 1
 222 0 l 1
EndSplineSet
EndChar

StartChar: f
Encoding: 102 102 71
Width: 593
Flags: HW
LayerCount: 2
Back
Fore
SplineSet
296 704 m 1
 296 741 l 1
 556 741 l 1
 556 704 l 1
 296 704 l 1
259 667 m 1
 259 704 l 1
 593 704 l 1
 593 667 l 1
 259 667 l 1
222 630 m 1
 222 667 l 1
 370 667 l 1
 370 630 l 1
 222 630 l 1
556 630 m 1
 556 667 l 1
 593 667 l 1
 593 630 l 1
 556 630 l 1
222 593 m 1
 222 630 l 1
 333 630 l 1
 333 593 l 1
 222 593 l 1
222 556 m 1
 222 593 l 1
 333 593 l 1
 333 556 l 1
 222 556 l 1
222 519 m 1
 222 556 l 1
 333 556 l 1
 333 519 l 1
 222 519 l 1
74 481 m 1
 74 519 l 1
 556 519 l 1
 556 481 l 1
 74 481 l 1
74 444 m 1
 74 481 l 1
 556 481 l 1
 556 444 l 1
 74 444 l 1
222 407 m 1
 222 444 l 1
 333 444 l 1
 333 407 l 1
 222 407 l 1
222 370 m 1
 222 407 l 1
 333 407 l 1
 333 370 l 1
 222 370 l 1
222 333 m 1
 222 370 l 1
 333 370 l 1
 333 333 l 1
 222 333 l 1
222 296 m 1
 222 333 l 1
 333 333 l 1
 333 296 l 1
 222 296 l 1
222 259 m 1
 222 296 l 1
 333 296 l 1
 333 259 l 1
 222 259 l 1
222 222 m 1
 222 259 l 1
 333 259 l 1
 333 222 l 1
 222 222 l 1
222 185 m 1
 222 222 l 1
 333 222 l 1
 333 185 l 1
 222 185 l 1
222 148 m 1
 222 185 l 1
 333 185 l 1
 333 148 l 1
 222 148 l 1
222 111 m 1
 222 148 l 1
 333 148 l 1
 333 111 l 1
 222 111 l 1
222 74 m 1
 222 111 l 1
 333 111 l 1
 333 74 l 1
 222 74 l 1
222 37 m 1
 222 74 l 1
 333 74 l 1
 333 37 l 1
 222 37 l 1
222 0 m 1
 222 37 l 1
 333 37 l 1
 333 0 l 1
 222 0 l 1
EndSplineSet
EndChar

StartChar: g
Encoding: 103 103 72
Width: 593
Flags: HW
LayerCount: 2
Back
Fore
SplineSet
222 481 m 1
 222 519 l 1
 370 519 l 1
 370 481 l 1
 222 481 l 1
444 481 m 1
 444 519 l 1
 519 519 l 1
 519 481 l 1
 444 481 l 1
148 444 m 1
 148 481 l 1
 407 481 l 1
 407 444 l 1
 148 444 l 1
444 444 m 1
 444 481 l 1
 519 481 l 1
 519 444 l 1
 444 444 l 1
111 407 m 1
 111 444 l 1
 259 444 l 1
 259 407 l 1
 111 407 l 1
370 407 m 1
 370 444 l 1
 519 444 l 1
 519 407 l 1
 370 407 l 1
111 370 m 1
 111 407 l 1
 222 407 l 1
 222 370 l 1
 111 370 l 1
407 370 m 1
 407 407 l 1
 519 407 l 1
 519 370 l 1
 407 370 l 1
74 333 m 1
 74 370 l 1
 185 370 l 1
 185 333 l 1
 74 333 l 1
407 333 m 1
 407 370 l 1
 519 370 l 1
 519 333 l 1
 407 333 l 1
74 296 m 1
 74 333 l 1
 185 333 l 1
 185 296 l 1
 74 296 l 1
407 296 m 1
 407 333 l 1
 519 333 l 1
 519 296 l 1
 407 296 l 1
74 259 m 1
 74 296 l 1
 185 296 l 1
 185 259 l 1
 74 259 l 1
407 259 m 1
 407 296 l 1
 519 296 l 1
 519 259 l 1
 407 259 l 1
74 222 m 1
 74 259 l 1
 185 259 l 1
 185 222 l 1
 74 222 l 1
407 222 m 1
 407 259 l 1
 519 259 l 1
 519 222 l 1
 407 222 l 1
74 185 m 1
 74 222 l 1
 185 222 l 1
 185 185 l 1
 74 185 l 1
407 185 m 1
 407 222 l 1
 519 222 l 1
 519 185 l 1
 407 185 l 1
74 148 m 1
 74 185 l 1
 185 185 l 1
 185 148 l 1
 74 148 l 1
407 148 m 1
 407 185 l 1
 519 185 l 1
 519 148 l 1
 407 148 l 1
74 111 m 1
 74 148 l 1
 222 148 l 1
 222 111 l 1
 74 111 l 1
370 111 m 1
 370 148 l 1
 519 148 l 1
 519 111 l 1
 370 111 l 1
111 74 m 1
 111 111 l 1
 222 111 l 1
 222 74 l 1
 111 74 l 1
333 74 m 1
 333 111 l 1
 519 111 l 1
 519 74 l 1
 333 74 l 1
111 37 m 1
 111 74 l 1
 370 74 l 1
 370 37 l 1
 111 37 l 1
407 37 m 1
 407 74 l 1
 519 74 l 1
 519 37 l 1
 407 37 l 1
185 0 m 1
 185 37 l 1
 333 37 l 1
 333 0 l 1
 185 0 l 1
407 0 m 1
 407 37 l 1
 519 37 l 1
 519 0 l 1
 407 0 l 1
407 -37 m 1
 407 0 l 1
 519 0 l 1
 519 -37 l 1
 407 -37 l 1
407 -74 m 1
 407 -37 l 1
 481 -37 l 1
 481 -74 l 1
 407 -74 l 1
111 -111 m 1
 111 -74 l 1
 185 -74 l 1
 185 -111 l 1
 111 -111 l 1
370 -111 m 1
 370 -74 l 1
 481 -74 l 1
 481 -111 l 1
 370 -111 l 1
111 -148 m 1
 111 -111 l 1
 444 -111 l 1
 444 -148 l 1
 111 -148 l 1
148 -185 m 1
 148 -148 l 1
 407 -148 l 1
 407 -185 l 1
 148 -185 l 1
EndSplineSet
EndChar

StartChar: h
Encoding: 104 104 73
Width: 593
Flags: HW
LayerCount: 2
Back
Fore
SplineSet
74 667 m 1
 74 704 l 1
 185 704 l 1
 185 667 l 1
 74 667 l 1
74 630 m 1
 74 667 l 1
 185 667 l 1
 185 630 l 1
 74 630 l 1
74 593 m 1
 74 630 l 1
 185 630 l 1
 185 593 l 1
 74 593 l 1
74 556 m 1
 74 593 l 1
 185 593 l 1
 185 556 l 1
 74 556 l 1
74 519 m 1
 74 556 l 1
 185 556 l 1
 185 519 l 1
 74 519 l 1
74 481 m 1
 74 519 l 1
 185 519 l 1
 185 481 l 1
 74 481 l 1
296 481 m 1
 296 519 l 1
 407 519 l 1
 407 481 l 1
 296 481 l 1
74 444 m 1
 74 481 l 1
 185 481 l 1
 185 444 l 1
 74 444 l 1
222 444 m 1
 222 481 l 1
 444 481 l 1
 444 444 l 1
 222 444 l 1
74 407 m 1
 74 444 l 1
 185 444 l 1
 185 407 l 1
 74 407 l 1
222 407 m 1
 222 444 l 1
 481 444 l 1
 481 407 l 1
 222 407 l 1
74 370 m 1
 74 407 l 1
 259 407 l 1
 259 370 l 1
 74 370 l 1
370 370 m 1
 370 407 l 1
 481 407 l 1
 481 370 l 1
 370 370 l 1
74 333 m 1
 74 370 l 1
 222 370 l 1
 222 333 l 1
 74 333 l 1
370 333 m 1
 370 370 l 1
 481 370 l 1
 481 333 l 1
 370 333 l 1
74 296 m 1
 74 333 l 1
 185 333 l 1
 185 296 l 1
 74 296 l 1
370 296 m 1
 370 333 l 1
 481 333 l 1
 481 296 l 1
 370 296 l 1
74 259 m 1
 74 296 l 1
 185 296 l 1
 185 259 l 1
 74 259 l 1
370 259 m 1
 370 296 l 1
 481 296 l 1
 481 259 l 1
 370 259 l 1
74 222 m 1
 74 259 l 1
 185 259 l 1
 185 222 l 1
 74 222 l 1
370 222 m 1
 370 259 l 1
 481 259 l 1
 481 222 l 1
 370 222 l 1
74 185 m 1
 74 222 l 1
 185 222 l 1
 185 185 l 1
 74 185 l 1
370 185 m 1
 370 222 l 1
 481 222 l 1
 481 185 l 1
 370 185 l 1
74 148 m 1
 74 185 l 1
 185 185 l 1
 185 148 l 1
 74 148 l 1
370 148 m 1
 370 185 l 1
 481 185 l 1
 481 148 l 1
 370 148 l 1
74 111 m 1
 74 148 l 1
 185 148 l 1
 185 111 l 1
 74 111 l 1
370 111 m 1
 370 148 l 1
 481 148 l 1
 481 111 l 1
 370 111 l 1
74 74 m 1
 74 111 l 1
 185 111 l 1
 185 74 l 1
 74 74 l 1
370 74 m 1
 370 111 l 1
 481 111 l 1
 481 74 l 1
 370 74 l 1
74 37 m 1
 74 74 l 1
 185 74 l 1
 185 37 l 1
 74 37 l 1
370 37 m 1
 370 74 l 1
 481 74 l 1
 481 37 l 1
 370 37 l 1
74 0 m 1
 74 37 l 1
 185 37 l 1
 185 0 l 1
 74 0 l 1
370 0 m 1
 370 37 l 1
 481 37 l 1
 481 0 l 1
 370 0 l 1
EndSplineSet
EndChar

StartChar: i
Encoding: 105 105 74
Width: 593
Flags: HW
LayerCount: 2
Back
Fore
SplineSet
259 667 m 1
 259 704 l 1
 370 704 l 1
 370 667 l 1
 259 667 l 1
259 630 m 1
 259 667 l 1
 370 667 l 1
 370 630 l 1
 259 630 l 1
259 593 m 1
 259 630 l 1
 370 630 l 1
 370 593 l 1
 259 593 l 1
74 481 m 1
 74 519 l 1
 370 519 l 1
 370 481 l 1
 74 481 l 1
74 444 m 1
 74 481 l 1
 370 481 l 1
 370 444 l 1
 74 444 l 1
259 407 m 1
 259 444 l 1
 370 444 l 1
 370 407 l 1
 259 407 l 1
259 370 m 1
 259 407 l 1
 370 407 l 1
 370 370 l 1
 259 370 l 1
259 333 m 1
 259 370 l 1
 370 370 l 1
 370 333 l 1
 259 333 l 1
259 296 m 1
 259 333 l 1
 370 333 l 1
 370 296 l 1
 259 296 l 1
259 259 m 1
 259 296 l 1
 370 296 l 1
 370 259 l 1
 259 259 l 1
259 222 m 1
 259 259 l 1
 370 259 l 1
 370 222 l 1
 259 222 l 1
259 185 m 1
 259 222 l 1
 370 222 l 1
 370 185 l 1
 259 185 l 1
259 148 m 1
 259 185 l 1
 370 185 l 1
 370 148 l 1
 259 148 l 1
259 111 m 1
 259 148 l 1
 370 148 l 1
 370 111 l 1
 259 111 l 1
259 74 m 1
 259 111 l 1
 370 111 l 1
 370 74 l 1
 259 74 l 1
259 37 m 1
 259 74 l 1
 370 74 l 1
 370 37 l 1
 259 37 l 1
259 0 m 1
 259 37 l 1
 370 37 l 1
 370 0 l 1
 259 0 l 1
EndSplineSet
EndChar

StartChar: j
Encoding: 106 106 75
Width: 593
Flags: HW
LayerCount: 2
Back
Fore
SplineSet
333 667 m 1
 333 704 l 1
 444 704 l 1
 444 667 l 1
 333 667 l 1
333 630 m 1
 333 667 l 1
 444 667 l 1
 444 630 l 1
 333 630 l 1
333 593 m 1
 333 630 l 1
 444 630 l 1
 444 593 l 1
 333 593 l 1
111 481 m 1
 111 519 l 1
 444 519 l 1
 444 481 l 1
 111 481 l 1
111 444 m 1
 111 481 l 1
 444 481 l 1
 444 444 l 1
 111 444 l 1
333 407 m 1
 333 444 l 1
 444 444 l 1
 444 407 l 1
 333 407 l 1
333 370 m 1
 333 407 l 1
 444 407 l 1
 444 370 l 1
 333 370 l 1
333 333 m 1
 333 370 l 1
 444 370 l 1
 444 333 l 1
 333 333 l 1
333 296 m 1
 333 333 l 1
 444 333 l 1
 444 296 l 1
 333 296 l 1
333 259 m 1
 333 296 l 1
 444 296 l 1
 444 259 l 1
 333 259 l 1
333 222 m 1
 333 259 l 1
 444 259 l 1
 444 222 l 1
 333 222 l 1
333 185 m 1
 333 222 l 1
 444 222 l 1
 444 185 l 1
 333 185 l 1
333 148 m 1
 333 185 l 1
 444 185 l 1
 444 148 l 1
 333 148 l 1
333 111 m 1
 333 148 l 1
 444 148 l 1
 444 111 l 1
 333 111 l 1
333 74 m 1
 333 111 l 1
 444 111 l 1
 444 74 l 1
 333 74 l 1
333 37 m 1
 333 74 l 1
 444 74 l 1
 444 37 l 1
 333 37 l 1
333 0 m 1
 333 37 l 1
 444 37 l 1
 444 0 l 1
 333 0 l 1
333 -37 m 1
 333 0 l 1
 444 0 l 1
 444 -37 l 1
 333 -37 l 1
333 -74 m 1
 333 -37 l 1
 444 -37 l 1
 444 -74 l 1
 333 -74 l 1
74 -111 m 1
 74 -74 l 1
 111 -74 l 1
 111 -111 l 1
 74 -111 l 1
296 -111 m 1
 296 -74 l 1
 407 -74 l 1
 407 -111 l 1
 296 -111 l 1
74 -148 m 1
 74 -111 l 1
 407 -111 l 1
 407 -148 l 1
 74 -148 l 1
111 -185 m 1
 111 -148 l 1
 333 -148 l 1
 333 -185 l 1
 111 -185 l 1
EndSplineSet
EndChar

StartChar: k
Encoding: 107 107 76
Width: 593
Flags: HW
LayerCount: 2
Back
Fore
SplineSet
74 667 m 1
 74 704 l 1
 185 704 l 1
 185 667 l 1
 74 667 l 1
74 630 m 1
 74 667 l 1
 185 667 l 1
 185 630 l 1
 74 630 l 1
74 593 m 1
 74 630 l 1
 185 630 l 1
 185 593 l 1
 74 593 l 1
74 556 m 1
 74 593 l 1
 185 593 l 1
 185 556 l 1
 74 556 l 1
74 519 m 1
 74 556 l 1
 185 556 l 1
 185 519 l 1
 74 519 l 1
74 481 m 1
 74 519 l 1
 185 519 l 1
 185 481 l 1
 74 481 l 1
370 481 m 1
 370 519 l 1
 481 519 l 1
 481 481 l 1
 370 481 l 1
74 444 m 1
 74 481 l 1
 185 481 l 1
 185 444 l 1
 74 444 l 1
370 444 m 1
 370 481 l 1
 444 481 l 1
 444 444 l 1
 370 444 l 1
74 407 m 1
 74 444 l 1
 185 444 l 1
 185 407 l 1
 74 407 l 1
333 407 m 1
 333 444 l 1
 407 444 l 1
 407 407 l 1
 333 407 l 1
74 370 m 1
 74 407 l 1
 185 407 l 1
 185 370 l 1
 74 370 l 1
296 370 m 1
 296 407 l 1
 407 407 l 1
 407 370 l 1
 296 370 l 1
74 333 m 1
 74 370 l 1
 185 370 l 1
 185 333 l 1
 74 333 l 1
259 333 m 1
 259 370 l 1
 370 370 l 1
 370 333 l 1
 259 333 l 1
74 296 m 1
 74 333 l 1
 185 333 l 1
 185 296 l 1
 74 296 l 1
222 296 m 1
 222 333 l 1
 333 333 l 1
 333 296 l 1
 222 296 l 1
74 259 m 1
 74 296 l 1
 333 296 l 1
 333 259 l 1
 74 259 l 1
74 222 m 1
 74 259 l 1
 370 259 l 1
 370 222 l 1
 74 222 l 1
74 185 m 1
 74 222 l 1
 185 222 l 1
 185 185 l 1
 74 185 l 1
222 185 m 1
 222 222 l 1
 370 222 l 1
 370 185 l 1
 222 185 l 1
74 148 m 1
 74 185 l 1
 185 185 l 1
 185 148 l 1
 74 148 l 1
259 148 m 1
 259 185 l 1
 407 185 l 1
 407 148 l 1
 259 148 l 1
74 111 m 1
 74 148 l 1
 185 148 l 1
 185 111 l 1
 74 111 l 1
296 111 m 1
 296 148 l 1
 444 148 l 1
 444 111 l 1
 296 111 l 1
74 74 m 1
 74 111 l 1
 185 111 l 1
 185 74 l 1
 74 74 l 1
333 74 m 1
 333 111 l 1
 481 111 l 1
 481 74 l 1
 333 74 l 1
74 37 m 1
 74 74 l 1
 185 74 l 1
 185 37 l 1
 74 37 l 1
370 37 m 1
 370 74 l 1
 519 74 l 1
 519 37 l 1
 370 37 l 1
74 0 m 1
 74 37 l 1
 185 37 l 1
 185 0 l 1
 74 0 l 1
407 0 m 1
 407 37 l 1
 556 37 l 1
 556 0 l 1
 407 0 l 1
EndSplineSet
EndChar

StartChar: l
Encoding: 108 108 77
Width: 593
Flags: HW
LayerCount: 2
Back
Fore
SplineSet
74 667 m 1
 74 704 l 1
 370 704 l 1
 370 667 l 1
 74 667 l 1
74 630 m 1
 74 667 l 1
 370 667 l 1
 370 630 l 1
 74 630 l 1
259 593 m 1
 259 630 l 1
 370 630 l 1
 370 593 l 1
 259 593 l 1
259 556 m 1
 259 593 l 1
 370 593 l 1
 370 556 l 1
 259 556 l 1
259 519 m 1
 259 556 l 1
 370 556 l 1
 370 519 l 1
 259 519 l 1
259 481 m 1
 259 519 l 1
 370 519 l 1
 370 481 l 1
 259 481 l 1
259 444 m 1
 259 481 l 1
 370 481 l 1
 370 444 l 1
 259 444 l 1
259 407 m 1
 259 444 l 1
 370 444 l 1
 370 407 l 1
 259 407 l 1
259 370 m 1
 259 407 l 1
 370 407 l 1
 370 370 l 1
 259 370 l 1
259 333 m 1
 259 370 l 1
 370 370 l 1
 370 333 l 1
 259 333 l 1
259 296 m 1
 259 333 l 1
 370 333 l 1
 370 296 l 1
 259 296 l 1
259 259 m 1
 259 296 l 1
 370 296 l 1
 370 259 l 1
 259 259 l 1
259 222 m 1
 259 259 l 1
 370 259 l 1
 370 222 l 1
 259 222 l 1
259 185 m 1
 259 222 l 1
 370 222 l 1
 370 185 l 1
 259 185 l 1
259 148 m 1
 259 185 l 1
 370 185 l 1
 370 148 l 1
 259 148 l 1
259 111 m 1
 259 148 l 1
 370 148 l 1
 370 111 l 1
 259 111 l 1
259 74 m 1
 259 111 l 1
 370 111 l 1
 370 74 l 1
 259 74 l 1
259 37 m 1
 259 74 l 1
 370 74 l 1
 370 37 l 1
 259 37 l 1
259 0 m 1
 259 37 l 1
 370 37 l 1
 370 0 l 1
 259 0 l 1
EndSplineSet
EndChar

StartChar: m
Encoding: 109 109 78
Width: 593
Flags: HW
LayerCount: 2
Back
Fore
SplineSet
37 481 m 1
 37 519 l 1
 111 519 l 1
 111 481 l 1
 37 481 l 1
185 481 m 1
 185 519 l 1
 296 519 l 1
 296 481 l 1
 185 481 l 1
407 481 m 1
 407 519 l 1
 519 519 l 1
 519 481 l 1
 407 481 l 1
37 444 m 1
 37 481 l 1
 111 481 l 1
 111 444 l 1
 37 444 l 1
148 444 m 1
 148 481 l 1
 333 481 l 1
 333 444 l 1
 148 444 l 1
370 444 m 1
 370 481 l 1
 556 481 l 1
 556 444 l 1
 370 444 l 1
37 407 m 1
 37 444 l 1
 185 444 l 1
 185 407 l 1
 37 407 l 1
259 407 m 1
 259 444 l 1
 407 444 l 1
 407 407 l 1
 259 407 l 1
481 407 m 1
 481 444 l 1
 556 444 l 1
 556 407 l 1
 481 407 l 1
37 370 m 1
 37 407 l 1
 148 407 l 1
 148 370 l 1
 37 370 l 1
259 370 m 1
 259 407 l 1
 370 407 l 1
 370 370 l 1
 259 370 l 1
481 370 m 1
 481 407 l 1
 556 407 l 1
 556 370 l 1
 481 370 l 1
37 333 m 1
 37 370 l 1
 111 370 l 1
 111 333 l 1
 37 333 l 1
259 333 m 1
 259 370 l 1
 333 370 l 1
 333 333 l 1
 259 333 l 1
481 333 m 1
 481 370 l 1
 556 370 l 1
 556 333 l 1
 481 333 l 1
37 296 m 1
 37 333 l 1
 111 333 l 1
 111 296 l 1
 37 296 l 1
259 296 m 1
 259 333 l 1
 333 333 l 1
 333 296 l 1
 259 296 l 1
481 296 m 1
 481 333 l 1
 556 333 l 1
 556 296 l 1
 481 296 l 1
37 259 m 1
 37 296 l 1
 111 296 l 1
 111 259 l 1
 37 259 l 1
259 259 m 1
 259 296 l 1
 333 296 l 1
 333 259 l 1
 259 259 l 1
481 259 m 1
 481 296 l 1
 556 296 l 1
 556 259 l 1
 481 259 l 1
37 222 m 1
 37 259 l 1
 111 259 l 1
 111 222 l 1
 37 222 l 1
259 222 m 1
 259 259 l 1
 333 259 l 1
 333 222 l 1
 259 222 l 1
481 222 m 1
 481 259 l 1
 556 259 l 1
 556 222 l 1
 481 222 l 1
37 185 m 1
 37 222 l 1
 111 222 l 1
 111 185 l 1
 37 185 l 1
259 185 m 1
 259 222 l 1
 333 222 l 1
 333 185 l 1
 259 185 l 1
481 185 m 1
 481 222 l 1
 556 222 l 1
 556 185 l 1
 481 185 l 1
37 148 m 1
 37 185 l 1
 111 185 l 1
 111 148 l 1
 37 148 l 1
259 148 m 1
 259 185 l 1
 333 185 l 1
 333 148 l 1
 259 148 l 1
481 148 m 1
 481 185 l 1
 556 185 l 1
 556 148 l 1
 481 148 l 1
37 111 m 1
 37 148 l 1
 111 148 l 1
 111 111 l 1
 37 111 l 1
259 111 m 1
 259 148 l 1
 333 148 l 1
 333 111 l 1
 259 111 l 1
481 111 m 1
 481 148 l 1
 556 148 l 1
 556 111 l 1
 481 111 l 1
37 74 m 1
 37 111 l 1
 111 111 l 1
 111 74 l 1
 37 74 l 1
259 74 m 1
 259 111 l 1
 333 111 l 1
 333 74 l 1
 259 74 l 1
481 74 m 1
 481 111 l 1
 556 111 l 1
 556 74 l 1
 481 74 l 1
37 37 m 1
 37 74 l 1
 111 74 l 1
 111 37 l 1
 37 37 l 1
259 37 m 1
 259 74 l 1
 333 74 l 1
 333 37 l 1
 259 37 l 1
481 37 m 1
 481 74 l 1
 556 74 l 1
 556 37 l 1
 481 37 l 1
37 0 m 1
 37 37 l 1
 111 37 l 1
 111 0 l 1
 37 0 l 1
259 0 m 1
 259 37 l 1
 333 37 l 1
 333 0 l 1
 259 0 l 1
481 0 m 1
 481 37 l 1
 556 37 l 1
 556 0 l 1
 481 0 l 1
EndSplineSet
EndChar

StartChar: n
Encoding: 110 110 79
Width: 593
Flags: HW
LayerCount: 2
Back
Fore
SplineSet
74 481 m 1
 74 519 l 1
 185 519 l 1
 185 481 l 1
 74 481 l 1
296 481 m 1
 296 519 l 1
 407 519 l 1
 407 481 l 1
 296 481 l 1
74 444 m 1
 74 481 l 1
 185 481 l 1
 185 444 l 1
 74 444 l 1
222 444 m 1
 222 481 l 1
 444 481 l 1
 444 444 l 1
 222 444 l 1
74 407 m 1
 74 444 l 1
 185 444 l 1
 185 407 l 1
 74 407 l 1
222 407 m 1
 222 444 l 1
 481 444 l 1
 481 407 l 1
 222 407 l 1
74 370 m 1
 74 407 l 1
 259 407 l 1
 259 370 l 1
 74 370 l 1
370 370 m 1
 370 407 l 1
 481 407 l 1
 481 370 l 1
 370 370 l 1
74 333 m 1
 74 370 l 1
 222 370 l 1
 222 333 l 1
 74 333 l 1
370 333 m 1
 370 370 l 1
 481 370 l 1
 481 333 l 1
 370 333 l 1
74 296 m 1
 74 333 l 1
 185 333 l 1
 185 296 l 1
 74 296 l 1
370 296 m 1
 370 333 l 1
 481 333 l 1
 481 296 l 1
 370 296 l 1
74 259 m 1
 74 296 l 1
 185 296 l 1
 185 259 l 1
 74 259 l 1
370 259 m 1
 370 296 l 1
 481 296 l 1
 481 259 l 1
 370 259 l 1
74 222 m 1
 74 259 l 1
 185 259 l 1
 185 222 l 1
 74 222 l 1
370 222 m 1
 370 259 l 1
 481 259 l 1
 481 222 l 1
 370 222 l 1
74 185 m 1
 74 222 l 1
 185 222 l 1
 185 185 l 1
 74 185 l 1
370 185 m 1
 370 222 l 1
 481 222 l 1
 481 185 l 1
 370 185 l 1
74 148 m 1
 74 185 l 1
 185 185 l 1
 185 148 l 1
 74 148 l 1
370 148 m 1
 370 185 l 1
 481 185 l 1
 481 148 l 1
 370 148 l 1
74 111 m 1
 74 148 l 1
 185 148 l 1
 185 111 l 1
 74 111 l 1
370 111 m 1
 370 148 l 1
 481 148 l 1
 481 111 l 1
 370 111 l 1
74 74 m 1
 74 111 l 1
 185 111 l 1
 185 74 l 1
 74 74 l 1
370 74 m 1
 370 111 l 1
 481 111 l 1
 481 74 l 1
 370 74 l 1
74 37 m 1
 74 74 l 1
 185 74 l 1
 185 37 l 1
 74 37 l 1
370 37 m 1
 370 74 l 1
 481 74 l 1
 481 37 l 1
 370 37 l 1
74 0 m 1
 74 37 l 1
 185 37 l 1
 185 0 l 1
 74 0 l 1
370 0 m 1
 370 37 l 1
 481 37 l 1
 481 0 l 1
 370 0 l 1
EndSplineSet
EndChar

StartChar: o
Encoding: 111 111 80
Width: 593
Flags: HW
LayerCount: 2
Back
Fore
SplineSet
185 481 m 1
 185 519 l 1
 370 519 l 1
 370 481 l 1
 185 481 l 1
111 444 m 1
 111 481 l 1
 444 481 l 1
 444 444 l 1
 111 444 l 1
74 407 m 1
 74 444 l 1
 222 444 l 1
 222 407 l 1
 74 407 l 1
333 407 m 1
 333 444 l 1
 481 444 l 1
 481 407 l 1
 333 407 l 1
74 370 m 1
 74 407 l 1
 185 407 l 1
 185 370 l 1
 74 370 l 1
370 370 m 1
 370 407 l 1
 481 407 l 1
 481 370 l 1
 370 370 l 1
37 333 m 1
 37 370 l 1
 148 370 l 1
 148 333 l 1
 37 333 l 1
407 333 m 1
 407 370 l 1
 519 370 l 1
 519 333 l 1
 407 333 l 1
37 296 m 1
 37 333 l 1
 148 333 l 1
 148 296 l 1
 37 296 l 1
407 296 m 1
 407 333 l 1
 519 333 l 1
 519 296 l 1
 407 296 l 1
37 259 m 1
 37 296 l 1
 148 296 l 1
 148 259 l 1
 37 259 l 1
407 259 m 1
 407 296 l 1
 519 296 l 1
 519 259 l 1
 407 259 l 1
37 222 m 1
 37 259 l 1
 148 259 l 1
 148 222 l 1
 37 222 l 1
407 222 m 1
 407 259 l 1
 519 259 l 1
 519 222 l 1
 407 222 l 1
37 185 m 1
 37 222 l 1
 148 222 l 1
 148 185 l 1
 37 185 l 1
407 185 m 1
 407 222 l 1
 519 222 l 1
 519 185 l 1
 407 185 l 1
37 148 m 1
 37 185 l 1
 148 185 l 1
 148 148 l 1
 37 148 l 1
407 148 m 1
 407 185 l 1
 519 185 l 1
 519 148 l 1
 407 148 l 1
74 111 m 1
 74 148 l 1
 185 148 l 1
 185 111 l 1
 74 111 l 1
370 111 m 1
 370 148 l 1
 481 148 l 1
 481 111 l 1
 370 111 l 1
74 74 m 1
 74 111 l 1
 222 111 l 1
 222 74 l 1
 74 74 l 1
333 74 m 1
 333 111 l 1
 481 111 l 1
 481 74 l 1
 333 74 l 1
111 37 m 1
 111 74 l 1
 444 74 l 1
 444 37 l 1
 111 37 l 1
185 0 m 1
 185 37 l 1
 370 37 l 1
 370 0 l 1
 185 0 l 1
EndSplineSet
EndChar

StartChar: p
Encoding: 112 112 81
Width: 593
Flags: HW
LayerCount: 2
Back
Fore
SplineSet
74 481 m 1
 74 519 l 1
 185 519 l 1
 185 481 l 1
 74 481 l 1
259 481 m 1
 259 519 l 1
 407 519 l 1
 407 481 l 1
 259 481 l 1
74 444 m 1
 74 481 l 1
 185 481 l 1
 185 444 l 1
 74 444 l 1
222 444 m 1
 222 481 l 1
 481 481 l 1
 481 444 l 1
 222 444 l 1
74 407 m 1
 74 444 l 1
 259 444 l 1
 259 407 l 1
 74 407 l 1
370 407 m 1
 370 444 l 1
 481 444 l 1
 481 407 l 1
 370 407 l 1
74 370 m 1
 74 407 l 1
 222 407 l 1
 222 370 l 1
 74 370 l 1
370 370 m 1
 370 407 l 1
 519 407 l 1
 519 370 l 1
 370 370 l 1
74 333 m 1
 74 370 l 1
 185 370 l 1
 185 333 l 1
 74 333 l 1
407 333 m 1
 407 370 l 1
 519 370 l 1
 519 333 l 1
 407 333 l 1
74 296 m 1
 74 333 l 1
 185 333 l 1
 185 296 l 1
 74 296 l 1
407 296 m 1
 407 333 l 1
 519 333 l 1
 519 296 l 1
 407 296 l 1
74 259 m 1
 74 296 l 1
 185 296 l 1
 185 259 l 1
 74 259 l 1
407 259 m 1
 407 296 l 1
 519 296 l 1
 519 259 l 1
 407 259 l 1
74 222 m 1
 74 259 l 1
 185 259 l 1
 185 222 l 1
 74 222 l 1
407 222 m 1
 407 259 l 1
 519 259 l 1
 519 222 l 1
 407 222 l 1
74 185 m 1
 74 222 l 1
 185 222 l 1
 185 185 l 1
 74 185 l 1
407 185 m 1
 407 222 l 1
 519 222 l 1
 519 185 l 1
 407 185 l 1
74 148 m 1
 74 185 l 1
 185 185 l 1
 185 148 l 1
 74 148 l 1
407 148 m 1
 407 185 l 1
 519 185 l 1
 519 148 l 1
 407 148 l 1
74 111 m 1
 74 148 l 1
 185 148 l 1
 185 111 l 1
 74 111 l 1
370 111 m 1
 370 148 l 1
 481 148 l 1
 481 111 l 1
 370 111 l 1
74 74 m 1
 74 111 l 1
 222 111 l 1
 222 74 l 1
 74 74 l 1
333 74 m 1
 333 111 l 1
 481 111 l 1
 481 74 l 1
 333 74 l 1
74 37 m 1
 74 74 l 1
 185 74 l 1
 185 37 l 1
 74 37 l 1
222 37 m 1
 222 74 l 1
 444 74 l 1
 444 37 l 1
 222 37 l 1
74 0 m 1
 74 37 l 1
 185 37 l 1
 185 0 l 1
 74 0 l 1
259 0 m 1
 259 37 l 1
 407 37 l 1
 407 0 l 1
 259 0 l 1
74 -37 m 1
 74 0 l 1
 185 0 l 1
 185 -37 l 1
 74 -37 l 1
74 -74 m 1
 74 -37 l 1
 185 -37 l 1
 185 -74 l 1
 74 -74 l 1
74 -111 m 1
 74 -74 l 1
 185 -74 l 1
 185 -111 l 1
 74 -111 l 1
74 -148 m 1
 74 -111 l 1
 185 -111 l 1
 185 -148 l 1
 74 -148 l 1
74 -185 m 1
 74 -148 l 1
 185 -148 l 1
 185 -185 l 1
 74 -185 l 1
EndSplineSet
EndChar

StartChar: q
Encoding: 113 113 82
Width: 593
Flags: HW
LayerCount: 2
Back
Fore
SplineSet
148 481 m 1
 148 519 l 1
 333 519 l 1
 333 481 l 1
 148 481 l 1
407 481 m 1
 407 519 l 1
 481 519 l 1
 481 481 l 1
 407 481 l 1
111 444 m 1
 111 481 l 1
 370 481 l 1
 370 444 l 1
 111 444 l 1
407 444 m 1
 407 481 l 1
 481 481 l 1
 481 444 l 1
 407 444 l 1
74 407 m 1
 74 444 l 1
 222 444 l 1
 222 407 l 1
 74 407 l 1
333 407 m 1
 333 444 l 1
 481 444 l 1
 481 407 l 1
 333 407 l 1
74 370 m 1
 74 407 l 1
 185 407 l 1
 185 370 l 1
 74 370 l 1
370 370 m 1
 370 407 l 1
 481 407 l 1
 481 370 l 1
 370 370 l 1
37 333 m 1
 37 370 l 1
 148 370 l 1
 148 333 l 1
 37 333 l 1
370 333 m 1
 370 370 l 1
 481 370 l 1
 481 333 l 1
 370 333 l 1
37 296 m 1
 37 333 l 1
 148 333 l 1
 148 296 l 1
 37 296 l 1
370 296 m 1
 370 333 l 1
 481 333 l 1
 481 296 l 1
 370 296 l 1
37 259 m 1
 37 296 l 1
 148 296 l 1
 148 259 l 1
 37 259 l 1
370 259 m 1
 370 296 l 1
 481 296 l 1
 481 259 l 1
 370 259 l 1
37 222 m 1
 37 259 l 1
 148 259 l 1
 148 222 l 1
 37 222 l 1
370 222 m 1
 370 259 l 1
 481 259 l 1
 481 222 l 1
 370 222 l 1
37 185 m 1
 37 222 l 1
 148 222 l 1
 148 185 l 1
 37 185 l 1
370 185 m 1
 370 222 l 1
 481 222 l 1
 481 185 l 1
 370 185 l 1
37 148 m 1
 37 185 l 1
 148 185 l 1
 148 148 l 1
 37 148 l 1
370 148 m 1
 370 185 l 1
 481 185 l 1
 481 148 l 1
 370 148 l 1
37 111 m 1
 37 148 l 1
 185 148 l 1
 185 111 l 1
 37 111 l 1
333 111 m 1
 333 148 l 1
 481 148 l 1
 481 111 l 1
 333 111 l 1
74 74 m 1
 74 111 l 1
 185 111 l 1
 185 74 l 1
 74 74 l 1
296 74 m 1
 296 111 l 1
 481 111 l 1
 481 74 l 1
 296 74 l 1
74 37 m 1
 74 74 l 1
 333 74 l 1
 333 37 l 1
 74 37 l 1
370 37 m 1
 370 74 l 1
 481 74 l 1
 481 37 l 1
 370 37 l 1
148 0 m 1
 148 37 l 1
 296 37 l 1
 296 0 l 1
 148 0 l 1
370 0 m 1
 370 37 l 1
 481 37 l 1
 481 0 l 1
 370 0 l 1
370 -37 m 1
 370 0 l 1
 481 0 l 1
 481 -37 l 1
 370 -37 l 1
370 -74 m 1
 370 -37 l 1
 481 -37 l 1
 481 -74 l 1
 370 -74 l 1
370 -111 m 1
 370 -74 l 1
 481 -74 l 1
 481 -111 l 1
 370 -111 l 1
370 -148 m 1
 370 -111 l 1
 481 -111 l 1
 481 -148 l 1
 370 -148 l 1
370 -185 m 1
 370 -148 l 1
 481 -148 l 1
 481 -185 l 1
 370 -185 l 1
EndSplineSet
EndChar

StartChar: r
Encoding: 114 114 83
Width: 593
Flags: HW
LayerCount: 2
Back
Fore
SplineSet
111 481 m 1
 111 519 l 1
 222 519 l 1
 222 481 l 1
 111 481 l 1
333 481 m 1
 333 519 l 1
 519 519 l 1
 519 481 l 1
 333 481 l 1
111 444 m 1
 111 481 l 1
 222 481 l 1
 222 444 l 1
 111 444 l 1
259 444 m 1
 259 481 l 1
 519 481 l 1
 519 444 l 1
 259 444 l 1
111 407 m 1
 111 444 l 1
 333 444 l 1
 333 407 l 1
 111 407 l 1
444 407 m 1
 444 444 l 1
 519 444 l 1
 519 407 l 1
 444 407 l 1
111 370 m 1
 111 407 l 1
 259 407 l 1
 259 370 l 1
 111 370 l 1
444 370 m 1
 444 407 l 1
 519 407 l 1
 519 370 l 1
 444 370 l 1
111 333 m 1
 111 370 l 1
 222 370 l 1
 222 333 l 1
 111 333 l 1
111 296 m 1
 111 333 l 1
 222 333 l 1
 222 296 l 1
 111 296 l 1
111 259 m 1
 111 296 l 1
 222 296 l 1
 222 259 l 1
 111 259 l 1
111 222 m 1
 111 259 l 1
 222 259 l 1
 222 222 l 1
 111 222 l 1
111 185 m 1
 111 222 l 1
 222 222 l 1
 222 185 l 1
 111 185 l 1
111 148 m 1
 111 185 l 1
 222 185 l 1
 222 148 l 1
 111 148 l 1
111 111 m 1
 111 148 l 1
 222 148 l 1
 222 111 l 1
 111 111 l 1
111 74 m 1
 111 111 l 1
 222 111 l 1
 222 74 l 1
 111 74 l 1
111 37 m 1
 111 74 l 1
 222 74 l 1
 222 37 l 1
 111 37 l 1
111 0 m 1
 111 37 l 1
 222 37 l 1
 222 0 l 1
 111 0 l 1
EndSplineSet
EndChar

StartChar: s
Encoding: 115 115 84
Width: 593
Flags: HW
LayerCount: 2
Back
Fore
SplineSet
185 481 m 1
 185 519 l 1
 407 519 l 1
 407 481 l 1
 185 481 l 1
111 444 m 1
 111 481 l 1
 444 481 l 1
 444 444 l 1
 111 444 l 1
74 407 m 1
 74 444 l 1
 222 444 l 1
 222 407 l 1
 74 407 l 1
407 407 m 1
 407 444 l 1
 444 444 l 1
 444 407 l 1
 407 407 l 1
74 370 m 1
 74 407 l 1
 185 407 l 1
 185 370 l 1
 74 370 l 1
74 333 m 1
 74 370 l 1
 222 370 l 1
 222 333 l 1
 74 333 l 1
74 296 m 1
 74 333 l 1
 296 333 l 1
 296 296 l 1
 74 296 l 1
111 259 m 1
 111 296 l 1
 407 296 l 1
 407 259 l 1
 111 259 l 1
185 222 m 1
 185 259 l 1
 444 259 l 1
 444 222 l 1
 185 222 l 1
296 185 m 1
 296 222 l 1
 481 222 l 1
 481 185 l 1
 296 185 l 1
370 148 m 1
 370 185 l 1
 481 185 l 1
 481 148 l 1
 370 148 l 1
370 111 m 1
 370 148 l 1
 481 148 l 1
 481 111 l 1
 370 111 l 1
74 74 m 1
 74 111 l 1
 148 111 l 1
 148 74 l 1
 74 74 l 1
333 74 m 1
 333 111 l 1
 481 111 l 1
 481 74 l 1
 333 74 l 1
74 37 m 1
 74 74 l 1
 444 74 l 1
 444 37 l 1
 74 37 l 1
111 0 m 1
 111 37 l 1
 370 37 l 1
 370 0 l 1
 111 0 l 1
EndSplineSet
EndChar

StartChar: t
Encoding: 116 116 85
Width: 593
Flags: HW
LayerCount: 2
Back
Fore
SplineSet
185 593 m 1
 185 630 l 1
 296 630 l 1
 296 593 l 1
 185 593 l 1
185 556 m 1
 185 593 l 1
 296 593 l 1
 296 556 l 1
 185 556 l 1
185 519 m 1
 185 556 l 1
 296 556 l 1
 296 519 l 1
 185 519 l 1
74 481 m 1
 74 519 l 1
 519 519 l 1
 519 481 l 1
 74 481 l 1
74 444 m 1
 74 481 l 1
 519 481 l 1
 519 444 l 1
 74 444 l 1
185 407 m 1
 185 444 l 1
 296 444 l 1
 296 407 l 1
 185 407 l 1
185 370 m 1
 185 407 l 1
 296 407 l 1
 296 370 l 1
 185 370 l 1
185 333 m 1
 185 370 l 1
 296 370 l 1
 296 333 l 1
 185 333 l 1
185 296 m 1
 185 333 l 1
 296 333 l 1
 296 296 l 1
 185 296 l 1
185 259 m 1
 185 296 l 1
 296 296 l 1
 296 259 l 1
 185 259 l 1
185 222 m 1
 185 259 l 1
 296 259 l 1
 296 222 l 1
 185 222 l 1
185 185 m 1
 185 222 l 1
 296 222 l 1
 296 185 l 1
 185 185 l 1
185 148 m 1
 185 185 l 1
 296 185 l 1
 296 148 l 1
 185 148 l 1
185 111 m 1
 185 148 l 1
 296 148 l 1
 296 111 l 1
 185 111 l 1
185 74 m 1
 185 111 l 1
 333 111 l 1
 333 74 l 1
 185 74 l 1
222 37 m 1
 222 74 l 1
 519 74 l 1
 519 37 l 1
 222 37 l 1
259 0 m 1
 259 37 l 1
 519 37 l 1
 519 0 l 1
 259 0 l 1
EndSplineSet
EndChar

StartChar: u
Encoding: 117 117 86
Width: 593
Flags: HW
LayerCount: 2
Back
Fore
SplineSet
74 481 m 1
 74 519 l 1
 185 519 l 1
 185 481 l 1
 74 481 l 1
370 481 m 1
 370 519 l 1
 481 519 l 1
 481 481 l 1
 370 481 l 1
74 444 m 1
 74 481 l 1
 185 481 l 1
 185 444 l 1
 74 444 l 1
370 444 m 1
 370 481 l 1
 481 481 l 1
 481 444 l 1
 370 444 l 1
74 407 m 1
 74 444 l 1
 185 444 l 1
 185 407 l 1
 74 407 l 1
370 407 m 1
 370 444 l 1
 481 444 l 1
 481 407 l 1
 370 407 l 1
74 370 m 1
 74 407 l 1
 185 407 l 1
 185 370 l 1
 74 370 l 1
370 370 m 1
 370 407 l 1
 481 407 l 1
 481 370 l 1
 370 370 l 1
74 333 m 1
 74 370 l 1
 185 370 l 1
 185 333 l 1
 74 333 l 1
370 333 m 1
 370 370 l 1
 481 370 l 1
 481 333 l 1
 370 333 l 1
74 296 m 1
 74 333 l 1
 185 333 l 1
 185 296 l 1
 74 296 l 1
370 296 m 1
 370 333 l 1
 481 333 l 1
 481 296 l 1
 370 296 l 1
74 259 m 1
 74 296 l 1
 185 296 l 1
 185 259 l 1
 74 259 l 1
370 259 m 1
 370 296 l 1
 481 296 l 1
 481 259 l 1
 370 259 l 1
74 222 m 1
 74 259 l 1
 185 259 l 1
 185 222 l 1
 74 222 l 1
370 222 m 1
 370 259 l 1
 481 259 l 1
 481 222 l 1
 370 222 l 1
74 185 m 1
 74 222 l 1
 185 222 l 1
 185 185 l 1
 74 185 l 1
370 185 m 1
 370 222 l 1
 481 222 l 1
 481 185 l 1
 370 185 l 1
74 148 m 1
 74 185 l 1
 185 185 l 1
 185 148 l 1
 74 148 l 1
333 148 m 1
 333 185 l 1
 481 185 l 1
 481 148 l 1
 333 148 l 1
74 111 m 1
 74 148 l 1
 185 148 l 1
 185 111 l 1
 74 111 l 1
296 111 m 1
 296 148 l 1
 481 148 l 1
 481 111 l 1
 296 111 l 1
74 74 m 1
 74 111 l 1
 333 111 l 1
 333 74 l 1
 74 74 l 1
370 74 m 1
 370 111 l 1
 481 111 l 1
 481 74 l 1
 370 74 l 1
111 37 m 1
 111 74 l 1
 333 74 l 1
 333 37 l 1
 111 37 l 1
370 37 m 1
 370 74 l 1
 481 74 l 1
 481 37 l 1
 370 37 l 1
148 0 m 1
 148 37 l 1
 259 37 l 1
 259 0 l 1
 148 0 l 1
370 0 m 1
 370 37 l 1
 481 37 l 1
 481 0 l 1
 370 0 l 1
EndSplineSet
EndChar

StartChar: v
Encoding: 118 118 87
Width: 593
Flags: HW
LayerCount: 2
Back
Fore
SplineSet
37 481 m 1
 37 519 l 1
 148 519 l 1
 148 481 l 1
 37 481 l 1
481 481 m 1
 481 519 l 1
 556 519 l 1
 556 481 l 1
 481 481 l 1
37 444 m 1
 37 481 l 1
 148 481 l 1
 148 444 l 1
 37 444 l 1
444 444 m 1
 444 481 l 1
 519 481 l 1
 519 444 l 1
 444 444 l 1
74 407 m 1
 74 444 l 1
 185 444 l 1
 185 407 l 1
 74 407 l 1
444 407 m 1
 444 444 l 1
 519 444 l 1
 519 407 l 1
 444 407 l 1
74 370 m 1
 74 407 l 1
 185 407 l 1
 185 370 l 1
 74 370 l 1
407 370 m 1
 407 407 l 1
 519 407 l 1
 519 370 l 1
 407 370 l 1
74 333 m 1
 74 370 l 1
 222 370 l 1
 222 333 l 1
 74 333 l 1
407 333 m 1
 407 370 l 1
 481 370 l 1
 481 333 l 1
 407 333 l 1
111 296 m 1
 111 333 l 1
 222 333 l 1
 222 296 l 1
 111 296 l 1
370 296 m 1
 370 333 l 1
 481 333 l 1
 481 296 l 1
 370 296 l 1
111 259 m 1
 111 296 l 1
 259 296 l 1
 259 259 l 1
 111 259 l 1
370 259 m 1
 370 296 l 1
 444 296 l 1
 444 259 l 1
 370 259 l 1
148 222 m 1
 148 259 l 1
 259 259 l 1
 259 222 l 1
 148 222 l 1
370 222 m 1
 370 259 l 1
 444 259 l 1
 444 222 l 1
 370 222 l 1
148 185 m 1
 148 222 l 1
 259 222 l 1
 259 185 l 1
 148 185 l 1
333 185 m 1
 333 222 l 1
 407 222 l 1
 407 185 l 1
 333 185 l 1
185 148 m 1
 185 185 l 1
 296 185 l 1
 296 148 l 1
 185 148 l 1
333 148 m 1
 333 185 l 1
 407 185 l 1
 407 148 l 1
 333 148 l 1
185 111 m 1
 185 148 l 1
 407 148 l 1
 407 111 l 1
 185 111 l 1
185 74 m 1
 185 111 l 1
 370 111 l 1
 370 74 l 1
 185 74 l 1
222 37 m 1
 222 74 l 1
 370 74 l 1
 370 37 l 1
 222 37 l 1
222 0 m 1
 222 37 l 1
 333 37 l 1
 333 0 l 1
 222 0 l 1
EndSplineSet
EndChar

StartChar: w
Encoding: 119 119 88
Width: 593
Flags: HW
LayerCount: 2
Back
Fore
SplineSet
0 481 m 1
 0 519 l 1
 111 519 l 1
 111 481 l 1
 0 481 l 1
481 481 m 1
 481 519 l 1
 556 519 l 1
 556 481 l 1
 481 481 l 1
0 444 m 1
 0 481 l 1
 111 481 l 1
 111 444 l 1
 0 444 l 1
222 444 m 1
 222 481 l 1
 333 481 l 1
 333 444 l 1
 222 444 l 1
481 444 m 1
 481 481 l 1
 556 481 l 1
 556 444 l 1
 481 444 l 1
0 407 m 1
 0 444 l 1
 111 444 l 1
 111 407 l 1
 0 407 l 1
222 407 m 1
 222 444 l 1
 333 444 l 1
 333 407 l 1
 222 407 l 1
481 407 m 1
 481 444 l 1
 519 444 l 1
 519 407 l 1
 481 407 l 1
37 370 m 1
 37 407 l 1
 111 407 l 1
 111 370 l 1
 37 370 l 1
222 370 m 1
 222 407 l 1
 370 407 l 1
 370 370 l 1
 222 370 l 1
444 370 m 1
 444 407 l 1
 519 407 l 1
 519 370 l 1
 444 370 l 1
37 333 m 1
 37 370 l 1
 148 370 l 1
 148 333 l 1
 37 333 l 1
222 333 m 1
 222 370 l 1
 370 370 l 1
 370 333 l 1
 222 333 l 1
444 333 m 1
 444 370 l 1
 519 370 l 1
 519 333 l 1
 444 333 l 1
37 296 m 1
 37 333 l 1
 148 333 l 1
 148 296 l 1
 37 296 l 1
185 296 m 1
 185 333 l 1
 259 333 l 1
 259 296 l 1
 185 296 l 1
296 296 m 1
 296 333 l 1
 370 333 l 1
 370 296 l 1
 296 296 l 1
444 296 m 1
 444 333 l 1
 519 333 l 1
 519 296 l 1
 444 296 l 1
37 259 m 1
 37 296 l 1
 148 296 l 1
 148 259 l 1
 37 259 l 1
185 259 m 1
 185 296 l 1
 259 296 l 1
 259 259 l 1
 185 259 l 1
296 259 m 1
 296 296 l 1
 370 296 l 1
 370 259 l 1
 296 259 l 1
444 259 m 1
 444 296 l 1
 519 296 l 1
 519 259 l 1
 444 259 l 1
37 222 m 1
 37 259 l 1
 148 259 l 1
 148 222 l 1
 37 222 l 1
185 222 m 1
 185 259 l 1
 259 259 l 1
 259 222 l 1
 185 222 l 1
296 222 m 1
 296 259 l 1
 370 259 l 1
 370 222 l 1
 296 222 l 1
444 222 m 1
 444 259 l 1
 481 259 l 1
 481 222 l 1
 444 222 l 1
37 185 m 1
 37 222 l 1
 148 222 l 1
 148 185 l 1
 37 185 l 1
185 185 m 1
 185 222 l 1
 259 222 l 1
 259 185 l 1
 185 185 l 1
296 185 m 1
 296 222 l 1
 407 222 l 1
 407 185 l 1
 296 185 l 1
444 185 m 1
 444 222 l 1
 481 222 l 1
 481 185 l 1
 444 185 l 1
74 148 m 1
 74 185 l 1
 222 185 l 1
 222 148 l 1
 74 148 l 1
333 148 m 1
 333 185 l 1
 481 185 l 1
 481 148 l 1
 333 148 l 1
74 111 m 1
 74 148 l 1
 222 148 l 1
 222 111 l 1
 74 111 l 1
333 111 m 1
 333 148 l 1
 481 148 l 1
 481 111 l 1
 333 111 l 1
74 74 m 1
 74 111 l 1
 222 111 l 1
 222 74 l 1
 74 74 l 1
333 74 m 1
 333 111 l 1
 481 111 l 1
 481 74 l 1
 333 74 l 1
74 37 m 1
 74 74 l 1
 222 74 l 1
 222 37 l 1
 74 37 l 1
333 37 m 1
 333 74 l 1
 444 74 l 1
 444 37 l 1
 333 37 l 1
74 0 m 1
 74 37 l 1
 185 37 l 1
 185 0 l 1
 74 0 l 1
370 0 m 1
 370 37 l 1
 444 37 l 1
 444 0 l 1
 370 0 l 1
EndSplineSet
EndChar

StartChar: x
Encoding: 120 120 89
Width: 593
Flags: HW
LayerCount: 2
Back
Fore
SplineSet
37 481 m 1
 37 519 l 1
 185 519 l 1
 185 481 l 1
 37 481 l 1
407 481 m 1
 407 519 l 1
 519 519 l 1
 519 481 l 1
 407 481 l 1
74 444 m 1
 74 481 l 1
 185 481 l 1
 185 444 l 1
 74 444 l 1
370 444 m 1
 370 481 l 1
 481 481 l 1
 481 444 l 1
 370 444 l 1
74 407 m 1
 74 444 l 1
 222 444 l 1
 222 407 l 1
 74 407 l 1
333 407 m 1
 333 444 l 1
 444 444 l 1
 444 407 l 1
 333 407 l 1
111 370 m 1
 111 407 l 1
 259 407 l 1
 259 370 l 1
 111 370 l 1
333 370 m 1
 333 407 l 1
 407 407 l 1
 407 370 l 1
 333 370 l 1
148 333 m 1
 148 370 l 1
 407 370 l 1
 407 333 l 1
 148 333 l 1
185 296 m 1
 185 333 l 1
 370 333 l 1
 370 296 l 1
 185 296 l 1
185 259 m 1
 185 296 l 1
 333 296 l 1
 333 259 l 1
 185 259 l 1
222 222 m 1
 222 259 l 1
 370 259 l 1
 370 222 l 1
 222 222 l 1
185 185 m 1
 185 222 l 1
 370 222 l 1
 370 185 l 1
 185 185 l 1
148 148 m 1
 148 185 l 1
 259 185 l 1
 259 148 l 1
 148 148 l 1
296 148 m 1
 296 185 l 1
 407 185 l 1
 407 148 l 1
 296 148 l 1
111 111 m 1
 111 148 l 1
 222 148 l 1
 222 111 l 1
 111 111 l 1
296 111 m 1
 296 148 l 1
 444 148 l 1
 444 111 l 1
 296 111 l 1
111 74 m 1
 111 111 l 1
 185 111 l 1
 185 74 l 1
 111 74 l 1
333 74 m 1
 333 111 l 1
 481 111 l 1
 481 74 l 1
 333 74 l 1
74 37 m 1
 74 74 l 1
 148 74 l 1
 148 37 l 1
 74 37 l 1
370 37 m 1
 370 74 l 1
 481 74 l 1
 481 37 l 1
 370 37 l 1
37 0 m 1
 37 37 l 1
 148 37 l 1
 148 0 l 1
 37 0 l 1
370 0 m 1
 370 37 l 1
 519 37 l 1
 519 0 l 1
 370 0 l 1
EndSplineSet
EndChar

StartChar: y
Encoding: 121 121 90
Width: 593
Flags: HW
LayerCount: 2
Back
Fore
SplineSet
37 481 m 1
 37 519 l 1
 148 519 l 1
 148 481 l 1
 37 481 l 1
481 481 m 1
 481 519 l 1
 556 519 l 1
 556 481 l 1
 481 481 l 1
37 444 m 1
 37 481 l 1
 185 481 l 1
 185 444 l 1
 37 444 l 1
444 444 m 1
 444 481 l 1
 519 481 l 1
 519 444 l 1
 444 444 l 1
74 407 m 1
 74 444 l 1
 185 444 l 1
 185 407 l 1
 74 407 l 1
444 407 m 1
 444 444 l 1
 519 444 l 1
 519 407 l 1
 444 407 l 1
74 370 m 1
 74 407 l 1
 222 407 l 1
 222 370 l 1
 74 370 l 1
407 370 m 1
 407 407 l 1
 481 407 l 1
 481 370 l 1
 407 370 l 1
111 333 m 1
 111 370 l 1
 222 370 l 1
 222 333 l 1
 111 333 l 1
407 333 m 1
 407 370 l 1
 481 370 l 1
 481 333 l 1
 407 333 l 1
111 296 m 1
 111 333 l 1
 222 333 l 1
 222 296 l 1
 111 296 l 1
370 296 m 1
 370 333 l 1
 481 333 l 1
 481 296 l 1
 370 296 l 1
148 259 m 1
 148 296 l 1
 259 296 l 1
 259 259 l 1
 148 259 l 1
370 259 m 1
 370 296 l 1
 444 296 l 1
 444 259 l 1
 370 259 l 1
148 222 m 1
 148 259 l 1
 259 259 l 1
 259 222 l 1
 148 222 l 1
333 222 m 1
 333 259 l 1
 444 259 l 1
 444 222 l 1
 333 222 l 1
148 185 m 1
 148 222 l 1
 296 222 l 1
 296 185 l 1
 148 185 l 1
333 185 m 1
 333 222 l 1
 407 222 l 1
 407 185 l 1
 333 185 l 1
185 148 m 1
 185 185 l 1
 296 185 l 1
 296 148 l 1
 185 148 l 1
333 148 m 1
 333 185 l 1
 407 185 l 1
 407 148 l 1
 333 148 l 1
185 111 m 1
 185 148 l 1
 370 148 l 1
 370 111 l 1
 185 111 l 1
222 74 m 1
 222 111 l 1
 370 111 l 1
 370 74 l 1
 222 74 l 1
222 37 m 1
 222 74 l 1
 333 74 l 1
 333 37 l 1
 222 37 l 1
259 0 m 1
 259 37 l 1
 333 37 l 1
 333 0 l 1
 259 0 l 1
222 -37 m 1
 222 0 l 1
 296 0 l 1
 296 -37 l 1
 222 -37 l 1
222 -74 m 1
 222 -37 l 1
 296 -37 l 1
 296 -74 l 1
 222 -74 l 1
185 -111 m 1
 185 -74 l 1
 296 -74 l 1
 296 -111 l 1
 185 -111 l 1
74 -148 m 1
 74 -111 l 1
 259 -111 l 1
 259 -148 l 1
 74 -148 l 1
74 -185 m 1
 74 -148 l 1
 222 -148 l 1
 222 -185 l 1
 74 -185 l 1
EndSplineSet
EndChar

StartChar: z
Encoding: 122 122 91
Width: 593
Flags: HW
LayerCount: 2
Back
Fore
SplineSet
74 481 m 1
 74 519 l 1
 519 519 l 1
 519 481 l 1
 74 481 l 1
74 444 m 1
 74 481 l 1
 519 481 l 1
 519 444 l 1
 74 444 l 1
370 407 m 1
 370 444 l 1
 481 444 l 1
 481 407 l 1
 370 407 l 1
370 370 m 1
 370 407 l 1
 444 407 l 1
 444 370 l 1
 370 370 l 1
333 333 m 1
 333 370 l 1
 407 370 l 1
 407 333 l 1
 333 333 l 1
296 296 m 1
 296 333 l 1
 407 333 l 1
 407 296 l 1
 296 296 l 1
259 259 m 1
 259 296 l 1
 370 296 l 1
 370 259 l 1
 259 259 l 1
222 222 m 1
 222 259 l 1
 333 259 l 1
 333 222 l 1
 222 222 l 1
185 185 m 1
 185 222 l 1
 296 222 l 1
 296 185 l 1
 185 185 l 1
148 148 m 1
 148 185 l 1
 259 185 l 1
 259 148 l 1
 148 148 l 1
111 111 m 1
 111 148 l 1
 222 148 l 1
 222 111 l 1
 111 111 l 1
111 74 m 1
 111 111 l 1
 185 111 l 1
 185 74 l 1
 111 74 l 1
74 37 m 1
 74 74 l 1
 519 74 l 1
 519 37 l 1
 74 37 l 1
74 0 m 1
 74 37 l 1
 519 37 l 1
 519 0 l 1
 74 0 l 1
EndSplineSet
EndChar

StartChar: braceleft
Encoding: 123 123 92
Width: 593
Flags: HW
LayerCount: 2
Back
Fore
SplineSet
296 667 m 1
 296 704 l 1
 481 704 l 1
 481 667 l 1
 296 667 l 1
259 630 m 1
 259 667 l 1
 481 667 l 1
 481 630 l 1
 259 630 l 1
222 593 m 1
 222 630 l 1
 370 630 l 1
 370 593 l 1
 222 593 l 1
222 556 m 1
 222 593 l 1
 333 593 l 1
 333 556 l 1
 222 556 l 1
222 519 m 1
 222 556 l 1
 333 556 l 1
 333 519 l 1
 222 519 l 1
222 481 m 1
 222 519 l 1
 333 519 l 1
 333 481 l 1
 222 481 l 1
259 444 m 1
 259 481 l 1
 370 481 l 1
 370 444 l 1
 259 444 l 1
259 407 m 1
 259 444 l 1
 370 444 l 1
 370 407 l 1
 259 407 l 1
296 370 m 1
 296 407 l 1
 370 407 l 1
 370 370 l 1
 296 370 l 1
296 333 m 1
 296 370 l 1
 370 370 l 1
 370 333 l 1
 296 333 l 1
259 296 m 1
 259 333 l 1
 333 333 l 1
 333 296 l 1
 259 296 l 1
111 259 m 1
 111 296 l 1
 259 296 l 1
 259 259 l 1
 111 259 l 1
111 222 m 1
 111 259 l 1
 333 259 l 1
 333 222 l 1
 111 222 l 1
259 185 m 1
 259 222 l 1
 370 222 l 1
 370 185 l 1
 259 185 l 1
296 148 m 1
 296 185 l 1
 370 185 l 1
 370 148 l 1
 296 148 l 1
296 111 m 1
 296 148 l 1
 370 148 l 1
 370 111 l 1
 296 111 l 1
259 74 m 1
 259 111 l 1
 370 111 l 1
 370 74 l 1
 259 74 l 1
259 37 m 1
 259 74 l 1
 333 74 l 1
 333 37 l 1
 259 37 l 1
222 0 m 1
 222 37 l 1
 333 37 l 1
 333 0 l 1
 222 0 l 1
222 -37 m 1
 222 0 l 1
 333 0 l 1
 333 -37 l 1
 222 -37 l 1
222 -74 m 1
 222 -37 l 1
 370 -37 l 1
 370 -74 l 1
 222 -74 l 1
259 -111 m 1
 259 -74 l 1
 481 -74 l 1
 481 -111 l 1
 259 -111 l 1
296 -148 m 1
 296 -111 l 1
 481 -111 l 1
 481 -148 l 1
 296 -148 l 1
EndSplineSet
EndChar

StartChar: bar
Encoding: 124 124 93
Width: 593
Flags: HW
LayerCount: 2
Back
Fore
SplineSet
259 667 m 1
 259 704 l 1
 333 704 l 1
 333 667 l 1
 259 667 l 1
259 630 m 1
 259 667 l 1
 333 667 l 1
 333 630 l 1
 259 630 l 1
259 593 m 1
 259 630 l 1
 333 630 l 1
 333 593 l 1
 259 593 l 1
259 556 m 1
 259 593 l 1
 333 593 l 1
 333 556 l 1
 259 556 l 1
259 519 m 1
 259 556 l 1
 333 556 l 1
 333 519 l 1
 259 519 l 1
259 481 m 1
 259 519 l 1
 333 519 l 1
 333 481 l 1
 259 481 l 1
259 444 m 1
 259 481 l 1
 333 481 l 1
 333 444 l 1
 259 444 l 1
259 407 m 1
 259 444 l 1
 333 444 l 1
 333 407 l 1
 259 407 l 1
259 370 m 1
 259 407 l 1
 333 407 l 1
 333 370 l 1
 259 370 l 1
259 333 m 1
 259 370 l 1
 333 370 l 1
 333 333 l 1
 259 333 l 1
259 296 m 1
 259 333 l 1
 333 333 l 1
 333 296 l 1
 259 296 l 1
259 259 m 1
 259 296 l 1
 333 296 l 1
 333 259 l 1
 259 259 l 1
259 222 m 1
 259 259 l 1
 333 259 l 1
 333 222 l 1
 259 222 l 1
259 185 m 1
 259 222 l 1
 333 222 l 1
 333 185 l 1
 259 185 l 1
259 148 m 1
 259 185 l 1
 333 185 l 1
 333 148 l 1
 259 148 l 1
259 111 m 1
 259 148 l 1
 333 148 l 1
 333 111 l 1
 259 111 l 1
259 74 m 1
 259 111 l 1
 333 111 l 1
 333 74 l 1
 259 74 l 1
259 37 m 1
 259 74 l 1
 333 74 l 1
 333 37 l 1
 259 37 l 1
259 0 m 1
 259 37 l 1
 333 37 l 1
 333 0 l 1
 259 0 l 1
259 -37 m 1
 259 0 l 1
 333 0 l 1
 333 -37 l 1
 259 -37 l 1
259 -74 m 1
 259 -37 l 1
 333 -37 l 1
 333 -74 l 1
 259 -74 l 1
259 -111 m 1
 259 -74 l 1
 333 -74 l 1
 333 -111 l 1
 259 -111 l 1
259 -148 m 1
 259 -111 l 1
 333 -111 l 1
 333 -148 l 1
 259 -148 l 1
EndSplineSet
EndChar

StartChar: braceright
Encoding: 125 125 94
Width: 593
Flags: HW
LayerCount: 2
Back
Fore
SplineSet
111 667 m 1
 111 704 l 1
 296 704 l 1
 296 667 l 1
 111 667 l 1
111 630 m 1
 111 667 l 1
 370 667 l 1
 370 630 l 1
 111 630 l 1
259 593 m 1
 259 630 l 1
 407 630 l 1
 407 593 l 1
 259 593 l 1
296 556 m 1
 296 593 l 1
 407 593 l 1
 407 556 l 1
 296 556 l 1
296 519 m 1
 296 556 l 1
 407 556 l 1
 407 519 l 1
 296 519 l 1
296 481 m 1
 296 519 l 1
 370 519 l 1
 370 481 l 1
 296 481 l 1
259 444 m 1
 259 481 l 1
 370 481 l 1
 370 444 l 1
 259 444 l 1
259 407 m 1
 259 444 l 1
 333 444 l 1
 333 407 l 1
 259 407 l 1
259 370 m 1
 259 407 l 1
 333 407 l 1
 333 370 l 1
 259 370 l 1
259 333 m 1
 259 370 l 1
 333 370 l 1
 333 333 l 1
 259 333 l 1
296 296 m 1
 296 333 l 1
 370 333 l 1
 370 296 l 1
 296 296 l 1
333 259 m 1
 333 296 l 1
 481 296 l 1
 481 259 l 1
 333 259 l 1
296 222 m 1
 296 259 l 1
 481 259 l 1
 481 222 l 1
 296 222 l 1
259 185 m 1
 259 222 l 1
 370 222 l 1
 370 185 l 1
 259 185 l 1
259 148 m 1
 259 185 l 1
 333 185 l 1
 333 148 l 1
 259 148 l 1
259 111 m 1
 259 148 l 1
 333 148 l 1
 333 111 l 1
 259 111 l 1
259 74 m 1
 259 111 l 1
 333 111 l 1
 333 74 l 1
 259 74 l 1
296 37 m 1
 296 74 l 1
 370 74 l 1
 370 37 l 1
 296 37 l 1
296 0 m 1
 296 37 l 1
 407 37 l 1
 407 0 l 1
 296 0 l 1
296 -37 m 1
 296 0 l 1
 407 0 l 1
 407 -37 l 1
 296 -37 l 1
259 -74 m 1
 259 -37 l 1
 407 -37 l 1
 407 -74 l 1
 259 -74 l 1
111 -111 m 1
 111 -74 l 1
 370 -74 l 1
 370 -111 l 1
 111 -111 l 1
111 -148 m 1
 111 -111 l 1
 296 -111 l 1
 296 -148 l 1
 111 -148 l 1
EndSplineSet
EndChar

StartChar: asciitilde
Encoding: 126 126 95
Width: 593
Flags: HW
LayerCount: 2
Back
Fore
SplineSet
111 296 m 1
 111 333 l 1
 222 333 l 1
 222 296 l 1
 111 296 l 1
444 296 m 1
 444 333 l 1
 519 333 l 1
 519 296 l 1
 444 296 l 1
74 259 m 1
 74 296 l 1
 296 296 l 1
 296 259 l 1
 74 259 l 1
444 259 m 1
 444 296 l 1
 519 296 l 1
 519 259 l 1
 444 259 l 1
37 222 m 1
 37 259 l 1
 111 259 l 1
 111 222 l 1
 37 222 l 1
222 222 m 1
 222 259 l 1
 333 259 l 1
 333 222 l 1
 222 222 l 1
444 222 m 1
 444 259 l 1
 519 259 l 1
 519 222 l 1
 444 222 l 1
37 185 m 1
 37 222 l 1
 111 222 l 1
 111 185 l 1
 37 185 l 1
259 185 m 1
 259 222 l 1
 481 222 l 1
 481 185 l 1
 259 185 l 1
37 148 m 1
 37 185 l 1
 111 185 l 1
 111 148 l 1
 37 148 l 1
333 148 m 1
 333 185 l 1
 444 185 l 1
 444 148 l 1
 333 148 l 1
EndSplineSet
EndChar

StartChar: exclamdown
Encoding: 161 161 97
Width: 593
Flags: HW
LayerCount: 2
Back
Fore
SplineSet
222 481 m 1
 222 519 l 1
 370 519 l 1
 370 481 l 1
 222 481 l 1
222 444 m 1
 222 481 l 1
 370 481 l 1
 370 444 l 1
 222 444 l 1
222 407 m 1
 222 444 l 1
 370 444 l 1
 370 407 l 1
 222 407 l 1
259 296 m 1
 259 333 l 1
 333 333 l 1
 333 296 l 1
 259 296 l 1
259 259 m 1
 259 296 l 1
 333 296 l 1
 333 259 l 1
 259 259 l 1
259 222 m 1
 259 259 l 1
 333 259 l 1
 333 222 l 1
 259 222 l 1
259 185 m 1
 259 222 l 1
 333 222 l 1
 333 185 l 1
 259 185 l 1
259 148 m 1
 259 185 l 1
 333 185 l 1
 333 148 l 1
 259 148 l 1
259 111 m 1
 259 148 l 1
 370 148 l 1
 370 111 l 1
 259 111 l 1
259 74 m 1
 259 111 l 1
 370 111 l 1
 370 74 l 1
 259 74 l 1
259 37 m 1
 259 74 l 1
 370 74 l 1
 370 37 l 1
 259 37 l 1
259 0 m 1
 259 37 l 1
 370 37 l 1
 370 0 l 1
 259 0 l 1
259 -37 m 1
 259 0 l 1
 370 0 l 1
 370 -37 l 1
 259 -37 l 1
259 -74 m 1
 259 -37 l 1
 370 -37 l 1
 370 -74 l 1
 259 -74 l 1
259 -111 m 1
 259 -74 l 1
 370 -74 l 1
 370 -111 l 1
 259 -111 l 1
259 -148 m 1
 259 -111 l 1
 370 -111 l 1
 370 -148 l 1
 259 -148 l 1
259 -185 m 1
 259 -148 l 1
 370 -148 l 1
 370 -185 l 1
 259 -185 l 1
EndSplineSet
EndChar

StartChar: cent
Encoding: 162 162 98
Width: 593
Flags: HW
LayerCount: 2
Back
Fore
SplineSet
296 667 m 1
 296 704 l 1
 370 704 l 1
 370 667 l 1
 296 667 l 1
296 630 m 1
 296 667 l 1
 370 667 l 1
 370 630 l 1
 296 630 l 1
259 593 m 1
 259 630 l 1
 481 630 l 1
 481 593 l 1
 259 593 l 1
185 556 m 1
 185 593 l 1
 481 593 l 1
 481 556 l 1
 185 556 l 1
148 519 m 1
 148 556 l 1
 259 556 l 1
 259 519 l 1
 148 519 l 1
296 519 m 1
 296 556 l 1
 370 556 l 1
 370 519 l 1
 296 519 l 1
444 519 m 1
 444 556 l 1
 481 556 l 1
 481 519 l 1
 444 519 l 1
148 481 m 1
 148 519 l 1
 259 519 l 1
 259 481 l 1
 148 481 l 1
296 481 m 1
 296 519 l 1
 370 519 l 1
 370 481 l 1
 296 481 l 1
111 444 m 1
 111 481 l 1
 222 481 l 1
 222 444 l 1
 111 444 l 1
296 444 m 1
 296 481 l 1
 370 481 l 1
 370 444 l 1
 296 444 l 1
111 407 m 1
 111 444 l 1
 222 444 l 1
 222 407 l 1
 111 407 l 1
296 407 m 1
 296 444 l 1
 370 444 l 1
 370 407 l 1
 296 407 l 1
111 370 m 1
 111 407 l 1
 222 407 l 1
 222 370 l 1
 111 370 l 1
296 370 m 1
 296 407 l 1
 370 407 l 1
 370 370 l 1
 296 370 l 1
111 333 m 1
 111 370 l 1
 222 370 l 1
 222 333 l 1
 111 333 l 1
296 333 m 1
 296 370 l 1
 370 370 l 1
 370 333 l 1
 296 333 l 1
111 296 m 1
 111 333 l 1
 222 333 l 1
 222 296 l 1
 111 296 l 1
296 296 m 1
 296 333 l 1
 370 333 l 1
 370 296 l 1
 296 296 l 1
111 259 m 1
 111 296 l 1
 222 296 l 1
 222 259 l 1
 111 259 l 1
296 259 m 1
 296 296 l 1
 370 296 l 1
 370 259 l 1
 296 259 l 1
111 222 m 1
 111 259 l 1
 222 259 l 1
 222 222 l 1
 111 222 l 1
296 222 m 1
 296 259 l 1
 370 259 l 1
 370 222 l 1
 296 222 l 1
148 185 m 1
 148 222 l 1
 259 222 l 1
 259 185 l 1
 148 185 l 1
296 185 m 1
 296 222 l 1
 370 222 l 1
 370 185 l 1
 296 185 l 1
148 148 m 1
 148 185 l 1
 259 185 l 1
 259 148 l 1
 148 148 l 1
296 148 m 1
 296 185 l 1
 481 185 l 1
 481 148 l 1
 296 148 l 1
185 111 m 1
 185 148 l 1
 481 148 l 1
 481 111 l 1
 185 111 l 1
222 74 m 1
 222 111 l 1
 370 111 l 1
 370 74 l 1
 222 74 l 1
296 37 m 1
 296 74 l 1
 370 74 l 1
 370 37 l 1
 296 37 l 1
296 0 m 1
 296 37 l 1
 370 37 l 1
 370 0 l 1
 296 0 l 1
EndSplineSet
EndChar

StartChar: sterling
Encoding: 163 163 99
Width: 593
Flags: HW
LayerCount: 2
Back
Fore
SplineSet
333 667 m 1
 333 704 l 1
 519 704 l 1
 519 667 l 1
 333 667 l 1
259 630 m 1
 259 667 l 1
 519 667 l 1
 519 630 l 1
 259 630 l 1
259 593 m 1
 259 630 l 1
 333 630 l 1
 333 593 l 1
 259 593 l 1
481 593 m 1
 481 630 l 1
 519 630 l 1
 519 593 l 1
 481 593 l 1
222 556 m 1
 222 593 l 1
 333 593 l 1
 333 556 l 1
 222 556 l 1
222 519 m 1
 222 556 l 1
 333 556 l 1
 333 519 l 1
 222 519 l 1
222 481 m 1
 222 519 l 1
 333 519 l 1
 333 481 l 1
 222 481 l 1
222 444 m 1
 222 481 l 1
 333 481 l 1
 333 444 l 1
 222 444 l 1
222 407 m 1
 222 444 l 1
 333 444 l 1
 333 407 l 1
 222 407 l 1
111 370 m 1
 111 407 l 1
 407 407 l 1
 407 370 l 1
 111 370 l 1
111 333 m 1
 111 370 l 1
 407 370 l 1
 407 333 l 1
 111 333 l 1
222 296 m 1
 222 333 l 1
 333 333 l 1
 333 296 l 1
 222 296 l 1
222 259 m 1
 222 296 l 1
 333 296 l 1
 333 259 l 1
 222 259 l 1
222 222 m 1
 222 259 l 1
 333 259 l 1
 333 222 l 1
 222 222 l 1
222 185 m 1
 222 222 l 1
 333 222 l 1
 333 185 l 1
 222 185 l 1
222 148 m 1
 222 185 l 1
 333 185 l 1
 333 148 l 1
 222 148 l 1
185 111 m 1
 185 148 l 1
 296 148 l 1
 296 111 l 1
 185 111 l 1
148 74 m 1
 148 111 l 1
 259 111 l 1
 259 74 l 1
 148 74 l 1
111 37 m 1
 111 74 l 1
 519 74 l 1
 519 37 l 1
 111 37 l 1
111 0 m 1
 111 37 l 1
 519 37 l 1
 519 0 l 1
 111 0 l 1
EndSplineSet
EndChar

StartChar: currency
Encoding: 164 164 100
Width: 593
Flags: HW
LayerCount: 2
Back
Fore
SplineSet
111 556 m 1
 111 593 l 1
 148 593 l 1
 148 556 l 1
 111 556 l 1
444 556 m 1
 444 593 l 1
 481 593 l 1
 481 556 l 1
 444 556 l 1
74 519 m 1
 74 556 l 1
 148 556 l 1
 148 519 l 1
 74 519 l 1
407 519 m 1
 407 556 l 1
 519 556 l 1
 519 519 l 1
 407 519 l 1
111 481 m 1
 111 519 l 1
 185 519 l 1
 185 481 l 1
 111 481 l 1
222 481 m 1
 222 519 l 1
 370 519 l 1
 370 481 l 1
 222 481 l 1
407 481 m 1
 407 519 l 1
 481 519 l 1
 481 481 l 1
 407 481 l 1
148 444 m 1
 148 481 l 1
 444 481 l 1
 444 444 l 1
 148 444 l 1
111 407 m 1
 111 444 l 1
 222 444 l 1
 222 407 l 1
 111 407 l 1
370 407 m 1
 370 444 l 1
 481 444 l 1
 481 407 l 1
 370 407 l 1
111 370 m 1
 111 407 l 1
 185 407 l 1
 185 370 l 1
 111 370 l 1
407 370 m 1
 407 407 l 1
 481 407 l 1
 481 370 l 1
 407 370 l 1
111 333 m 1
 111 370 l 1
 185 370 l 1
 185 333 l 1
 111 333 l 1
407 333 m 1
 407 370 l 1
 481 370 l 1
 481 333 l 1
 407 333 l 1
111 296 m 1
 111 333 l 1
 185 333 l 1
 185 296 l 1
 111 296 l 1
407 296 m 1
 407 333 l 1
 481 333 l 1
 481 296 l 1
 407 296 l 1
111 259 m 1
 111 296 l 1
 185 296 l 1
 185 259 l 1
 111 259 l 1
407 259 m 1
 407 296 l 1
 481 296 l 1
 481 259 l 1
 407 259 l 1
148 222 m 1
 148 259 l 1
 222 259 l 1
 222 222 l 1
 148 222 l 1
370 222 m 1
 370 259 l 1
 444 259 l 1
 444 222 l 1
 370 222 l 1
111 185 m 1
 111 222 l 1
 481 222 l 1
 481 185 l 1
 111 185 l 1
74 148 m 1
 74 185 l 1
 185 185 l 1
 185 148 l 1
 74 148 l 1
222 148 m 1
 222 185 l 1
 370 185 l 1
 370 148 l 1
 222 148 l 1
407 148 m 1
 407 185 l 1
 519 185 l 1
 519 148 l 1
 407 148 l 1
111 111 m 1
 111 148 l 1
 148 148 l 1
 148 111 l 1
 111 111 l 1
444 111 m 1
 444 148 l 1
 481 148 l 1
 481 111 l 1
 444 111 l 1
EndSplineSet
EndChar

StartChar: yen
Encoding: 165 165 101
Width: 593
Flags: HW
LayerCount: 2
Back
Fore
SplineSet
0 667 m 1
 0 704 l 1
 148 704 l 1
 148 667 l 1
 0 667 l 1
444 667 m 1
 444 704 l 1
 556 704 l 1
 556 667 l 1
 444 667 l 1
37 630 m 1
 37 667 l 1
 148 667 l 1
 148 630 l 1
 37 630 l 1
444 630 m 1
 444 667 l 1
 519 667 l 1
 519 630 l 1
 444 630 l 1
37 593 m 1
 37 630 l 1
 185 630 l 1
 185 593 l 1
 37 593 l 1
407 593 m 1
 407 630 l 1
 481 630 l 1
 481 593 l 1
 407 593 l 1
74 556 m 1
 74 593 l 1
 185 593 l 1
 185 556 l 1
 74 556 l 1
407 556 m 1
 407 593 l 1
 481 593 l 1
 481 556 l 1
 407 556 l 1
74 519 m 1
 74 556 l 1
 222 556 l 1
 222 519 l 1
 74 519 l 1
370 519 m 1
 370 556 l 1
 444 556 l 1
 444 519 l 1
 370 519 l 1
111 481 m 1
 111 519 l 1
 259 519 l 1
 259 481 l 1
 111 481 l 1
333 481 m 1
 333 519 l 1
 444 519 l 1
 444 481 l 1
 333 481 l 1
148 444 m 1
 148 481 l 1
 259 481 l 1
 259 444 l 1
 148 444 l 1
333 444 m 1
 333 481 l 1
 407 481 l 1
 407 444 l 1
 333 444 l 1
148 407 m 1
 148 444 l 1
 407 444 l 1
 407 407 l 1
 148 407 l 1
185 370 m 1
 185 407 l 1
 370 407 l 1
 370 370 l 1
 185 370 l 1
185 333 m 1
 185 370 l 1
 333 370 l 1
 333 333 l 1
 185 333 l 1
74 296 m 1
 74 333 l 1
 444 333 l 1
 444 296 l 1
 74 296 l 1
74 259 m 1
 74 296 l 1
 444 296 l 1
 444 259 l 1
 74 259 l 1
222 222 m 1
 222 259 l 1
 333 259 l 1
 333 222 l 1
 222 222 l 1
74 185 m 1
 74 222 l 1
 444 222 l 1
 444 185 l 1
 74 185 l 1
74 148 m 1
 74 185 l 1
 444 185 l 1
 444 148 l 1
 74 148 l 1
222 111 m 1
 222 148 l 1
 333 148 l 1
 333 111 l 1
 222 111 l 1
222 74 m 1
 222 111 l 1
 333 111 l 1
 333 74 l 1
 222 74 l 1
222 37 m 1
 222 74 l 1
 333 74 l 1
 333 37 l 1
 222 37 l 1
222 0 m 1
 222 37 l 1
 333 37 l 1
 333 0 l 1
 222 0 l 1
EndSplineSet
EndChar

StartChar: brokenbar
Encoding: 166 166 102
Width: 593
Flags: HW
LayerCount: 2
Back
Fore
SplineSet
259 667 m 1
 259 704 l 1
 333 704 l 1
 333 667 l 1
 259 667 l 1
259 630 m 1
 259 667 l 1
 333 667 l 1
 333 630 l 1
 259 630 l 1
259 593 m 1
 259 630 l 1
 333 630 l 1
 333 593 l 1
 259 593 l 1
259 556 m 1
 259 593 l 1
 333 593 l 1
 333 556 l 1
 259 556 l 1
259 519 m 1
 259 556 l 1
 333 556 l 1
 333 519 l 1
 259 519 l 1
259 481 m 1
 259 519 l 1
 333 519 l 1
 333 481 l 1
 259 481 l 1
259 444 m 1
 259 481 l 1
 333 481 l 1
 333 444 l 1
 259 444 l 1
259 407 m 1
 259 444 l 1
 333 444 l 1
 333 407 l 1
 259 407 l 1
259 370 m 1
 259 407 l 1
 333 407 l 1
 333 370 l 1
 259 370 l 1
259 148 m 1
 259 185 l 1
 333 185 l 1
 333 148 l 1
 259 148 l 1
259 111 m 1
 259 148 l 1
 333 148 l 1
 333 111 l 1
 259 111 l 1
259 74 m 1
 259 111 l 1
 333 111 l 1
 333 74 l 1
 259 74 l 1
259 37 m 1
 259 74 l 1
 333 74 l 1
 333 37 l 1
 259 37 l 1
259 0 m 1
 259 37 l 1
 333 37 l 1
 333 0 l 1
 259 0 l 1
259 -37 m 1
 259 0 l 1
 333 0 l 1
 333 -37 l 1
 259 -37 l 1
259 -74 m 1
 259 -37 l 1
 333 -37 l 1
 333 -74 l 1
 259 -74 l 1
259 -111 m 1
 259 -74 l 1
 333 -74 l 1
 333 -111 l 1
 259 -111 l 1
259 -148 m 1
 259 -111 l 1
 333 -111 l 1
 333 -148 l 1
 259 -148 l 1
EndSplineSet
EndChar

StartChar: section
Encoding: 167 167 103
Width: 593
Flags: HW
LayerCount: 2
Back
Fore
SplineSet
222 667 m 1
 222 704 l 1
 444 704 l 1
 444 667 l 1
 222 667 l 1
148 630 m 1
 148 667 l 1
 444 667 l 1
 444 630 l 1
 148 630 l 1
111 593 m 1
 111 630 l 1
 222 630 l 1
 222 593 l 1
 111 593 l 1
407 593 m 1
 407 630 l 1
 444 630 l 1
 444 593 l 1
 407 593 l 1
111 556 m 1
 111 593 l 1
 185 593 l 1
 185 556 l 1
 111 556 l 1
111 519 m 1
 111 556 l 1
 185 556 l 1
 185 519 l 1
 111 519 l 1
111 481 m 1
 111 519 l 1
 222 519 l 1
 222 481 l 1
 111 481 l 1
148 444 m 1
 148 481 l 1
 296 481 l 1
 296 444 l 1
 148 444 l 1
148 407 m 1
 148 444 l 1
 370 444 l 1
 370 407 l 1
 148 407 l 1
148 370 m 1
 148 407 l 1
 407 407 l 1
 407 370 l 1
 148 370 l 1
111 333 m 1
 111 370 l 1
 185 370 l 1
 185 333 l 1
 111 333 l 1
259 333 m 1
 259 370 l 1
 444 370 l 1
 444 333 l 1
 259 333 l 1
111 296 m 1
 111 333 l 1
 185 333 l 1
 185 296 l 1
 111 296 l 1
333 296 m 1
 333 333 l 1
 444 333 l 1
 444 296 l 1
 333 296 l 1
111 259 m 1
 111 296 l 1
 185 296 l 1
 185 259 l 1
 111 259 l 1
370 259 m 1
 370 296 l 1
 444 296 l 1
 444 259 l 1
 370 259 l 1
111 222 m 1
 111 259 l 1
 259 259 l 1
 259 222 l 1
 111 222 l 1
370 222 m 1
 370 259 l 1
 444 259 l 1
 444 222 l 1
 370 222 l 1
148 185 m 1
 148 222 l 1
 333 222 l 1
 333 185 l 1
 148 185 l 1
370 185 m 1
 370 222 l 1
 407 222 l 1
 407 185 l 1
 370 185 l 1
148 148 m 1
 148 185 l 1
 407 185 l 1
 407 148 l 1
 148 148 l 1
222 111 m 1
 222 148 l 1
 407 148 l 1
 407 111 l 1
 222 111 l 1
296 74 m 1
 296 111 l 1
 444 111 l 1
 444 74 l 1
 296 74 l 1
333 37 m 1
 333 74 l 1
 481 74 l 1
 481 37 l 1
 333 37 l 1
370 0 m 1
 370 37 l 1
 481 37 l 1
 481 0 l 1
 370 0 l 1
370 -37 m 1
 370 0 l 1
 481 0 l 1
 481 -37 l 1
 370 -37 l 1
111 -74 m 1
 111 -37 l 1
 148 -37 l 1
 148 -74 l 1
 111 -74 l 1
333 -74 m 1
 333 -37 l 1
 481 -37 l 1
 481 -74 l 1
 333 -74 l 1
111 -111 m 1
 111 -74 l 1
 444 -74 l 1
 444 -111 l 1
 111 -111 l 1
148 -148 m 1
 148 -111 l 1
 407 -111 l 1
 407 -148 l 1
 148 -148 l 1
EndSplineSet
EndChar

StartChar: dieresis
Encoding: 168 168 104
Width: 593
Flags: HW
LayerCount: 2
Back
Fore
SplineSet
148 667 m 1
 148 704 l 1
 222 704 l 1
 222 667 l 1
 148 667 l 1
333 667 m 1
 333 704 l 1
 407 704 l 1
 407 667 l 1
 333 667 l 1
148 630 m 1
 148 667 l 1
 222 667 l 1
 222 630 l 1
 148 630 l 1
333 630 m 1
 333 667 l 1
 407 667 l 1
 407 630 l 1
 333 630 l 1
EndSplineSet
EndChar

StartChar: copyright
Encoding: 169 169 105
Width: 593
Flags: HW
LayerCount: 2
Back
Fore
SplineSet
185 667 m 1
 185 704 l 1
 407 704 l 1
 407 667 l 1
 185 667 l 1
148 630 m 1
 148 667 l 1
 481 667 l 1
 481 630 l 1
 148 630 l 1
111 593 m 1
 111 630 l 1
 222 630 l 1
 222 593 l 1
 111 593 l 1
370 593 m 1
 370 630 l 1
 519 630 l 1
 519 593 l 1
 370 593 l 1
74 556 m 1
 74 593 l 1
 148 593 l 1
 148 556 l 1
 74 556 l 1
444 556 m 1
 444 593 l 1
 519 593 l 1
 519 556 l 1
 444 556 l 1
74 519 m 1
 74 556 l 1
 148 556 l 1
 148 519 l 1
 74 519 l 1
222 519 m 1
 222 556 l 1
 407 556 l 1
 407 519 l 1
 222 519 l 1
444 519 m 1
 444 556 l 1
 519 556 l 1
 519 519 l 1
 444 519 l 1
37 481 m 1
 37 519 l 1
 111 519 l 1
 111 481 l 1
 37 481 l 1
185 481 m 1
 185 519 l 1
 407 519 l 1
 407 481 l 1
 185 481 l 1
481 481 m 1
 481 519 l 1
 556 519 l 1
 556 481 l 1
 481 481 l 1
37 444 m 1
 37 481 l 1
 111 481 l 1
 111 444 l 1
 37 444 l 1
185 444 m 1
 185 481 l 1
 259 481 l 1
 259 444 l 1
 185 444 l 1
370 444 m 1
 370 481 l 1
 407 481 l 1
 407 444 l 1
 370 444 l 1
481 444 m 1
 481 481 l 1
 556 481 l 1
 556 444 l 1
 481 444 l 1
37 407 m 1
 37 444 l 1
 111 444 l 1
 111 407 l 1
 37 407 l 1
148 407 m 1
 148 444 l 1
 222 444 l 1
 222 407 l 1
 148 407 l 1
481 407 m 1
 481 444 l 1
 556 444 l 1
 556 407 l 1
 481 407 l 1
37 370 m 1
 37 407 l 1
 111 407 l 1
 111 370 l 1
 37 370 l 1
148 370 m 1
 148 407 l 1
 222 407 l 1
 222 370 l 1
 148 370 l 1
481 370 m 1
 481 407 l 1
 556 407 l 1
 556 370 l 1
 481 370 l 1
37 333 m 1
 37 370 l 1
 111 370 l 1
 111 333 l 1
 37 333 l 1
148 333 m 1
 148 370 l 1
 222 370 l 1
 222 333 l 1
 148 333 l 1
481 333 m 1
 481 370 l 1
 556 370 l 1
 556 333 l 1
 481 333 l 1
37 296 m 1
 37 333 l 1
 111 333 l 1
 111 296 l 1
 37 296 l 1
148 296 m 1
 148 333 l 1
 222 333 l 1
 222 296 l 1
 148 296 l 1
481 296 m 1
 481 333 l 1
 556 333 l 1
 556 296 l 1
 481 296 l 1
37 259 m 1
 37 296 l 1
 111 296 l 1
 111 259 l 1
 37 259 l 1
148 259 m 1
 148 296 l 1
 222 296 l 1
 222 259 l 1
 148 259 l 1
481 259 m 1
 481 296 l 1
 556 296 l 1
 556 259 l 1
 481 259 l 1
37 222 m 1
 37 259 l 1
 111 259 l 1
 111 222 l 1
 37 222 l 1
185 222 m 1
 185 259 l 1
 259 259 l 1
 259 222 l 1
 185 222 l 1
370 222 m 1
 370 259 l 1
 407 259 l 1
 407 222 l 1
 370 222 l 1
481 222 m 1
 481 259 l 1
 556 259 l 1
 556 222 l 1
 481 222 l 1
37 185 m 1
 37 222 l 1
 111 222 l 1
 111 185 l 1
 37 185 l 1
185 185 m 1
 185 222 l 1
 407 222 l 1
 407 185 l 1
 185 185 l 1
481 185 m 1
 481 222 l 1
 556 222 l 1
 556 185 l 1
 481 185 l 1
74 148 m 1
 74 185 l 1
 148 185 l 1
 148 148 l 1
 74 148 l 1
222 148 m 1
 222 185 l 1
 370 185 l 1
 370 148 l 1
 222 148 l 1
444 148 m 1
 444 185 l 1
 519 185 l 1
 519 148 l 1
 444 148 l 1
74 111 m 1
 74 148 l 1
 148 148 l 1
 148 111 l 1
 74 111 l 1
444 111 m 1
 444 148 l 1
 519 148 l 1
 519 111 l 1
 444 111 l 1
74 74 m 1
 74 111 l 1
 222 111 l 1
 222 74 l 1
 74 74 l 1
370 74 m 1
 370 111 l 1
 481 111 l 1
 481 74 l 1
 370 74 l 1
111 37 m 1
 111 74 l 1
 444 74 l 1
 444 37 l 1
 111 37 l 1
185 0 m 1
 185 37 l 1
 407 37 l 1
 407 0 l 1
 185 0 l 1
EndSplineSet
EndChar

StartChar: ordfeminine
Encoding: 170 170 106
Width: 593
Flags: HW
LayerCount: 2
Back
Fore
SplineSet
185 667 m 1
 185 704 l 1
 407 704 l 1
 407 667 l 1
 185 667 l 1
148 630 m 1
 148 667 l 1
 444 667 l 1
 444 630 l 1
 148 630 l 1
148 593 m 1
 148 630 l 1
 222 630 l 1
 222 593 l 1
 148 593 l 1
333 593 m 1
 333 630 l 1
 444 630 l 1
 444 593 l 1
 333 593 l 1
370 556 m 1
 370 593 l 1
 444 593 l 1
 444 556 l 1
 370 556 l 1
222 519 m 1
 222 556 l 1
 444 556 l 1
 444 519 l 1
 222 519 l 1
185 481 m 1
 185 519 l 1
 444 519 l 1
 444 481 l 1
 185 481 l 1
148 444 m 1
 148 481 l 1
 222 481 l 1
 222 444 l 1
 148 444 l 1
370 444 m 1
 370 481 l 1
 444 481 l 1
 444 444 l 1
 370 444 l 1
148 407 m 1
 148 444 l 1
 222 444 l 1
 222 407 l 1
 148 407 l 1
370 407 m 1
 370 444 l 1
 444 444 l 1
 444 407 l 1
 370 407 l 1
148 370 m 1
 148 407 l 1
 481 407 l 1
 481 370 l 1
 148 370 l 1
185 333 m 1
 185 370 l 1
 296 370 l 1
 296 333 l 1
 185 333 l 1
370 333 m 1
 370 370 l 1
 481 370 l 1
 481 333 l 1
 370 333 l 1
EndSplineSet
EndChar

StartChar: guillemotleft
Encoding: 171 171 107
Width: 593
Flags: HW
LayerCount: 2
Back
Fore
SplineSet
259 444 m 1
 259 481 l 1
 296 481 l 1
 296 444 l 1
 259 444 l 1
444 444 m 1
 444 481 l 1
 481 481 l 1
 481 444 l 1
 444 444 l 1
222 407 m 1
 222 444 l 1
 333 444 l 1
 333 407 l 1
 222 407 l 1
407 407 m 1
 407 444 l 1
 519 444 l 1
 519 407 l 1
 407 407 l 1
185 370 m 1
 185 407 l 1
 296 407 l 1
 296 370 l 1
 185 370 l 1
370 370 m 1
 370 407 l 1
 481 407 l 1
 481 370 l 1
 370 370 l 1
148 333 m 1
 148 370 l 1
 259 370 l 1
 259 333 l 1
 148 333 l 1
370 333 m 1
 370 370 l 1
 444 370 l 1
 444 333 l 1
 370 333 l 1
111 296 m 1
 111 333 l 1
 222 333 l 1
 222 296 l 1
 111 296 l 1
333 296 m 1
 333 333 l 1
 407 333 l 1
 407 296 l 1
 333 296 l 1
74 259 m 1
 74 296 l 1
 185 296 l 1
 185 259 l 1
 74 259 l 1
259 259 m 1
 259 296 l 1
 407 296 l 1
 407 259 l 1
 259 259 l 1
74 222 m 1
 74 259 l 1
 185 259 l 1
 185 222 l 1
 74 222 l 1
296 222 m 1
 296 259 l 1
 407 259 l 1
 407 222 l 1
 296 222 l 1
111 185 m 1
 111 222 l 1
 222 222 l 1
 222 185 l 1
 111 185 l 1
333 185 m 1
 333 222 l 1
 407 222 l 1
 407 185 l 1
 333 185 l 1
148 148 m 1
 148 185 l 1
 259 185 l 1
 259 148 l 1
 148 148 l 1
370 148 m 1
 370 185 l 1
 444 185 l 1
 444 148 l 1
 370 148 l 1
185 111 m 1
 185 148 l 1
 296 148 l 1
 296 111 l 1
 185 111 l 1
370 111 m 1
 370 148 l 1
 481 148 l 1
 481 111 l 1
 370 111 l 1
222 74 m 1
 222 111 l 1
 296 111 l 1
 296 74 l 1
 222 74 l 1
407 74 m 1
 407 111 l 1
 519 111 l 1
 519 74 l 1
 407 74 l 1
259 37 m 1
 259 74 l 1
 333 74 l 1
 333 37 l 1
 259 37 l 1
444 37 m 1
 444 74 l 1
 481 74 l 1
 481 37 l 1
 444 37 l 1
EndSplineSet
EndChar

StartChar: logicalnot
Encoding: 172 172 108
Width: 593
Flags: HW
LayerCount: 2
Back
Fore
SplineSet
37 333 m 1
 37 370 l 1
 519 370 l 1
 519 333 l 1
 37 333 l 1
37 296 m 1
 37 333 l 1
 519 333 l 1
 519 296 l 1
 37 296 l 1
444 259 m 1
 444 296 l 1
 519 296 l 1
 519 259 l 1
 444 259 l 1
444 222 m 1
 444 259 l 1
 519 259 l 1
 519 222 l 1
 444 222 l 1
444 185 m 1
 444 222 l 1
 519 222 l 1
 519 185 l 1
 444 185 l 1
444 148 m 1
 444 185 l 1
 519 185 l 1
 519 148 l 1
 444 148 l 1
EndSplineSet
EndChar

StartChar: hyphen
Encoding: 45 45 109
Width: 593
Flags: HW
LayerCount: 2
Back
Fore
SplineSet
111 296 m 1
 111 333 l 1
 481 333 l 1
 481 296 l 1
 111 296 l 1
111 259 m 1
 111 296 l 1
 481 296 l 1
 481 259 l 1
 111 259 l 1
EndSplineSet
EndChar

StartChar: registered
Encoding: 174 174 110
Width: 593
Flags: HW
LayerCount: 2
Back
Fore
SplineSet
222 667 m 1
 222 704 l 1
 370 704 l 1
 370 667 l 1
 222 667 l 1
185 630 m 1
 185 667 l 1
 222 667 l 1
 222 630 l 1
 185 630 l 1
370 630 m 1
 370 667 l 1
 407 667 l 1
 407 630 l 1
 370 630 l 1
148 593 m 1
 148 630 l 1
 185 630 l 1
 185 593 l 1
 148 593 l 1
222 593 m 1
 222 630 l 1
 370 630 l 1
 370 593 l 1
 222 593 l 1
407 593 m 1
 407 630 l 1
 444 630 l 1
 444 593 l 1
 407 593 l 1
111 556 m 1
 111 593 l 1
 148 593 l 1
 148 556 l 1
 111 556 l 1
222 556 m 1
 222 593 l 1
 259 593 l 1
 259 556 l 1
 222 556 l 1
333 556 m 1
 333 593 l 1
 370 593 l 1
 370 556 l 1
 333 556 l 1
444 556 m 1
 444 593 l 1
 481 593 l 1
 481 556 l 1
 444 556 l 1
111 519 m 1
 111 556 l 1
 148 556 l 1
 148 519 l 1
 111 519 l 1
222 519 m 1
 222 556 l 1
 259 556 l 1
 259 519 l 1
 222 519 l 1
333 519 m 1
 333 556 l 1
 370 556 l 1
 370 519 l 1
 333 519 l 1
444 519 m 1
 444 556 l 1
 481 556 l 1
 481 519 l 1
 444 519 l 1
111 481 m 1
 111 519 l 1
 148 519 l 1
 148 481 l 1
 111 481 l 1
222 481 m 1
 222 519 l 1
 333 519 l 1
 333 481 l 1
 222 481 l 1
444 481 m 1
 444 519 l 1
 481 519 l 1
 481 481 l 1
 444 481 l 1
111 444 m 1
 111 481 l 1
 148 481 l 1
 148 444 l 1
 111 444 l 1
222 444 m 1
 222 481 l 1
 259 481 l 1
 259 444 l 1
 222 444 l 1
296 444 m 1
 296 481 l 1
 333 481 l 1
 333 444 l 1
 296 444 l 1
444 444 m 1
 444 481 l 1
 481 481 l 1
 481 444 l 1
 444 444 l 1
111 407 m 1
 111 444 l 1
 148 444 l 1
 148 407 l 1
 111 407 l 1
222 407 m 1
 222 444 l 1
 259 444 l 1
 259 407 l 1
 222 407 l 1
296 407 m 1
 296 444 l 1
 333 444 l 1
 333 407 l 1
 296 407 l 1
444 407 m 1
 444 444 l 1
 481 444 l 1
 481 407 l 1
 444 407 l 1
148 370 m 1
 148 407 l 1
 185 407 l 1
 185 370 l 1
 148 370 l 1
222 370 m 1
 222 407 l 1
 259 407 l 1
 259 370 l 1
 222 370 l 1
333 370 m 1
 333 407 l 1
 370 407 l 1
 370 370 l 1
 333 370 l 1
407 370 m 1
 407 407 l 1
 444 407 l 1
 444 370 l 1
 407 370 l 1
185 333 m 1
 185 370 l 1
 222 370 l 1
 222 333 l 1
 185 333 l 1
370 333 m 1
 370 370 l 1
 407 370 l 1
 407 333 l 1
 370 333 l 1
222 296 m 1
 222 333 l 1
 370 333 l 1
 370 296 l 1
 222 296 l 1
EndSplineSet
EndChar

StartChar: macron
Encoding: 175 175 111
Width: 593
Flags: HW
LayerCount: 2
Back
Fore
SplineSet
148 667 m 1
 148 704 l 1
 407 704 l 1
 407 667 l 1
 148 667 l 1
148 630 m 1
 148 667 l 1
 407 667 l 1
 407 630 l 1
 148 630 l 1
EndSplineSet
EndChar

StartChar: degree
Encoding: 176 176 112
Width: 593
Flags: HW
LayerCount: 2
Back
Fore
SplineSet
259 667 m 1
 259 704 l 1
 333 704 l 1
 333 667 l 1
 259 667 l 1
222 630 m 1
 222 667 l 1
 259 667 l 1
 259 630 l 1
 222 630 l 1
333 630 m 1
 333 667 l 1
 370 667 l 1
 370 630 l 1
 333 630 l 1
222 593 m 1
 222 630 l 1
 259 630 l 1
 259 593 l 1
 222 593 l 1
333 593 m 1
 333 630 l 1
 370 630 l 1
 370 593 l 1
 333 593 l 1
259 556 m 1
 259 593 l 1
 333 593 l 1
 333 556 l 1
 259 556 l 1
EndSplineSet
EndChar

StartChar: plusminus
Encoding: 177 177 113
Width: 593
Flags: HW
LayerCount: 2
Back
Fore
SplineSet
259 481 m 1
 259 519 l 1
 333 519 l 1
 333 481 l 1
 259 481 l 1
259 444 m 1
 259 481 l 1
 333 481 l 1
 333 444 l 1
 259 444 l 1
259 407 m 1
 259 444 l 1
 333 444 l 1
 333 407 l 1
 259 407 l 1
259 370 m 1
 259 407 l 1
 333 407 l 1
 333 370 l 1
 259 370 l 1
37 333 m 1
 37 370 l 1
 556 370 l 1
 556 333 l 1
 37 333 l 1
37 296 m 1
 37 333 l 1
 556 333 l 1
 556 296 l 1
 37 296 l 1
259 259 m 1
 259 296 l 1
 333 296 l 1
 333 259 l 1
 259 259 l 1
259 222 m 1
 259 259 l 1
 333 259 l 1
 333 222 l 1
 259 222 l 1
259 185 m 1
 259 222 l 1
 333 222 l 1
 333 185 l 1
 259 185 l 1
259 148 m 1
 259 185 l 1
 333 185 l 1
 333 148 l 1
 259 148 l 1
37 37 m 1
 37 74 l 1
 556 74 l 1
 556 37 l 1
 37 37 l 1
37 0 m 1
 37 37 l 1
 556 37 l 1
 556 0 l 1
 37 0 l 1
EndSplineSet
EndChar

StartChar: twosuperior
Encoding: 178 178 114
Width: 593
Flags: HW
LayerCount: 2
Back
Fore
SplineSet
-111 667 m 1
 -111 704 l 1
 37 704 l 1
 37 667 l 1
 -111 667 l 1
-111 630 m 1
 -111 667 l 1
 -74 667 l 1
 -74 630 l 1
 -111 630 l 1
37 630 m 1
 37 667 l 1
 74 667 l 1
 74 630 l 1
 37 630 l 1
37 593 m 1
 37 630 l 1
 74 630 l 1
 74 593 l 1
 37 593 l 1
37 556 m 1
 37 593 l 1
 74 593 l 1
 74 556 l 1
 37 556 l 1
0 519 m 1
 0 556 l 1
 37 556 l 1
 37 519 l 1
 0 519 l 1
-37 481 m 1
 -37 519 l 1
 0 519 l 1
 0 481 l 1
 -37 481 l 1
-74 444 m 1
 -74 481 l 1
 -37 481 l 1
 -37 444 l 1
 -74 444 l 1
-111 407 m 1
 -111 444 l 1
 -37 444 l 1
 -37 407 l 1
 -111 407 l 1
-111 370 m 1
 -111 407 l 1
 74 407 l 1
 74 370 l 1
 -111 370 l 1
EndSplineSet
EndChar

StartChar: threesuperior
Encoding: 179 179 115
Width: 593
Flags: HW
LayerCount: 2
Back
Fore
SplineSet
-111 667 m 1
 -111 704 l 1
 37 704 l 1
 37 667 l 1
 -111 667 l 1
-111 630 m 1
 -111 667 l 1
 -74 667 l 1
 -74 630 l 1
 -111 630 l 1
37 630 m 1
 37 667 l 1
 74 667 l 1
 74 630 l 1
 37 630 l 1
37 593 m 1
 37 630 l 1
 74 630 l 1
 74 593 l 1
 37 593 l 1
37 556 m 1
 37 593 l 1
 74 593 l 1
 74 556 l 1
 37 556 l 1
-74 519 m 1
 -74 556 l 1
 37 556 l 1
 37 519 l 1
 -74 519 l 1
0 481 m 1
 0 519 l 1
 74 519 l 1
 74 481 l 1
 0 481 l 1
37 444 m 1
 37 481 l 1
 74 481 l 1
 74 444 l 1
 37 444 l 1
37 407 m 1
 37 444 l 1
 74 444 l 1
 74 407 l 1
 37 407 l 1
-111 370 m 1
 -111 407 l 1
 37 407 l 1
 37 370 l 1
 -111 370 l 1
EndSplineSet
EndChar

StartChar: acute
Encoding: 180 180 116
Width: 593
Flags: HW
LayerCount: 2
Back
Fore
SplineSet
259 667 m 1
 259 704 l 1
 370 704 l 1
 370 667 l 1
 259 667 l 1
222 630 m 1
 222 667 l 1
 333 667 l 1
 333 630 l 1
 222 630 l 1
185 593 m 1
 185 630 l 1
 296 630 l 1
 296 593 l 1
 185 593 l 1
148 556 m 1
 148 593 l 1
 259 593 l 1
 259 556 l 1
 148 556 l 1
EndSplineSet
EndChar

StartChar: mu
Encoding: 181 181 117
Width: 593
Flags: HW
LayerCount: 2
Back
Fore
SplineSet
74 481 m 1
 74 519 l 1
 185 519 l 1
 185 481 l 1
 74 481 l 1
370 481 m 1
 370 519 l 1
 481 519 l 1
 481 481 l 1
 370 481 l 1
74 444 m 1
 74 481 l 1
 185 481 l 1
 185 444 l 1
 74 444 l 1
370 444 m 1
 370 481 l 1
 481 481 l 1
 481 444 l 1
 370 444 l 1
74 407 m 1
 74 444 l 1
 185 444 l 1
 185 407 l 1
 74 407 l 1
370 407 m 1
 370 444 l 1
 481 444 l 1
 481 407 l 1
 370 407 l 1
74 370 m 1
 74 407 l 1
 185 407 l 1
 185 370 l 1
 74 370 l 1
370 370 m 1
 370 407 l 1
 481 407 l 1
 481 370 l 1
 370 370 l 1
74 333 m 1
 74 370 l 1
 185 370 l 1
 185 333 l 1
 74 333 l 1
370 333 m 1
 370 370 l 1
 481 370 l 1
 481 333 l 1
 370 333 l 1
74 296 m 1
 74 333 l 1
 185 333 l 1
 185 296 l 1
 74 296 l 1
370 296 m 1
 370 333 l 1
 481 333 l 1
 481 296 l 1
 370 296 l 1
74 259 m 1
 74 296 l 1
 185 296 l 1
 185 259 l 1
 74 259 l 1
370 259 m 1
 370 296 l 1
 481 296 l 1
 481 259 l 1
 370 259 l 1
74 222 m 1
 74 259 l 1
 185 259 l 1
 185 222 l 1
 74 222 l 1
370 222 m 1
 370 259 l 1
 481 259 l 1
 481 222 l 1
 370 222 l 1
74 185 m 1
 74 222 l 1
 185 222 l 1
 185 185 l 1
 74 185 l 1
370 185 m 1
 370 222 l 1
 481 222 l 1
 481 185 l 1
 370 185 l 1
74 148 m 1
 74 185 l 1
 185 185 l 1
 185 148 l 1
 74 148 l 1
333 148 m 1
 333 185 l 1
 481 185 l 1
 481 148 l 1
 333 148 l 1
74 111 m 1
 74 148 l 1
 185 148 l 1
 185 111 l 1
 74 111 l 1
296 111 m 1
 296 148 l 1
 481 148 l 1
 481 111 l 1
 296 111 l 1
74 74 m 1
 74 111 l 1
 333 111 l 1
 333 74 l 1
 74 74 l 1
370 74 m 1
 370 111 l 1
 481 111 l 1
 481 74 l 1
 370 74 l 1
74 37 m 1
 74 74 l 1
 333 74 l 1
 333 37 l 1
 74 37 l 1
370 37 m 1
 370 74 l 1
 481 74 l 1
 481 37 l 1
 370 37 l 1
74 0 m 1
 74 37 l 1
 296 37 l 1
 296 0 l 1
 74 0 l 1
370 0 m 1
 370 37 l 1
 481 37 l 1
 481 0 l 1
 370 0 l 1
74 -37 m 1
 74 0 l 1
 185 0 l 1
 185 -37 l 1
 74 -37 l 1
74 -74 m 1
 74 -37 l 1
 185 -37 l 1
 185 -74 l 1
 74 -74 l 1
74 -111 m 1
 74 -74 l 1
 185 -74 l 1
 185 -111 l 1
 74 -111 l 1
74 -148 m 1
 74 -111 l 1
 185 -111 l 1
 185 -148 l 1
 74 -148 l 1
EndSplineSet
EndChar

StartChar: paragraph
Encoding: 182 182 118
Width: 593
Flags: HW
LayerCount: 2
Back
Fore
SplineSet
148 667 m 1
 148 704 l 1
 444 704 l 1
 444 667 l 1
 148 667 l 1
111 630 m 1
 111 667 l 1
 444 667 l 1
 444 630 l 1
 111 630 l 1
74 593 m 1
 74 630 l 1
 333 630 l 1
 333 593 l 1
 74 593 l 1
370 593 m 1
 370 630 l 1
 444 630 l 1
 444 593 l 1
 370 593 l 1
74 556 m 1
 74 593 l 1
 333 593 l 1
 333 556 l 1
 74 556 l 1
370 556 m 1
 370 593 l 1
 444 593 l 1
 444 556 l 1
 370 556 l 1
74 519 m 1
 74 556 l 1
 333 556 l 1
 333 519 l 1
 74 519 l 1
370 519 m 1
 370 556 l 1
 444 556 l 1
 444 519 l 1
 370 519 l 1
74 481 m 1
 74 519 l 1
 333 519 l 1
 333 481 l 1
 74 481 l 1
370 481 m 1
 370 519 l 1
 444 519 l 1
 444 481 l 1
 370 481 l 1
74 444 m 1
 74 481 l 1
 333 481 l 1
 333 444 l 1
 74 444 l 1
370 444 m 1
 370 481 l 1
 444 481 l 1
 444 444 l 1
 370 444 l 1
111 407 m 1
 111 444 l 1
 333 444 l 1
 333 407 l 1
 111 407 l 1
370 407 m 1
 370 444 l 1
 444 444 l 1
 444 407 l 1
 370 407 l 1
148 370 m 1
 148 407 l 1
 333 407 l 1
 333 370 l 1
 148 370 l 1
370 370 m 1
 370 407 l 1
 444 407 l 1
 444 370 l 1
 370 370 l 1
222 333 m 1
 222 370 l 1
 333 370 l 1
 333 333 l 1
 222 333 l 1
370 333 m 1
 370 370 l 1
 444 370 l 1
 444 333 l 1
 370 333 l 1
259 296 m 1
 259 333 l 1
 333 333 l 1
 333 296 l 1
 259 296 l 1
370 296 m 1
 370 333 l 1
 444 333 l 1
 444 296 l 1
 370 296 l 1
259 259 m 1
 259 296 l 1
 333 296 l 1
 333 259 l 1
 259 259 l 1
370 259 m 1
 370 296 l 1
 444 296 l 1
 444 259 l 1
 370 259 l 1
259 222 m 1
 259 259 l 1
 333 259 l 1
 333 222 l 1
 259 222 l 1
370 222 m 1
 370 259 l 1
 444 259 l 1
 444 222 l 1
 370 222 l 1
259 185 m 1
 259 222 l 1
 333 222 l 1
 333 185 l 1
 259 185 l 1
370 185 m 1
 370 222 l 1
 444 222 l 1
 444 185 l 1
 370 185 l 1
259 148 m 1
 259 185 l 1
 333 185 l 1
 333 148 l 1
 259 148 l 1
370 148 m 1
 370 185 l 1
 444 185 l 1
 444 148 l 1
 370 148 l 1
259 111 m 1
 259 148 l 1
 333 148 l 1
 333 111 l 1
 259 111 l 1
370 111 m 1
 370 148 l 1
 444 148 l 1
 444 111 l 1
 370 111 l 1
259 74 m 1
 259 111 l 1
 333 111 l 1
 333 74 l 1
 259 74 l 1
370 74 m 1
 370 111 l 1
 444 111 l 1
 444 74 l 1
 370 74 l 1
259 37 m 1
 259 74 l 1
 333 74 l 1
 333 37 l 1
 259 37 l 1
370 37 m 1
 370 74 l 1
 444 74 l 1
 444 37 l 1
 370 37 l 1
259 0 m 1
 259 37 l 1
 333 37 l 1
 333 0 l 1
 259 0 l 1
370 0 m 1
 370 37 l 1
 444 37 l 1
 444 0 l 1
 370 0 l 1
259 -37 m 1
 259 0 l 1
 333 0 l 1
 333 -37 l 1
 259 -37 l 1
370 -37 m 1
 370 0 l 1
 444 0 l 1
 444 -37 l 1
 370 -37 l 1
259 -74 m 1
 259 -37 l 1
 333 -37 l 1
 333 -74 l 1
 259 -74 l 1
370 -74 m 1
 370 -37 l 1
 444 -37 l 1
 444 -74 l 1
 370 -74 l 1
259 -111 m 1
 259 -74 l 1
 333 -74 l 1
 333 -111 l 1
 259 -111 l 1
370 -111 m 1
 370 -74 l 1
 444 -74 l 1
 444 -111 l 1
 370 -111 l 1
259 -148 m 1
 259 -111 l 1
 333 -111 l 1
 333 -148 l 1
 259 -148 l 1
370 -148 m 1
 370 -111 l 1
 444 -111 l 1
 444 -148 l 1
 370 -148 l 1
EndSplineSet
EndChar

StartChar: periodcentered
Encoding: 183 183 119
Width: 593
Flags: HW
LayerCount: 2
Back
Fore
SplineSet
222 296 m 1
 222 333 l 1
 333 333 l 1
 333 296 l 1
 222 296 l 1
222 259 m 1
 222 296 l 1
 333 296 l 1
 333 259 l 1
 222 259 l 1
222 222 m 1
 222 259 l 1
 333 259 l 1
 333 222 l 1
 222 222 l 1
EndSplineSet
EndChar

StartChar: cedilla
Encoding: 184 184 120
Width: 593
Flags: HW
LayerCount: 2
Back
Fore
SplineSet
259 -37 m 1
 259 0 l 1
 333 0 l 1
 333 -37 l 1
 259 -37 l 1
222 -74 m 1
 222 -37 l 1
 296 -37 l 1
 296 -74 l 1
 222 -74 l 1
296 -111 m 1
 296 -74 l 1
 370 -74 l 1
 370 -111 l 1
 296 -111 l 1
296 -148 m 1
 296 -111 l 1
 370 -111 l 1
 370 -148 l 1
 296 -148 l 1
222 -185 m 1
 222 -148 l 1
 333 -148 l 1
 333 -185 l 1
 222 -185 l 1
EndSplineSet
EndChar

StartChar: onesuperior
Encoding: 185 185 121
Width: 593
Flags: HW
LayerCount: 2
Back
Fore
SplineSet
0 667 m 1
 0 704 l 1
 74 704 l 1
 74 667 l 1
 0 667 l 1
-74 630 m 1
 -74 667 l 1
 0 667 l 1
 0 630 l 1
 -74 630 l 1
37 630 m 1
 37 667 l 1
 74 667 l 1
 74 630 l 1
 37 630 l 1
37 593 m 1
 37 630 l 1
 74 630 l 1
 74 593 l 1
 37 593 l 1
37 556 m 1
 37 593 l 1
 74 593 l 1
 74 556 l 1
 37 556 l 1
37 519 m 1
 37 556 l 1
 74 556 l 1
 74 519 l 1
 37 519 l 1
37 481 m 1
 37 519 l 1
 74 519 l 1
 74 481 l 1
 37 481 l 1
37 444 m 1
 37 481 l 1
 74 481 l 1
 74 444 l 1
 37 444 l 1
37 407 m 1
 37 444 l 1
 74 444 l 1
 74 407 l 1
 37 407 l 1
-74 370 m 1
 -74 407 l 1
 185 407 l 1
 185 370 l 1
 -74 370 l 1
EndSplineSet
EndChar

StartChar: ordmasculine
Encoding: 186 186 122
Width: 593
Flags: HW
LayerCount: 2
Back
Fore
SplineSet
222 667 m 1
 222 704 l 1
 370 704 l 1
 370 667 l 1
 222 667 l 1
148 630 m 1
 148 667 l 1
 444 667 l 1
 444 630 l 1
 148 630 l 1
148 593 m 1
 148 630 l 1
 259 630 l 1
 259 593 l 1
 148 593 l 1
333 593 m 1
 333 630 l 1
 444 630 l 1
 444 593 l 1
 333 593 l 1
111 556 m 1
 111 593 l 1
 222 593 l 1
 222 556 l 1
 111 556 l 1
370 556 m 1
 370 593 l 1
 481 593 l 1
 481 556 l 1
 370 556 l 1
111 519 m 1
 111 556 l 1
 222 556 l 1
 222 519 l 1
 111 519 l 1
370 519 m 1
 370 556 l 1
 481 556 l 1
 481 519 l 1
 370 519 l 1
111 481 m 1
 111 519 l 1
 222 519 l 1
 222 481 l 1
 111 481 l 1
370 481 m 1
 370 519 l 1
 481 519 l 1
 481 481 l 1
 370 481 l 1
111 444 m 1
 111 481 l 1
 222 481 l 1
 222 444 l 1
 111 444 l 1
370 444 m 1
 370 481 l 1
 481 481 l 1
 481 444 l 1
 370 444 l 1
148 407 m 1
 148 444 l 1
 259 444 l 1
 259 407 l 1
 148 407 l 1
333 407 m 1
 333 444 l 1
 444 444 l 1
 444 407 l 1
 333 407 l 1
148 370 m 1
 148 407 l 1
 444 407 l 1
 444 370 l 1
 148 370 l 1
222 333 m 1
 222 370 l 1
 370 370 l 1
 370 333 l 1
 222 333 l 1
EndSplineSet
EndChar

StartChar: guillemotright
Encoding: 187 187 123
Width: 593
Flags: HW
LayerCount: 2
Back
Fore
SplineSet
111 444 m 1
 111 481 l 1
 148 481 l 1
 148 444 l 1
 111 444 l 1
259 444 m 1
 259 481 l 1
 333 481 l 1
 333 444 l 1
 259 444 l 1
74 407 m 1
 74 444 l 1
 185 444 l 1
 185 407 l 1
 74 407 l 1
296 407 m 1
 296 444 l 1
 370 444 l 1
 370 407 l 1
 296 407 l 1
111 370 m 1
 111 407 l 1
 222 407 l 1
 222 370 l 1
 111 370 l 1
296 370 m 1
 296 407 l 1
 407 407 l 1
 407 370 l 1
 296 370 l 1
148 333 m 1
 148 370 l 1
 222 370 l 1
 222 333 l 1
 148 333 l 1
333 333 m 1
 333 370 l 1
 444 370 l 1
 444 333 l 1
 333 333 l 1
185 296 m 1
 185 333 l 1
 259 333 l 1
 259 296 l 1
 185 296 l 1
370 296 m 1
 370 333 l 1
 481 333 l 1
 481 296 l 1
 370 296 l 1
185 259 m 1
 185 296 l 1
 296 296 l 1
 296 259 l 1
 185 259 l 1
407 259 m 1
 407 296 l 1
 519 296 l 1
 519 259 l 1
 407 259 l 1
185 222 m 1
 185 259 l 1
 333 259 l 1
 333 222 l 1
 185 222 l 1
407 222 m 1
 407 259 l 1
 519 259 l 1
 519 222 l 1
 407 222 l 1
185 185 m 1
 185 222 l 1
 259 222 l 1
 259 185 l 1
 185 185 l 1
370 185 m 1
 370 222 l 1
 481 222 l 1
 481 185 l 1
 370 185 l 1
148 148 m 1
 148 185 l 1
 222 185 l 1
 222 148 l 1
 148 148 l 1
333 148 m 1
 333 185 l 1
 444 185 l 1
 444 148 l 1
 333 148 l 1
111 111 m 1
 111 148 l 1
 222 148 l 1
 222 111 l 1
 111 111 l 1
296 111 m 1
 296 148 l 1
 407 148 l 1
 407 111 l 1
 296 111 l 1
74 74 m 1
 74 111 l 1
 185 111 l 1
 185 74 l 1
 74 74 l 1
259 74 m 1
 259 111 l 1
 370 111 l 1
 370 74 l 1
 259 74 l 1
111 37 m 1
 111 74 l 1
 148 74 l 1
 148 37 l 1
 111 37 l 1
296 37 m 1
 296 74 l 1
 333 74 l 1
 333 37 l 1
 296 37 l 1
EndSplineSet
EndChar

StartChar: onequarter
Encoding: 188 188 124
Width: 593
Flags: HW
LayerCount: 2
Back
Fore
SplineSet
185 667 m 1
 185 704 l 1
 259 704 l 1
 259 667 l 1
 185 667 l 1
593 667 m 1
 593 704 l 1
 704 704 l 1
 704 667 l 1
 593 667 l 1
111 630 m 1
 111 667 l 1
 185 667 l 1
 185 630 l 1
 111 630 l 1
222 630 m 1
 222 667 l 1
 259 667 l 1
 259 630 l 1
 222 630 l 1
556 630 m 1
 556 667 l 1
 667 667 l 1
 667 630 l 1
 556 630 l 1
222 593 m 1
 222 630 l 1
 259 630 l 1
 259 593 l 1
 222 593 l 1
556 593 m 1
 556 630 l 1
 630 630 l 1
 630 593 l 1
 556 593 l 1
222 556 m 1
 222 593 l 1
 259 593 l 1
 259 556 l 1
 222 556 l 1
519 556 m 1
 519 593 l 1
 630 593 l 1
 630 556 l 1
 519 556 l 1
222 519 m 1
 222 556 l 1
 259 556 l 1
 259 519 l 1
 222 519 l 1
481 519 m 1
 481 556 l 1
 593 556 l 1
 593 519 l 1
 481 519 l 1
222 481 m 1
 222 519 l 1
 259 519 l 1
 259 481 l 1
 222 481 l 1
481 481 m 1
 481 519 l 1
 556 519 l 1
 556 481 l 1
 481 481 l 1
222 444 m 1
 222 481 l 1
 259 481 l 1
 259 444 l 1
 222 444 l 1
444 444 m 1
 444 481 l 1
 519 481 l 1
 519 444 l 1
 444 444 l 1
222 407 m 1
 222 444 l 1
 259 444 l 1
 259 407 l 1
 222 407 l 1
407 407 m 1
 407 444 l 1
 519 444 l 1
 519 407 l 1
 407 407 l 1
111 370 m 1
 111 407 l 1
 481 407 l 1
 481 370 l 1
 111 370 l 1
370 333 m 1
 370 370 l 1
 444 370 l 1
 444 333 l 1
 370 333 l 1
333 296 m 1
 333 333 l 1
 407 333 l 1
 407 296 l 1
 333 296 l 1
593 296 m 1
 593 333 l 1
 667 333 l 1
 667 296 l 1
 593 296 l 1
296 259 m 1
 296 296 l 1
 407 296 l 1
 407 259 l 1
 296 259 l 1
593 259 m 1
 593 296 l 1
 667 296 l 1
 667 259 l 1
 593 259 l 1
296 222 m 1
 296 259 l 1
 370 259 l 1
 370 222 l 1
 296 222 l 1
556 222 m 1
 556 259 l 1
 593 259 l 1
 593 222 l 1
 556 222 l 1
630 222 m 1
 630 259 l 1
 667 259 l 1
 667 222 l 1
 630 222 l 1
259 185 m 1
 259 222 l 1
 333 222 l 1
 333 185 l 1
 259 185 l 1
556 185 m 1
 556 222 l 1
 593 222 l 1
 593 185 l 1
 556 185 l 1
630 185 m 1
 630 222 l 1
 667 222 l 1
 667 185 l 1
 630 185 l 1
222 148 m 1
 222 185 l 1
 333 185 l 1
 333 148 l 1
 222 148 l 1
519 148 m 1
 519 185 l 1
 556 185 l 1
 556 148 l 1
 519 148 l 1
630 148 m 1
 630 185 l 1
 667 185 l 1
 667 148 l 1
 630 148 l 1
185 111 m 1
 185 148 l 1
 296 148 l 1
 296 111 l 1
 185 111 l 1
481 111 m 1
 481 148 l 1
 519 148 l 1
 519 111 l 1
 481 111 l 1
630 111 m 1
 630 148 l 1
 667 148 l 1
 667 111 l 1
 630 111 l 1
185 74 m 1
 185 111 l 1
 259 111 l 1
 259 74 l 1
 185 74 l 1
481 74 m 1
 481 111 l 1
 704 111 l 1
 704 74 l 1
 481 74 l 1
148 37 m 1
 148 74 l 1
 222 74 l 1
 222 37 l 1
 148 37 l 1
630 37 m 1
 630 74 l 1
 667 74 l 1
 667 37 l 1
 630 37 l 1
111 0 m 1
 111 37 l 1
 222 37 l 1
 222 0 l 1
 111 0 l 1
630 0 m 1
 630 37 l 1
 667 37 l 1
 667 0 l 1
 630 0 l 1
EndSplineSet
EndChar

StartChar: onehalf
Encoding: 189 189 125
Width: 593
Flags: HW
LayerCount: 2
Back
Fore
SplineSet
185 667 m 1
 185 704 l 1
 259 704 l 1
 259 667 l 1
 185 667 l 1
593 667 m 1
 593 704 l 1
 704 704 l 1
 704 667 l 1
 593 667 l 1
111 630 m 1
 111 667 l 1
 185 667 l 1
 185 630 l 1
 111 630 l 1
222 630 m 1
 222 667 l 1
 259 667 l 1
 259 630 l 1
 222 630 l 1
556 630 m 1
 556 667 l 1
 667 667 l 1
 667 630 l 1
 556 630 l 1
222 593 m 1
 222 630 l 1
 259 630 l 1
 259 593 l 1
 222 593 l 1
556 593 m 1
 556 630 l 1
 630 630 l 1
 630 593 l 1
 556 593 l 1
222 556 m 1
 222 593 l 1
 259 593 l 1
 259 556 l 1
 222 556 l 1
519 556 m 1
 519 593 l 1
 630 593 l 1
 630 556 l 1
 519 556 l 1
222 519 m 1
 222 556 l 1
 259 556 l 1
 259 519 l 1
 222 519 l 1
481 519 m 1
 481 556 l 1
 593 556 l 1
 593 519 l 1
 481 519 l 1
222 481 m 1
 222 519 l 1
 259 519 l 1
 259 481 l 1
 222 481 l 1
481 481 m 1
 481 519 l 1
 556 519 l 1
 556 481 l 1
 481 481 l 1
222 444 m 1
 222 481 l 1
 259 481 l 1
 259 444 l 1
 222 444 l 1
444 444 m 1
 444 481 l 1
 519 481 l 1
 519 444 l 1
 444 444 l 1
222 407 m 1
 222 444 l 1
 259 444 l 1
 259 407 l 1
 222 407 l 1
407 407 m 1
 407 444 l 1
 519 444 l 1
 519 407 l 1
 407 407 l 1
111 370 m 1
 111 407 l 1
 481 407 l 1
 481 370 l 1
 111 370 l 1
370 333 m 1
 370 370 l 1
 444 370 l 1
 444 333 l 1
 370 333 l 1
333 296 m 1
 333 333 l 1
 407 333 l 1
 407 296 l 1
 333 296 l 1
519 296 m 1
 519 333 l 1
 667 333 l 1
 667 296 l 1
 519 296 l 1
296 259 m 1
 296 296 l 1
 407 296 l 1
 407 259 l 1
 296 259 l 1
519 259 m 1
 519 296 l 1
 556 296 l 1
 556 259 l 1
 519 259 l 1
667 259 m 1
 667 296 l 1
 704 296 l 1
 704 259 l 1
 667 259 l 1
296 222 m 1
 296 259 l 1
 370 259 l 1
 370 222 l 1
 296 222 l 1
667 222 m 1
 667 259 l 1
 704 259 l 1
 704 222 l 1
 667 222 l 1
259 185 m 1
 259 222 l 1
 333 222 l 1
 333 185 l 1
 259 185 l 1
667 185 m 1
 667 222 l 1
 704 222 l 1
 704 185 l 1
 667 185 l 1
222 148 m 1
 222 185 l 1
 333 185 l 1
 333 148 l 1
 222 148 l 1
630 148 m 1
 630 185 l 1
 667 185 l 1
 667 148 l 1
 630 148 l 1
185 111 m 1
 185 148 l 1
 296 148 l 1
 296 111 l 1
 185 111 l 1
593 111 m 1
 593 148 l 1
 630 148 l 1
 630 111 l 1
 593 111 l 1
185 74 m 1
 185 111 l 1
 259 111 l 1
 259 74 l 1
 185 74 l 1
556 74 m 1
 556 111 l 1
 593 111 l 1
 593 74 l 1
 556 74 l 1
148 37 m 1
 148 74 l 1
 222 74 l 1
 222 37 l 1
 148 37 l 1
519 37 m 1
 519 74 l 1
 593 74 l 1
 593 37 l 1
 519 37 l 1
111 0 m 1
 111 37 l 1
 222 37 l 1
 222 0 l 1
 111 0 l 1
519 0 m 1
 519 37 l 1
 704 37 l 1
 704 0 l 1
 519 0 l 1
EndSplineSet
EndChar

StartChar: threequarters
Encoding: 190 190 126
Width: 593
Flags: HW
LayerCount: 2
Back
Fore
SplineSet
111 667 m 1
 111 704 l 1
 259 704 l 1
 259 667 l 1
 111 667 l 1
593 667 m 1
 593 704 l 1
 704 704 l 1
 704 667 l 1
 593 667 l 1
111 630 m 1
 111 667 l 1
 148 667 l 1
 148 630 l 1
 111 630 l 1
259 630 m 1
 259 667 l 1
 296 667 l 1
 296 630 l 1
 259 630 l 1
556 630 m 1
 556 667 l 1
 667 667 l 1
 667 630 l 1
 556 630 l 1
259 593 m 1
 259 630 l 1
 296 630 l 1
 296 593 l 1
 259 593 l 1
556 593 m 1
 556 630 l 1
 630 630 l 1
 630 593 l 1
 556 593 l 1
259 556 m 1
 259 593 l 1
 296 593 l 1
 296 556 l 1
 259 556 l 1
519 556 m 1
 519 593 l 1
 630 593 l 1
 630 556 l 1
 519 556 l 1
148 519 m 1
 148 556 l 1
 259 556 l 1
 259 519 l 1
 148 519 l 1
481 519 m 1
 481 556 l 1
 593 556 l 1
 593 519 l 1
 481 519 l 1
222 481 m 1
 222 519 l 1
 296 519 l 1
 296 481 l 1
 222 481 l 1
481 481 m 1
 481 519 l 1
 556 519 l 1
 556 481 l 1
 481 481 l 1
259 444 m 1
 259 481 l 1
 296 481 l 1
 296 444 l 1
 259 444 l 1
444 444 m 1
 444 481 l 1
 519 481 l 1
 519 444 l 1
 444 444 l 1
259 407 m 1
 259 444 l 1
 296 444 l 1
 296 407 l 1
 259 407 l 1
407 407 m 1
 407 444 l 1
 519 444 l 1
 519 407 l 1
 407 407 l 1
111 370 m 1
 111 407 l 1
 259 407 l 1
 259 370 l 1
 111 370 l 1
370 370 m 1
 370 407 l 1
 481 407 l 1
 481 370 l 1
 370 370 l 1
370 333 m 1
 370 370 l 1
 444 370 l 1
 444 333 l 1
 370 333 l 1
333 296 m 1
 333 333 l 1
 407 333 l 1
 407 296 l 1
 333 296 l 1
593 296 m 1
 593 333 l 1
 667 333 l 1
 667 296 l 1
 593 296 l 1
296 259 m 1
 296 296 l 1
 407 296 l 1
 407 259 l 1
 296 259 l 1
593 259 m 1
 593 296 l 1
 667 296 l 1
 667 259 l 1
 593 259 l 1
296 222 m 1
 296 259 l 1
 370 259 l 1
 370 222 l 1
 296 222 l 1
556 222 m 1
 556 259 l 1
 593 259 l 1
 593 222 l 1
 556 222 l 1
630 222 m 1
 630 259 l 1
 667 259 l 1
 667 222 l 1
 630 222 l 1
259 185 m 1
 259 222 l 1
 333 222 l 1
 333 185 l 1
 259 185 l 1
556 185 m 1
 556 222 l 1
 593 222 l 1
 593 185 l 1
 556 185 l 1
630 185 m 1
 630 222 l 1
 667 222 l 1
 667 185 l 1
 630 185 l 1
222 148 m 1
 222 185 l 1
 333 185 l 1
 333 148 l 1
 222 148 l 1
519 148 m 1
 519 185 l 1
 556 185 l 1
 556 148 l 1
 519 148 l 1
630 148 m 1
 630 185 l 1
 667 185 l 1
 667 148 l 1
 630 148 l 1
185 111 m 1
 185 148 l 1
 296 148 l 1
 296 111 l 1
 185 111 l 1
481 111 m 1
 481 148 l 1
 519 148 l 1
 519 111 l 1
 481 111 l 1
630 111 m 1
 630 148 l 1
 667 148 l 1
 667 111 l 1
 630 111 l 1
185 74 m 1
 185 111 l 1
 259 111 l 1
 259 74 l 1
 185 74 l 1
481 74 m 1
 481 111 l 1
 704 111 l 1
 704 74 l 1
 481 74 l 1
148 37 m 1
 148 74 l 1
 222 74 l 1
 222 37 l 1
 148 37 l 1
630 37 m 1
 630 74 l 1
 667 74 l 1
 667 37 l 1
 630 37 l 1
111 0 m 1
 111 37 l 1
 222 37 l 1
 222 0 l 1
 111 0 l 1
630 0 m 1
 630 37 l 1
 667 37 l 1
 667 0 l 1
 630 0 l 1
EndSplineSet
EndChar

